<?xml version="1.0" encoding="UTF-8" standalone="no"?>
<!-- Created with Inkscape (http://www.inkscape.org/) -->

<svg
   xmlns:dc="http://purl.org/dc/elements/1.1/"
   xmlns:cc="http://creativecommons.org/ns#"
   xmlns:rdf="http://www.w3.org/1999/02/22-rdf-syntax-ns#"
   xmlns:svg="http://www.w3.org/2000/svg"
   xmlns="http://www.w3.org/2000/svg"
   xmlns:sodipodi="http://sodipodi.sourceforge.net/DTD/sodipodi-0.dtd"
   xmlns:inkscape="http://www.inkscape.org/namespaces/inkscape"
   height="139.96645mm"
   width="158.04013mm"
   viewBox="0 0 559.98472 495.9441"
   id="svg6449"
   version="1.1"
   inkscape:version="0.91 r13725"
   inkscape:export-filename="/var/www/html/lucien.fr/img/vague.png"
   inkscape:export-xdpi="90"
   inkscape:export-ydpi="90"
   sodipodi:docname="vague.svg">
  <defs
     id="defs6455" />
  <sodipodi:namedview
     pagecolor="#ffffff"
     bordercolor="#666666"
     borderopacity="1"
     objecttolerance="10"
     gridtolerance="10"
     guidetolerance="10"
     inkscape:pageopacity="0"
     inkscape:pageshadow="2"
     inkscape:window-width="1366"
     inkscape:window-height="704"
     id="namedview6453"
     showgrid="false"
     fit-margin-top="25"
     fit-margin-left="25"
     fit-margin-right="25"
     fit-margin-bottom="25"
     inkscape:zoom="0.63429568"
     inkscape:cx="161.34784"
     inkscape:cy="136.05331"
     inkscape:window-x="0"
     inkscape:window-y="30"
     inkscape:window-maximized="1"
     inkscape:current-layer="svg6449" />
  <metadata
     id="metadata6451">
    <rdf:RDF>
      <cc:Work
         rdf:about="">
        <dc:format>image/svg+xml</dc:format>
        <dc:type
           rdf:resource="http://purl.org/dc/dcmitype/StillImage" />
        <dc:title></dc:title>
      </cc:Work>
    </rdf:RDF>
  </metadata>
  <g
     style="display:inline"
     id="g3969"
     transform="translate(-1211.2575,-361.67436)">
    <path
       style="display:inline;fill:none;fill-rule:evenodd;stroke:#63b9b6;stroke-width:0.58516401px;stroke-linecap:butt;stroke-linejoin:miter;stroke-opacity:1"
       d="m 1647.8402,751.45038 c 2.8981,0 4.7545,-2.10536 4.7545,-5.19333 0,3.08797 2.4562,5.19333 4.9739,5.19333 2.5152,0 4.7544,-2.10536 4.7544,-5.19333 0,3.08797 1.5043,5.19333 4.9008,5.19333 2.9817,0 4.6813,-2.13151 4.6813,-5.19333 0,3.1494 2.0563,5.19333 4.7545,5.19333"
       id="path3971"
       inkscape:connector-curvature="0"
       sodipodi:nodetypes="ccscscc" />
    <path
       sodipodi:nodetypes="ccscscc"
       inkscape:connector-curvature="0"
       id="path3973"
       d="m 1637.8402,759.45038 c 2.8981,0 4.7545,-2.10536 4.7545,-5.19333 0,3.08797 2.4562,5.19333 4.9739,5.19333 2.5152,0 4.7544,-2.10536 4.7544,-5.19333 0,3.08797 1.5043,5.19333 4.9008,5.19333 2.9817,0 4.6813,-2.13151 4.6813,-5.19333 0,3.1494 2.0563,5.19333 4.7545,5.19333"
       style="display:inline;fill:none;fill-rule:evenodd;stroke:#63b9b6;stroke-width:0.58516401px;stroke-linecap:butt;stroke-linejoin:miter;stroke-opacity:1" />
    <path
       style="display:inline;fill:none;fill-rule:evenodd;stroke:#63b9b6;stroke-width:0.58516401px;stroke-linecap:butt;stroke-linejoin:miter;stroke-opacity:1"
       d="m 1653.8402,768.74326 c 2.8981,0 4.7545,-2.10536 4.7545,-5.19333 0,3.08797 2.4562,5.19333 4.9739,5.19333 2.5152,0 4.7544,-2.10536 4.7544,-5.19333 0,3.08797 1.5043,5.19333 4.9008,5.19333 2.9817,0 4.6813,-2.13151 4.6813,-5.19333 0,3.1494 2.0563,5.19333 4.7545,5.19333"
       id="path3975"
       inkscape:connector-curvature="0"
       sodipodi:nodetypes="ccscscc" />
  </g>
  <g
     style="display:inline"
     transform="translate(-1331.2575,-503.67437)"
     id="g3977">
    <path
       sodipodi:nodetypes="ccscscc"
       inkscape:connector-curvature="0"
       id="path3979"
       d="m 1647.8402,751.45038 c 2.8981,0 4.7545,-2.10536 4.7545,-5.19333 0,3.08797 2.4562,5.19333 4.9739,5.19333 2.5152,0 4.7544,-2.10536 4.7544,-5.19333 0,3.08797 1.5043,5.19333 4.9008,5.19333 2.9817,0 4.6813,-2.13151 4.6813,-5.19333 0,3.1494 2.0563,5.19333 4.7545,5.19333"
       style="display:inline;fill:none;fill-rule:evenodd;stroke:#63b9b6;stroke-width:0.58516401px;stroke-linecap:butt;stroke-linejoin:miter;stroke-opacity:1" />
    <path
       style="display:inline;fill:none;fill-rule:evenodd;stroke:#63b9b6;stroke-width:0.58516401px;stroke-linecap:butt;stroke-linejoin:miter;stroke-opacity:1"
       d="m 1637.8402,759.45038 c 2.8981,0 4.7545,-2.10536 4.7545,-5.19333 0,3.08797 2.4562,5.19333 4.9739,5.19333 2.5152,0 4.7544,-2.10536 4.7544,-5.19333 0,3.08797 1.5043,5.19333 4.9008,5.19333 2.9817,0 4.6813,-2.13151 4.6813,-5.19333 0,3.1494 2.0563,5.19333 4.7545,5.19333"
       id="path3981"
       inkscape:connector-curvature="0"
       sodipodi:nodetypes="ccscscc" />
    <path
       sodipodi:nodetypes="ccscscc"
       inkscape:connector-curvature="0"
       id="path3983"
       d="m 1653.8402,768.74326 c 2.8981,0 4.7545,-2.10536 4.7545,-5.19333 0,3.08797 2.4562,5.19333 4.9739,5.19333 2.5152,0 4.7544,-2.10536 4.7544,-5.19333 0,3.08797 1.5043,5.19333 4.9008,5.19333 2.9817,0 4.6813,-2.13151 4.6813,-5.19333 0,3.1494 2.0563,5.19333 4.7545,5.19333"
       style="display:inline;fill:none;fill-rule:evenodd;stroke:#63b9b6;stroke-width:0.58516401px;stroke-linecap:butt;stroke-linejoin:miter;stroke-opacity:1" />
  </g>
  <g
     style="display:inline"
     id="g3985"
     transform="translate(-1248.2575,-657.67436)">
    <path
       style="display:inline;fill:none;fill-rule:evenodd;stroke:#63b9b6;stroke-width:0.58516401px;stroke-linecap:butt;stroke-linejoin:miter;stroke-opacity:1"
       d="m 1647.8402,751.45038 c 2.8981,0 4.7545,-2.10536 4.7545,-5.19333 0,3.08797 2.4562,5.19333 4.9739,5.19333 2.5152,0 4.7544,-2.10536 4.7544,-5.19333 0,3.08797 1.5043,5.19333 4.9008,5.19333 2.9817,0 4.6813,-2.13151 4.6813,-5.19333 0,3.1494 2.0563,5.19333 4.7545,5.19333"
       id="path3987"
       inkscape:connector-curvature="0"
       sodipodi:nodetypes="ccscscc" />
    <path
       sodipodi:nodetypes="ccscscc"
       inkscape:connector-curvature="0"
       id="path3989"
       d="m 1637.8402,759.45038 c 2.8981,0 4.7545,-2.10536 4.7545,-5.19333 0,3.08797 2.4562,5.19333 4.9739,5.19333 2.5152,0 4.7544,-2.10536 4.7544,-5.19333 0,3.08797 1.5043,5.19333 4.9008,5.19333 2.9817,0 4.6813,-2.13151 4.6813,-5.19333 0,3.1494 2.0563,5.19333 4.7545,5.19333"
       style="display:inline;fill:none;fill-rule:evenodd;stroke:#63b9b6;stroke-width:0.58516401px;stroke-linecap:butt;stroke-linejoin:miter;stroke-opacity:1" />
    <path
       style="display:inline;fill:none;fill-rule:evenodd;stroke:#63b9b6;stroke-width:0.58516401px;stroke-linecap:butt;stroke-linejoin:miter;stroke-opacity:1"
       d="m 1653.8402,768.74326 c 2.8981,0 4.7545,-2.10536 4.7545,-5.19333 0,3.08797 2.4562,5.19333 4.9739,5.19333 2.5152,0 4.7544,-2.10536 4.7544,-5.19333 0,3.08797 1.5043,5.19333 4.9008,5.19333 2.9817,0 4.6813,-2.13151 4.6813,-5.19333 0,3.1494 2.0563,5.19333 4.7545,5.19333"
       id="path3991"
       inkscape:connector-curvature="0"
       sodipodi:nodetypes="ccscscc" />
  </g>
  <g
     style="display:inline"
     transform="translate(-1528.2575,-398.67437)"
     id="g3993">
    <path
       sodipodi:nodetypes="ccscscc"
       inkscape:connector-curvature="0"
       id="path3995"
       d="m 1647.8402,751.45038 c 2.8981,0 4.7545,-2.10536 4.7545,-5.19333 0,3.08797 2.4562,5.19333 4.9739,5.19333 2.5152,0 4.7544,-2.10536 4.7544,-5.19333 0,3.08797 1.5043,5.19333 4.9008,5.19333 2.9817,0 4.6813,-2.13151 4.6813,-5.19333 0,3.1494 2.0563,5.19333 4.7545,5.19333"
       style="display:inline;fill:none;fill-rule:evenodd;stroke:#63b9b6;stroke-width:0.58516401px;stroke-linecap:butt;stroke-linejoin:miter;stroke-opacity:1" />
    <path
       style="display:inline;fill:none;fill-rule:evenodd;stroke:#63b9b6;stroke-width:0.58516401px;stroke-linecap:butt;stroke-linejoin:miter;stroke-opacity:1"
       d="m 1637.8402,759.45038 c 2.8981,0 4.7545,-2.10536 4.7545,-5.19333 0,3.08797 2.4562,5.19333 4.9739,5.19333 2.5152,0 4.7544,-2.10536 4.7544,-5.19333 0,3.08797 1.5043,5.19333 4.9008,5.19333 2.9817,0 4.6813,-2.13151 4.6813,-5.19333 0,3.1494 2.0563,5.19333 4.7545,5.19333"
       id="path3997"
       inkscape:connector-curvature="0"
       sodipodi:nodetypes="ccscscc" />
    <path
       sodipodi:nodetypes="ccscscc"
       inkscape:connector-curvature="0"
       id="path3999"
       d="m 1653.8402,768.74326 c 2.8981,0 4.7545,-2.10536 4.7545,-5.19333 0,3.08797 2.4562,5.19333 4.9739,5.19333 2.5152,0 4.7544,-2.10536 4.7544,-5.19333 0,3.08797 1.5043,5.19333 4.9008,5.19333 2.9817,0 4.6813,-2.13151 4.6813,-5.19333 0,3.1494 2.0563,5.19333 4.7545,5.19333"
       style="display:inline;fill:none;fill-rule:evenodd;stroke:#63b9b6;stroke-width:0.58516401px;stroke-linecap:butt;stroke-linejoin:miter;stroke-opacity:1" />
  </g>
  <g
     style="display:inline"
     id="g4001"
     transform="translate(-1549.2575,-552.67437)">
    <path
       style="display:inline;fill:none;fill-rule:evenodd;stroke:#63b9b6;stroke-width:0.58516401px;stroke-linecap:butt;stroke-linejoin:miter;stroke-opacity:1"
       d="m 1647.8402,751.45038 c 2.8981,0 4.7545,-2.10536 4.7545,-5.19333 0,3.08797 2.4562,5.19333 4.9739,5.19333 2.5152,0 4.7544,-2.10536 4.7544,-5.19333 0,3.08797 1.5043,5.19333 4.9008,5.19333 2.9817,0 4.6813,-2.13151 4.6813,-5.19333 0,3.1494 2.0563,5.19333 4.7545,5.19333"
       id="path4003"
       inkscape:connector-curvature="0"
       sodipodi:nodetypes="ccscscc" />
    <path
       sodipodi:nodetypes="ccscscc"
       inkscape:connector-curvature="0"
       id="path4005"
       d="m 1637.8402,759.45038 c 2.8981,0 4.7545,-2.10536 4.7545,-5.19333 0,3.08797 2.4562,5.19333 4.9739,5.19333 2.5152,0 4.7544,-2.10536 4.7544,-5.19333 0,3.08797 1.5043,5.19333 4.9008,5.19333 2.9817,0 4.6813,-2.13151 4.6813,-5.19333 0,3.1494 2.0563,5.19333 4.7545,5.19333"
       style="display:inline;fill:none;fill-rule:evenodd;stroke:#63b9b6;stroke-width:0.58516401px;stroke-linecap:butt;stroke-linejoin:miter;stroke-opacity:1" />
    <path
       style="display:inline;fill:none;fill-rule:evenodd;stroke:#63b9b6;stroke-width:0.58516401px;stroke-linecap:butt;stroke-linejoin:miter;stroke-opacity:1"
       d="m 1653.8402,768.74326 c 2.8981,0 4.7545,-2.10536 4.7545,-5.19333 0,3.08797 2.4562,5.19333 4.9739,5.19333 2.5152,0 4.7544,-2.10536 4.7544,-5.19333 0,3.08797 1.5043,5.19333 4.9008,5.19333 2.9817,0 4.6813,-2.13151 4.6813,-5.19333 0,3.1494 2.0563,5.19333 4.7545,5.19333"
       id="path4007"
       inkscape:connector-curvature="0"
       sodipodi:nodetypes="ccscscc" />
  </g>
</svg>
