<?xml version="1.0" encoding="UTF-8" standalone="no"?>
<svg
   xmlns:dc="http://purl.org/dc/elements/1.1/"
   xmlns:cc="http://creativecommons.org/ns#"
   xmlns:rdf="http://www.w3.org/1999/02/22-rdf-syntax-ns#"
   xmlns:svg="http://www.w3.org/2000/svg"
   xmlns="http://www.w3.org/2000/svg"
   version="1.1"
   id="svg12627"
   viewBox="0 0 31.214827 31.214827"
   height="8.8095179mm"
   width="8.8095179mm">
  <defs
     id="defs12629" />
  <metadata
     id="metadata12632">
    <rdf:RDF>
      <cc:Work
         rdf:about="">
        <dc:format>image/svg+xml</dc:format>
        <dc:type
           rdf:resource="http://purl.org/dc/dcmitype/StillImage" />
        <dc:title></dc:title>
      </cc:Work>
    </rdf:RDF>
  </metadata>
  <g
     transform="translate(-138.6783,-125.32622)"
     id="layer1">
    <g
       id="g12253"
       transform="translate(-445.35345,-712.09322)">
      <circle
         r="15.607413"
         cy="853.02686"
         cx="599.63916"
         id="circle12148"
         style="color:#000000;clip-rule:nonzero;display:inline;overflow:visible;visibility:visible;opacity:1;isolation:auto;mix-blend-mode:normal;color-interpolation:sRGB;color-interpolation-filters:linearRGB;solid-color:#000000;solid-opacity:1;fill:#333333;fill-opacity:1;fill-rule:evenodd;stroke:none;stroke-width:1px;stroke-linecap:butt;stroke-linejoin:miter;stroke-miterlimit:4;stroke-dasharray:none;stroke-dashoffset:0;stroke-opacity:1;color-rendering:auto;image-rendering:auto;shape-rendering:auto;text-rendering:auto;enable-background:accumulate" />
      <path
         id="path12150"
         d="m 596.3565,866.3281 c -0.0866,-0.087 -0.0175,-0.2042 0.3347,-0.5687 0.2047,-0.2118 0.41113,-0.4619 0.45871,-0.5557 0.16592,-0.3271 0.24364,-1.1083 0.37695,-3.7891 0.0268,-0.541 0.0871,-1.2494 0.13383,-1.5742 l 0.085,-0.5906 -0.15862,-0.1806 c -0.21296,-0.2426 -0.76495,-1.073 -1.21291,-1.8247 -0.2797,-0.4693 -0.41541,-0.6465 -0.57614,-0.7521 -0.281,-0.1847 -1.87594,-1.4498 -2.11422,-1.6769 l -0.18893,-0.1801 -0.13899,0.1108 c -1.11459,0.8895 -2.14839,1.1666 -3.05533,0.8189 -0.35725,-0.1369 -0.85193,-0.5817 -1.14413,-1.0286 -0.21227,-0.3247 -0.49121,-0.9705 -0.44089,-1.0208 0.0162,-0.016 0.1523,0 0.30264,0.027 0.24346,0.051 0.35826,0.039 1.05066,-0.1024 1.31895,-0.27 2.01645,-0.2222 2.64369,0.1812 0.30931,0.199 0.42238,0.3202 0.64678,0.6936 0.15218,0.2532 0.22109,0.314 0.53392,0.4705 0.19755,0.099 0.6256,0.3706 0.95118,0.6039 0.32558,0.2333 0.61793,0.4245 0.64967,0.4249 0.0317,4e-4 -0.12986,-0.4136 -0.35891,-0.9199 -0.62673,-1.3849 -1.5274,-3.7954 -1.47222,-3.9402 0.0193,-0.05 0.43403,0.7706 0.76725,1.519 0.0648,0.1456 0.13648,0.2648 0.15917,0.2648 0.0227,0 0.0693,-0.1191 0.10363,-0.2648 0.12911,-0.5479 0.58709,-0.9517 1.41586,-1.2481 0.40942,-0.1465 0.55946,-0.2217 0.82569,-0.4139 0.0471,-0.034 0.10396,-0.044 0.12602,-0.022 0.0639,0.064 0.0798,1.0018 0.0208,1.2214 -0.12351,0.4586 -0.49002,0.8418 -0.97393,1.0181 -0.12425,0.045 -0.44917,0.089 -0.7594,0.1015 -0.29822,0.012 -0.54224,0.043 -0.54224,0.068 0,0.1546 0.98014,1.8835 1.45395,2.5646 0.18295,0.263 0.49723,0.6505 0.69836,0.861 0.34731,0.3636 0.82277,0.6911 0.91789,0.6323 0.0638,-0.039 0.0873,-0.2289 0.25802,-2.0723 0.2299,-2.4833 0.35625,-3.5067 0.6645,-5.3828 0.0624,-0.3804 0.10194,-0.7033 0.0879,-0.7176 -0.0147,-0.015 -0.14939,0.022 -0.30035,0.08 -0.38795,0.1502 -1.16106,0.1869 -1.51292,0.072 -0.53159,-0.1739 -0.83501,-0.4839 -1.06016,-1.0831 -0.10926,-0.2906 -0.19515,-1.0141 -0.12056,-1.0141 0.0229,0 0.13413,0.044 0.24688,0.098 0.11703,0.056 0.42097,0.1214 0.70776,0.1527 1.152,0.1259 1.68083,0.3917 1.97508,0.9931 0.0943,0.1929 0.1481,0.2573 0.17488,0.2094 0.0213,-0.038 0.0538,-0.3407 0.0722,-0.6728 0.0491,-0.8807 -0.0407,-1.2649 -0.55999,-2.3979 -0.1269,-0.2767 -0.22092,-0.531 -0.20904,-0.5651 0.0118,-0.034 0.16039,0.1519 0.33003,0.4132 0.30929,0.4765 0.5465,1.0385 0.66693,1.5803 0.0353,0.1596 0.085,0.2901 0.10994,0.2901 0.0926,0 0.34434,-0.67 0.71232,-1.8949 0.62122,-2.0681 0.65941,-2.0547 0.23989,0.084 -0.72534,3.6975 -1.08169,6.2046 -1.14637,8.0658 -0.03,0.8645 0.0221,1.5744 0.12308,1.6753 0.12572,0.1257 2.12466,-1.0756 2.59236,-1.5581 l 0.18692,-0.1928 0.15533,-1.1732 c 0.1471,-1.1112 0.23322,-1.5494 0.25506,-1.2985 0.005,0.056 0.005,0.5322 0,1.0593 -0.0118,1.1422 0.003,1.1867 0.33469,1.0368 0.21023,-0.095 0.30025,-0.1526 1.36395,-0.8717 0.31109,-0.2103 0.66859,-0.4217 0.79447,-0.4697 l 0.22881,-0.087 0,-0.4618 c 0,-1.6347 1.00896,-2.6902 3.3544,-3.5092 0.88288,-0.3083 1.20083,-0.4775 1.48784,-0.7915 0.21599,-0.2363 0.25328,-0.2593 0.29362,-0.181 0.19542,0.3787 0.25146,1.928 0.0941,2.5992 -0.14445,0.6157 -0.39342,1.0623 -0.83684,1.501 -0.44418,0.4395 -0.87373,0.6854 -1.54493,0.8843 -0.56006,0.166 -1.63289,0.2239 -2.34555,0.1265 l -0.4534,-0.062 -0.44072,0.3612 c -0.24238,0.1987 -1.01385,0.8279 -1.71433,1.3982 -0.70054,0.5703 -1.27367,1.0455 -1.27367,1.056 0,0.01 0.15458,0 0.34354,-0.013 0.6632,-0.062 1.19266,0.1985 2.06604,1.0151 0.33882,0.3167 0.62416,0.5406 0.73638,0.5776 0.10082,0.033 0.18318,0.079 0.18318,0.1022 0,0.068 -0.55536,0.4161 -0.8823,0.5532 -0.25492,0.107 -0.38323,0.1274 -0.8075,0.128 -0.42524,5e-4 -0.54132,-0.017 -0.7396,-0.1151 -0.51031,-0.2514 -0.94611,-0.7725 -1.20708,-1.4433 -0.0759,-0.1952 -0.16228,-0.3629 -0.19187,-0.3727 -0.0563,-0.019 -1.49422,1.0459 -1.82555,1.3517 l -0.19127,0.1766 -0.10329,1.2106 c -0.17417,2.0398 -0.21963,3.0303 -0.19096,4.1614 0.0392,1.5483 0.2262,2.4591 0.64815,3.1572 0.16464,0.2723 0.56896,0.6942 0.874,0.912 0.12809,0.091 0.13988,0.118 0.083,0.1866 -0.0582,0.07 -0.22842,0.5984 -1.62951,0.5927 -1.45417,-0.01 -1.95716,-0.1603 -2.48729,-0.3821 -0.0834,0.017 -0.16855,0.013 -0.18916,-0.01 z m -5.36954,-15.2292 c -1.25883,-0.2736 -1.97687,-1.2536 -2.11281,-2.8837 -0.0189,-0.2266 -0.0196,-0.4503 -10e-4,-0.4971 0.029,-0.076 0.0526,-0.07 0.20786,0.048 0.25567,0.1949 0.52382,0.2754 1.28654,0.3857 0.89918,0.1302 1.40132,0.2626 1.89299,0.4994 0.7027,0.3384 1.15727,0.9168 1.31495,1.673 0.0827,0.3969 0.0693,0.4972 -0.0665,0.4972 -0.0494,0 -0.20889,0.045 -0.35441,0.1005 -0.61133,0.2323 -1.55588,0.3093 -2.16708,0.1764 z m 11.47091,-0.6694 c -0.13501,-0.1491 -0.32706,-0.6258 -0.36263,-0.8998 -0.0185,-0.1419 -0.009,-0.3881 0.0199,-0.547 0.10139,-0.5482 0.3573,-0.9528 1.29349,-2.0449 0.17317,-0.202 0.30329,-0.4102 0.33889,-0.5422 0.0317,-0.1179 0.0871,-0.2144 0.12306,-0.2144 0.0917,0 0.49131,0.5569 0.6647,0.9264 0.58658,1.2501 0.12012,2.4139 -1.24538,3.1079 -0.23926,0.1216 -0.68294,0.3037 -0.73988,0.3037 -0.006,0 -0.0476,-0.04 -0.0923,-0.09 z m -6.08841,-5.7845 c -0.66532,-0.1422 -1.15855,-0.3885 -1.55362,-0.7758 -0.48288,-0.4735 -0.71625,-1.1098 -0.71625,-1.9528 0,-0.4751 0.12071,-1.27 0.20611,-1.3576 0.0299,-0.031 0.10386,0.02 0.20175,0.1389 0.20009,0.2427 0.42858,0.3729 1.24958,0.7122 1.7349,0.7169 2.42985,1.4957 2.42755,2.7204 0,0.2264 -0.0213,0.444 -0.0462,0.4837 -0.0657,0.1039 -1.32433,0.126 -1.76876,0.031 z m 4.82193,-1.1279 c -0.55333,-0.1066 -0.57477,-0.1375 -0.49345,-0.7126 0.19732,-1.3953 1.06316,-2.1404 3.13689,-2.6996 0.81835,-0.2207 1.17317,-0.375 1.42404,-0.6192 0.10363,-0.1008 0.20569,-0.1659 0.227,-0.1446 0.0213,0.021 0.0461,0.38 0.0551,0.7972 0.0118,0.5733 -0.004,0.8526 -0.0684,1.1435 -0.24164,1.0976 -0.86013,1.7934 -1.91566,2.1549 -0.35701,0.1223 -0.4895,0.1397 -1.1597,0.1525 -0.5574,0.01 -0.87488,-0.01 -1.20583,-0.072 z"
         style="fill:#ffffff" />
    </g>
  </g>
</svg>
