<?xml version="1.0" encoding="UTF-8" standalone="no"?>
<svg
   xmlns:dc="http://purl.org/dc/elements/1.1/"
   xmlns:cc="http://creativecommons.org/ns#"
   xmlns:rdf="http://www.w3.org/1999/02/22-rdf-syntax-ns#"
   xmlns:svg="http://www.w3.org/2000/svg"
   xmlns="http://www.w3.org/2000/svg"
   xmlns:xlink="http://www.w3.org/1999/xlink"
   version="1.1"
   id="svg9440"
   viewBox="0 0 31.214841 42.91797"
   height="12.112405mm"
   width="8.8095217mm">
  <defs
     id="defs9442">
    <linearGradient
       gradientUnits="userSpaceOnUse"
       y2="139.21777"
       x2="289.58896"
       y1="115.09216"
       x1="289.58896"
       id="linearGradient7571"
       xlink:href="#linearGradient7557" />
    <linearGradient
       id="linearGradient7557">
      <stop
         id="stop7559"
         offset="0"
         style="stop-color:#f05134;stop-opacity:1;" />
      <stop
         id="stop7561"
         offset="1"
         style="stop-color:#e12d0f;stop-opacity:1" />
    </linearGradient>
  </defs>
  <metadata
     id="metadata9445">
    <rdf:RDF>
      <cc:Work
         rdf:about="">
        <dc:format>image/svg+xml</dc:format>
        <dc:type
           rdf:resource="http://purl.org/dc/dcmitype/StillImage" />
        <dc:title></dc:title>
      </cc:Work>
    </rdf:RDF>
  </metadata>
  <g
     transform="translate(-27.24972,-19.47465)"
     id="layer1">
    <g
       id="g8799"
       transform="translate(-292.71694,-76.82515)">
      <path
         style="color:#000000;clip-rule:nonzero;display:inline;overflow:visible;visibility:visible;opacity:1;isolation:auto;mix-blend-mode:normal;color-interpolation:sRGB;color-interpolation-filters:linearRGB;solid-color:#000000;solid-opacity:1;fill:url(#linearGradient7571);fill-opacity:1;fill-rule:evenodd;stroke:none;stroke-width:1px;stroke-linecap:butt;stroke-linejoin:miter;stroke-miterlimit:4;stroke-dasharray:none;stroke-dashoffset:0;stroke-opacity:1;color-rendering:auto;image-rendering:auto;shape-rendering:auto;text-rendering:auto;enable-background:accumulate"
         d="m 335.57408,96.2998 a 15.60707,15.60707 0 0 0 -15.60742,15.60547 15.60707,15.60707 0 0 0 0.041,1.11914 c 0.83623,12.56323 15.56641,17.71422 15.56641,26.19336 0,-8.36334 14.32556,-13.49165 15.51953,-25.68555 a 15.60707,15.60707 0 0 0 0.0117,-0.11523 c 0.0447,-0.49311 0.0762,-0.99487 0.0762,-1.51172 A 15.60707,15.60707 0 0 0 335.57408,96.2998 Z"
         id="path6697" />
      <path
         d="m 345.701,112.51709 a 5.8025714,5.3190239 0 0 1 -5.80257,5.31903 5.8025714,5.3190239 0 0 1 -5.80257,-5.31903 5.8025714,5.3190239 0 0 1 5.80257,-5.31902 5.8025714,5.3190239 0 0 1 5.80257,5.31902 z m -15.19598,0.52895 c 3.12526,18.70554 29.76779,4.01216 13.93008,-7.69953 l -7.01644,-5.18851 c -1.48353,-1.09705 -3.35737,0.31291 -2.00087,1.49432 l 3.3693,2.93437 -10.91611,0 c -2.37959,0 -2.15988,2.58339 -0.7345,2.58339 l 5.92661,0 -10.24223,8.06408 c -1.61456,1.27119 0.25249,3.65384 2.00086,2.27946 z"
         style="color:#000000;clip-rule:nonzero;display:inline;overflow:visible;visibility:visible;opacity:1;isolation:auto;mix-blend-mode:normal;color-interpolation:sRGB;color-interpolation-filters:linearRGB;solid-color:#000000;solid-opacity:1;fill:#ffffff;fill-opacity:1;fill-rule:nonzero;stroke:none;stroke-width:0.01;stroke-linecap:butt;stroke-linejoin:miter;stroke-miterlimit:4;stroke-dasharray:none;stroke-dashoffset:0;stroke-opacity:1;color-rendering:auto;image-rendering:auto;shape-rendering:auto;text-rendering:auto;enable-background:accumulate"
         id="path6699" />
      <ellipse
         style="color:#000000;clip-rule:nonzero;display:inline;overflow:visible;visibility:visible;opacity:1;isolation:auto;mix-blend-mode:normal;color-interpolation:sRGB;color-interpolation-filters:linearRGB;solid-color:#000000;solid-opacity:1;fill:#ffffff;fill-opacity:1;fill-rule:nonzero;stroke:none;stroke-width:0.01;stroke-linecap:butt;stroke-linejoin:miter;stroke-miterlimit:4;stroke-dasharray:none;stroke-dashoffset:0;stroke-opacity:1;color-rendering:auto;image-rendering:auto;shape-rendering:auto;text-rendering:auto;enable-background:accumulate"
         id="ellipse6701"
         cx="339.93427"
         cy="112.37383"
         rx="3.6143961"
         ry="3.3131969" />
    </g>
  </g>
</svg>
