<?xml version="1.0" encoding="UTF-8" standalone="no"?>
<svg
   xmlns:dc="http://purl.org/dc/elements/1.1/"
   xmlns:cc="http://creativecommons.org/ns#"
   xmlns:rdf="http://www.w3.org/1999/02/22-rdf-syntax-ns#"
   xmlns:svg="http://www.w3.org/2000/svg"
   xmlns="http://www.w3.org/2000/svg"
   xmlns:xlink="http://www.w3.org/1999/xlink"
   version="1.1"
   id="svg10985"
   viewBox="0 0 31.214841 42.91797"
   height="12.112405mm"
   width="8.8095217mm">
  <defs
     id="defs10987">
    <linearGradient
       y2="137.78625"
       x2="379.57394"
       y1="115.09216"
       x1="379.57394"
       gradientTransform="translate(305.34306,264.66007)"
       gradientUnits="userSpaceOnUse"
       id="linearGradient8204"
       xlink:href="#linearGradient7557" />
    <linearGradient
       id="linearGradient7557">
      <stop
         id="stop7559"
         offset="0"
         style="stop-color:#f05134;stop-opacity:1;" />
      <stop
         id="stop7561"
         offset="1"
         style="stop-color:#e12d0f;stop-opacity:1" />
    </linearGradient>
  </defs>
  <metadata
     id="metadata10990">
    <rdf:RDF>
      <cc:Work
         rdf:about="">
        <dc:format>image/svg+xml</dc:format>
        <dc:type
           rdf:resource="http://purl.org/dc/dcmitype/StillImage" />
        <dc:title></dc:title>
      </cc:Work>
    </rdf:RDF>
  </metadata>
  <g
     transform="translate(-264.39258,-182.33179)"
     id="layer1">
    <g
       id="g8911"
       transform="translate(-404.91718,-178.62808)">
      <path
         style="color:#000000;clip-rule:nonzero;display:inline;overflow:visible;visibility:visible;opacity:1;isolation:auto;mix-blend-mode:normal;color-interpolation:sRGB;color-interpolation-filters:linearRGB;solid-color:#000000;solid-opacity:1;fill:url(#linearGradient8204);fill-opacity:1;fill-rule:evenodd;stroke:none;stroke-width:1px;stroke-linecap:butt;stroke-linejoin:miter;stroke-miterlimit:4;stroke-dasharray:none;stroke-dashoffset:0;stroke-opacity:1;color-rendering:auto;image-rendering:auto;shape-rendering:auto;text-rendering:auto;enable-background:accumulate"
         d="m 684.91718,360.95987 a 15.60707,15.60707 0 0 0 -15.60742,15.60547 15.60707,15.60707 0 0 0 0.041,1.11914 c 0.83623,12.56323 15.56641,17.71422 15.56641,26.19336 0,-8.36334 14.32556,-13.49165 15.51953,-25.68555 a 15.60707,15.60707 0 0 0 0.0117,-0.11523 c 0.0447,-0.49311 0.0762,-0.99487 0.0762,-1.51172 a 15.60707,15.60707 0 0 0 -15.60742,-15.60547 z"
         id="path8202" />
      <path
         style="fill:#ffffff;fill-rule:evenodd;stroke:none;stroke-width:0.70669842;stroke-linecap:butt;stroke-linejoin:miter;stroke-miterlimit:4;stroke-dasharray:none;stroke-opacity:1"
         d="m 674.92798,371.59369 0,11.33703 10.12877,5.84785 9.85,-5.68691 0,-11.38896 -10.0931,-5.82726 z"
         id="path7906" />
      <path
         id="path7908"
         d="m 675.30799,377.57498 c 0,0 1.19476,-3.81554 3.23742,-3.93117 2.04267,-0.11557 4.43219,8.24774 6.5134,8.20919 2.0812,-0.0385 3.85407,-5.66549 6.55194,-5.81965 2.69785,-0.15416 3.27209,3.2274 3.27209,3.2274 l 0.024,3.83091 -9.85001,5.68691 -10.12877,-5.84785 z"
         style="fill:#e23012;fill-opacity:1;fill-rule:evenodd;stroke:none;stroke-width:1px;stroke-linecap:butt;stroke-linejoin:miter;stroke-opacity:1" />
      <path
         id="path7910"
         d="m 674.92798,371.59369 0,11.33703 10.12877,5.84785 9.85,-5.68691 0,-11.38896 -10.0931,-5.82726 z"
         style="fill:none;fill-rule:evenodd;stroke:#f8ac9e;stroke-width:0.92497885;stroke-linecap:butt;stroke-linejoin:miter;stroke-miterlimit:4;stroke-dasharray:none;stroke-opacity:1" />
    </g>
  </g>
</svg>
