<?xml version="1.0" encoding="UTF-8" standalone="no"?>
<svg
   xmlns:dc="http://purl.org/dc/elements/1.1/"
   xmlns:cc="http://creativecommons.org/ns#"
   xmlns:rdf="http://www.w3.org/1999/02/22-rdf-syntax-ns#"
   xmlns:svg="http://www.w3.org/2000/svg"
   xmlns="http://www.w3.org/2000/svg"
   version="1.1"
   id="svg12687"
   viewBox="0 0 31.214827 31.214827"
   height="8.8095179mm"
   width="8.8095179mm">
  <defs
     id="defs12689" />
  <metadata
     id="metadata12692">
    <rdf:RDF>
      <cc:Work
         rdf:about="">
        <dc:format>image/svg+xml</dc:format>
        <dc:type
           rdf:resource="http://purl.org/dc/dcmitype/StillImage" />
        <dc:title></dc:title>
      </cc:Work>
    </rdf:RDF>
  </metadata>
  <g
     transform="translate(-170.10688,-88.183362)"
     id="layer1">
    <g
       id="g12249"
       transform="translate(-473.92487,-749.23608)">
      <circle
         style="color:#000000;clip-rule:nonzero;display:inline;overflow:visible;visibility:visible;opacity:1;isolation:auto;mix-blend-mode:normal;color-interpolation:sRGB;color-interpolation-filters:linearRGB;solid-color:#000000;solid-opacity:1;fill:#333333;fill-opacity:1;fill-rule:evenodd;stroke:none;stroke-width:1px;stroke-linecap:butt;stroke-linejoin:miter;stroke-miterlimit:4;stroke-dasharray:none;stroke-dashoffset:0;stroke-opacity:1;color-rendering:auto;image-rendering:auto;shape-rendering:auto;text-rendering:auto;enable-background:accumulate"
         id="circle12180"
         cx="659.63916"
         cy="853.02686"
         r="15.607413" />
      <path
         style="fill:#ffffff;fill-rule:evenodd;stroke:none;stroke-width:0.18063436px;stroke-linecap:butt;stroke-linejoin:miter;stroke-opacity:1"
         d="m 654.43307,843.5943 -4.1875,1.3867 0,5.8614 1.45508,0.5839 1.64258,0.6602 1.63281,0.6562 0,-5.8613 4.1875,-1.3867 -1.53906,-0.6191 -0.57031,-0.2286 z m 5.625,0.3125 -2.00976,0.7734 1.54883,0.668 0,2.668 -0.4336,0.1464 0,-2.0136 -3.67773,1.2168 0,6.2109 -2.95898,-1.1894 -1.12891,0.4179 0,5.1016 8.96875,4.5527 4.55078,-1.9433 0,-5.8008 4.11523,-1.832 0,-5.4961 z"
         id="path12182" />
    </g>
  </g>
</svg>
