<?xml version="1.0" encoding="UTF-8" standalone="no"?>
<svg
   xmlns:dc="http://purl.org/dc/elements/1.1/"
   xmlns:cc="http://creativecommons.org/ns#"
   xmlns:rdf="http://www.w3.org/1999/02/22-rdf-syntax-ns#"
   xmlns:svg="http://www.w3.org/2000/svg"
   xmlns="http://www.w3.org/2000/svg"
   xmlns:xlink="http://www.w3.org/1999/xlink"
   version="1.1"
   id="svg10046"
   viewBox="0 0 31.214841 42.91797"
   height="12.112405mm"
   width="8.8095217mm">
  <defs
     id="defs10048">
    <linearGradient
       y2="137.78625"
       x2="379.57394"
       y1="115.09216"
       x1="379.57394"
       gradientTransform="translate(-140.6569,264.66007)"
       gradientUnits="userSpaceOnUse"
       id="linearGradient8164"
       xlink:href="#linearGradient7557" />
    <linearGradient
       id="linearGradient7557">
      <stop
         id="stop7559"
         offset="0"
         style="stop-color:#f05134;stop-opacity:1;" />
      <stop
         id="stop7561"
         offset="1"
         style="stop-color:#e12d0f;stop-opacity:1" />
    </linearGradient>
  </defs>
  <metadata
     id="metadata10051">
    <rdf:RDF>
      <cc:Work
         rdf:about="">
        <dc:format>image/svg+xml</dc:format>
        <dc:type
           rdf:resource="http://purl.org/dc/dcmitype/StillImage" />
        <dc:title></dc:title>
      </cc:Work>
    </rdf:RDF>
  </metadata>
  <g
     transform="translate(641.32171,-876.61751)"
     id="layer1">
    <g
       id="g8850"
       transform="translate(-864.63148,515.65764)">
      <path
         style="color:#000000;clip-rule:nonzero;display:inline;overflow:visible;visibility:visible;opacity:1;isolation:auto;mix-blend-mode:normal;color-interpolation:sRGB;color-interpolation-filters:linearRGB;solid-color:#000000;solid-opacity:1;fill:url(#linearGradient8164);fill-opacity:1;fill-rule:evenodd;stroke:none;stroke-width:1px;stroke-linecap:butt;stroke-linejoin:miter;stroke-miterlimit:4;stroke-dasharray:none;stroke-dashoffset:0;stroke-opacity:1;color-rendering:auto;image-rendering:auto;shape-rendering:auto;text-rendering:auto;enable-background:accumulate"
         d="m 238.91719,360.95987 a 15.60707,15.60707 0 0 0 -15.60742,15.60547 15.60707,15.60707 0 0 0 0.041,1.11914 c 0.83623,12.56323 15.56641,17.71422 15.56641,26.19336 0,-8.36334 14.32556,-13.49165 15.51953,-25.68555 a 15.60707,15.60707 0 0 0 0.0117,-0.11523 c 0.0447,-0.49311 0.0762,-0.99487 0.0762,-1.51172 a 15.60707,15.60707 0 0 0 -15.60742,-15.60547 z"
         id="path8162" />
      <path
         id="path7692"
         d="m 238.03061,364.85618 c -0.01,1e-4 -0.0163,0.003 -0.0217,0.008 -0.0362,0.0356 -0.11312,0.29815 -0.17053,0.58334 -0.057,0.28517 -0.20098,0.72466 -0.31891,0.97652 -0.41398,0.88369 -1.07738,1.38453 -3.6686,2.7697 -0.30363,0.16231 -0.81411,0.4794 -1.1343,0.70473 -0.74662,0.52537 -2.08542,1.8638 -2.61462,2.61386 -0.81585,1.15638 -1.4787,2.74233 -1.7338,4.14815 -0.17975,0.99083 -0.16673,2.81195 0.027,3.77736 0.44532,2.21944 1.38995,3.93764 3.04044,5.5304 1.49442,1.44218 3.39993,2.44148 5.41685,2.84071 0.96875,0.19177 0.93523,0.18945 2.41157,0.16496 1.15509,-0.0192 1.47003,-0.0468 2.08118,-0.1828 3.99329,-0.88862 6.92989,-3.62208 7.90406,-7.35763 0.65762,-2.52137 0.36248,-5.37589 -0.79432,-7.68372 -0.56084,-1.11886 -1.25251,-2.04421 -2.23734,-2.993 -1.0292,-0.99145 -2.15881,-1.74095 -3.59793,-2.38752 -1.14488,-0.51438 -1.69368,-0.80061 -2.12419,-1.10793 -0.38931,-0.27785 -1.27347,-1.15601 -2.02201,-2.00824 -0.23468,-0.26715 -0.38026,-0.39794 -0.44289,-0.39725 z m -1.45539,13.09791 c 0.48845,-0.006 1.00373,0.0464 1.35653,0.15609 0.71933,0.22375 1.51828,0.64993 2.61995,1.39769 1.32517,0.89946 1.59455,1.03377 2.08272,1.03831 0.51881,0.005 1.05189,-0.2531 2.36575,-1.14452 1.56329,-1.06063 2.03095,-1.25438 2.62638,-1.08767 0.44434,0.1244 0.7787,0.49629 0.94833,1.05451 0.1181,0.3886 0.13258,0.55511 0.10056,1.14211 -0.0615,1.12288 -0.37784,2.04041 -0.97499,2.82716 -0.3686,0.48563 -0.66917,0.69024 -1.0705,0.7288 -0.46911,0.0451 -0.72972,-0.12641 -1.87515,-1.23427 -0.56082,-0.54244 -1.17938,-1.08836 -1.3744,-1.21313 -0.69909,-0.44715 -1.16132,-0.3103 -3.28109,0.97134 -1.18708,0.71769 -2.14915,1.2075 -2.81218,1.43175 -0.51935,0.17566 -1.95566,0.23494 -2.52779,0.10431 -0.79098,-0.18063 -1.43116,-0.66441 -1.72323,-1.30237 -0.84693,-1.85 0.34693,-4.08333 2.53691,-4.74566 0.25855,-0.0783 0.62229,-0.11933 1.00219,-0.12445 z m 5.73514,5.83637 c 0.85787,0 1.11841,0.0985 1.36258,0.51523 0.27616,0.47116 0.32252,0.67025 0.1903,0.81639 -0.16816,0.18583 -0.25944,0.15775 -0.46294,-0.14279 -0.35452,-0.52353 -0.77934,-0.6861 -1.47608,-0.56485 -0.47253,0.0822 -0.60348,0.14808 -1.12906,0.56852 -0.38751,0.30992 -0.57556,0.38972 -0.67776,0.28749 -0.0235,-0.0238 -0.0435,-0.1234 -0.0435,-0.22141 0,-0.22777 0.61135,-0.79652 1.14895,-1.06894 0.3462,-0.17543 0.42752,-0.18963 1.08722,-0.18963 z m 1.97275,2.40131 c 0.10781,-9e-4 0.13774,0.0681 0.12181,0.20711 -0.0443,0.38333 -1.37721,1.03433 -2.41338,1.17844 -0.68354,0.0951 -2.18456,0.0787 -2.68158,-0.0293 -1.07521,-0.23347 -1.76699,-0.81004 -1.3858,-1.15501 0.17485,-0.15826 0.41732,-0.13127 0.7684,0.0855 0.5451,0.33641 1.01384,0.42306 2.28903,0.42306 1.33854,0 1.88264,-0.0995 2.71187,-0.4961 0.29595,-0.14157 0.48183,-0.21271 0.58965,-0.21369 z"
         style="fill:#ffffff" />
    </g>
  </g>
</svg>
