<?xml version="1.0" encoding="UTF-8" standalone="no"?>
<svg
   xmlns:dc="http://purl.org/dc/elements/1.1/"
   xmlns:cc="http://creativecommons.org/ns#"
   xmlns:rdf="http://www.w3.org/1999/02/22-rdf-syntax-ns#"
   xmlns:svg="http://www.w3.org/2000/svg"
   xmlns="http://www.w3.org/2000/svg"
   version="1.1"
   id="svg6361"
   viewBox="0 0 31.214827 31.214827"
   width="8.8095179mm"
   height="8.8095179mm">
  <defs
     id="defs6367" />
  <metadata
     id="metadata6363">
    <rdf:RDF>
      <cc:Work
         rdf:about="">
        <dc:format>image/svg+xml</dc:format>
        <dc:type
           rdf:resource="http://purl.org/dc/dcmitype/StillImage" />
        <dc:title></dc:title>
      </cc:Work>
    </rdf:RDF>
  </metadata>
  <g
     transform="translate(-445.23991,54.968375)"
     id="g6224">
    <circle
       r="15.607413"
       cy="-39.360962"
       cx="460.84732"
       id="circle6204"
       style="color:#000000;clip-rule:nonzero;display:inline;overflow:visible;visibility:visible;opacity:1;isolation:auto;mix-blend-mode:normal;color-interpolation:sRGB;color-interpolation-filters:linearRGB;solid-color:#000000;solid-opacity:1;fill:#0e2426;fill-opacity:1;fill-rule:nonzero;stroke:none;stroke-width:0.01;stroke-linecap:butt;stroke-linejoin:miter;stroke-miterlimit:4;stroke-dasharray:none;stroke-dashoffset:0;stroke-opacity:1;color-rendering:auto;image-rendering:auto;shape-rendering:auto;text-rendering:auto;enable-background:accumulate" />
    <path
       id="path6208"
       d="m 451.80579,-34.819519 c 6.76352,4.617692 11.82983,4.026565 14.86123,2.236885 0.11436,-0.06712 1.06587,0.984504 2.36929,1.815108 1.06216,0.676853 2.55934,1.760101 3.18854,2.066363 -0.47693,2.029677 2.54785,4.033591 3.4844,4.181066 -0.95547,-1.292503 -0.0836,-5.133769 -2.81979,-4.95117 -0.73381,-0.744996 -1.86649,-1.741248 -2.84488,-2.573179 -1.08902,-0.92601 -2.16771,-1.504264 -2.09775,-1.572979 3.6092,-3.545217 3.97338,-10.657925 2.82229,-15.829585 -1.72988,4.041155 -4.59051,4.989035 -6.99772,5.783645 -1.97586,-1.88137 -4.58635,-0.840649 -5.55429,0.494338 -3.28282,-0.649131 -4.1273,-2.068235 -5.31545,-3.70507 -0.14293,2.32674 0.14033,6.03865 -0.42881,6.98022 -1.4839,-2.371082 -5.26486,-3.449003 -5.69376,0.142939 -0.27575,2.309349 2.07006,5.66228 5.0267,4.931419 z"
       style="fill:#e74c3c;fill-rule:evenodd;stroke:none;stroke-width:0.00967104;stroke-linecap:butt;stroke-linejoin:miter;stroke-miterlimit:4;stroke-dasharray:none;stroke-opacity:1" />
  </g>
</svg>
