<?xml version="1.0" encoding="UTF-8" standalone="no"?>
<svg
   xmlns:dc="http://purl.org/dc/elements/1.1/"
   xmlns:cc="http://creativecommons.org/ns#"
   xmlns:rdf="http://www.w3.org/1999/02/22-rdf-syntax-ns#"
   xmlns:svg="http://www.w3.org/2000/svg"
   xmlns="http://www.w3.org/2000/svg"
   xmlns:xlink="http://www.w3.org/1999/xlink"
   version="1.1"
   id="svg9333"
   viewBox="0 0 31.214841 42.91797"
   height="12.112405mm"
   width="8.8095217mm">
  <defs
     id="defs9335">
    <linearGradient
       y2="137.78625"
       x2="335.57394"
       y1="115.09216"
       x1="335.57394"
       gradientUnits="userSpaceOnUse"
       id="linearGradient7598"
       xlink:href="#linearGradient7557" />
    <linearGradient
       id="linearGradient7557">
      <stop
         id="stop7559"
         offset="0"
         style="stop-color:#f05134;stop-opacity:1;" />
      <stop
         id="stop7561"
         offset="1"
         style="stop-color:#e12d0f;stop-opacity:1" />
    </linearGradient>
  </defs>
  <metadata
     id="metadata9338">
    <rdf:RDF>
      <cc:Work
         rdf:about="">
        <dc:format>image/svg+xml</dc:format>
        <dc:type
           rdf:resource="http://purl.org/dc/dcmitype/StillImage" />
        <dc:title></dc:title>
      </cc:Work>
    </rdf:RDF>
  </metadata>
  <g
     transform="translate(-38.67829,-36.617505)"
     id="layer1">
    <g
       id="g8795"
       transform="translate(-235.30327,-59.682295)">
      <path
         id="path6689"
         d="m 289.58898,96.2998 a 15.60707,15.60707 0 0 0 -15.60742,15.60547 15.60707,15.60707 0 0 0 0.041,1.11914 c 0.83623,12.56323 15.56641,17.71422 15.56641,26.19336 0,-8.36334 14.32556,-13.49165 15.51953,-25.68555 a 15.60707,15.60707 0 0 0 0.0117,-0.11523 c 0.0447,-0.49311 0.0762,-0.99487 0.0762,-1.51172 A 15.60707,15.60707 0 0 0 289.58898,96.2998 Z"
         style="fill:url(#linearGradient7598);fill-opacity:1;fill-rule:evenodd;stroke:none;stroke-width:1px;stroke-linecap:butt;stroke-linejoin:miter;stroke-opacity:1" />
      <path
         id="path6691"
         d="m 280.54744,118.20441 c 6.76352,4.61769 11.82983,4.02657 14.86123,2.23689 0.11436,-0.0671 1.06587,0.9845 2.36929,1.8151 1.06216,0.67686 2.55934,1.76011 3.18854,2.06637 -0.47693,2.02967 2.54785,4.03359 3.4844,4.18106 -0.95547,-1.2925 -0.0836,-5.13377 -2.81979,-4.95117 -0.73381,-0.74499 -1.86649,-1.74125 -2.84488,-2.57318 -1.08902,-0.92601 -2.16771,-1.50426 -2.09775,-1.57298 3.6092,-3.54521 3.97338,-10.65792 2.82229,-15.82958 -1.72988,4.04116 -4.59051,4.98904 -6.99772,5.78365 -1.97586,-1.88137 -4.58635,-0.84065 -5.55429,0.49433 -3.28282,-0.64913 -4.1273,-2.06823 -5.31545,-3.70507 -0.14293,2.32674 0.14033,6.03865 -0.42881,6.98022 -1.4839,-2.37108 -5.26486,-3.449 -5.69376,0.14294 -0.27575,2.30935 2.07006,5.66228 5.0267,4.93142 z"
         style="fill:#ffffff;fill-rule:evenodd;stroke:none;stroke-width:0.00967104;stroke-linecap:butt;stroke-linejoin:miter;stroke-miterlimit:4;stroke-dasharray:none;stroke-opacity:1" />
    </g>
  </g>
</svg>
