<?xml version="1.0" encoding="UTF-8" standalone="no"?>
<svg
   xmlns:dc="http://purl.org/dc/elements/1.1/"
   xmlns:cc="http://creativecommons.org/ns#"
   xmlns:rdf="http://www.w3.org/1999/02/22-rdf-syntax-ns#"
   xmlns:svg="http://www.w3.org/2000/svg"
   xmlns="http://www.w3.org/2000/svg"
   version="1.1"
   id="svg6448"
   viewBox="0 0 31.214827 31.214827"
   width="8.8095179mm"
   height="8.8095179mm">
  <defs
     id="defs6454" />
  <metadata
     id="metadata6450">
    <rdf:RDF>
      <cc:Work
         rdf:about="">
        <dc:format>image/svg+xml</dc:format>
        <dc:type
           rdf:resource="http://purl.org/dc/dcmitype/StillImage" />
        <dc:title></dc:title>
      </cc:Work>
    </rdf:RDF>
  </metadata>
  <g
     id="g6357"
     transform="translate(-351.30995,-337.33592)">
    <circle
       style="color:#000000;clip-rule:nonzero;display:inline;overflow:visible;visibility:visible;opacity:1;isolation:auto;mix-blend-mode:normal;color-interpolation:sRGB;color-interpolation-filters:linearRGB;solid-color:#000000;solid-opacity:1;fill:#f5a01a;fill-opacity:1;fill-rule:evenodd;stroke:none;stroke-width:1px;stroke-linecap:butt;stroke-linejoin:miter;stroke-miterlimit:4;stroke-dasharray:none;stroke-dashoffset:0;stroke-opacity:1;color-rendering:auto;image-rendering:auto;shape-rendering:auto;text-rendering:auto;enable-background:accumulate"
       id="circle6330"
       cx="366.91736"
       cy="352.94333"
       r="15.607413" />
    <path
       style="fill:#b3b3b3"
       d="m 365.82309,365.25875 c -1.34456,-0.28622 -2.28479,-1.05734 -2.95009,-2.41945 -0.42738,-0.87503 -0.5631,-1.51628 -0.38952,-1.84062 0.052,-0.0971 0.24178,-0.24342 0.42178,-0.32515 0.30572,-0.13881 0.56487,-0.14872 3.92923,-0.15033 3.84279,-0.002 4.09066,0.0195 4.37128,0.37614 0.48404,0.6154 -0.38572,2.63804 -1.53206,3.56273 -0.99435,0.80211 -2.42991,1.09912 -3.85062,0.79668 z m -0.83889,-2.43476 c 0.22175,-0.13999 0.79963,-1.01655 0.79963,-1.21291 0,-0.25442 -0.26737,-0.30994 -1.38294,-0.28719 -0.97053,0.0198 -1.08071,0.0366 -1.17488,0.17885 -0.0882,0.13323 -0.0823,0.20454 0.0388,0.471 0.18828,0.41416 0.65516,0.88149 0.97075,0.97168 0.28214,0.0806 0.47919,0.0486 0.74862,-0.12143 z m 4.90112,-0.0428 c 0.23948,-0.16719 0.63441,-0.70805 0.72263,-0.98964 0.0396,-0.12565 0.0145,-0.22928 -0.08,-0.33363 -0.12265,-0.13555 -0.25007,-0.15138 -1.21825,-0.15138 -0.87827,0 -1.10438,0.0232 -1.20458,0.12336 -0.1834,0.18339 -0.15625,0.28922 0.21371,0.83324 0.51249,0.75358 0.99863,0.91436 1.56639,0.51805 z m -7.8494,0.92824 c -0.39381,-0.2899 -0.80512,-0.72491 -0.80512,-0.85148 0,-0.0376 0.87103,0.0709 0.89042,0.11095 0.007,0.014 0.11831,0.2344 0.24783,0.48983 0.12953,0.25543 0.24729,0.49388 0.26167,0.52988 0.0582,0.1457 -0.15115,0.0474 -0.5948,-0.27918 z m 9.09963,0.28576 c 0.0146,-0.0324 0.14091,-0.278 0.28052,-0.54581 0.22914,-0.43955 0.28254,-0.49155 0.54901,-0.5344 0.16224,-0.0261 0.37804,-0.0646 0.47952,-0.0856 l 0.18438,-0.0382 -0.15764,0.21934 c -0.204,0.28395 -0.52541,0.57728 -0.9163,0.83638 -0.30928,0.20503 -0.47127,0.26229 -0.41949,0.14833 z m 3.28338,-2.79679 c 0,-0.0163 0.0622,-0.0781 0.13735,-0.13738 0.12451,-0.0976 0.12734,-0.0949 0.0299,0.0297 -0.10256,0.13077 -0.167,0.17235 -0.167,0.10775 z m -10.74443,-2.49034 c 0.34134,-1.05293 0.77965,-2.86684 0.77135,-3.1922 -0.005,-0.21356 -0.27961,0.35977 -0.83173,1.73929 -0.27837,0.69554 -0.56508,1.40179 -0.63712,1.56947 l -0.13099,0.30487 -0.63098,-0.0467 c -0.34704,-0.0257 -0.78995,-0.0941 -0.98423,-0.15213 l -0.35326,-0.10543 0.0392,-0.93774 c 0.0216,-0.51576 0.0392,-1.52061 0.0392,-2.23301 0,-1.25576 -0.007,-1.30752 -0.21201,-1.69716 -0.23334,-0.44233 -0.54215,-0.73653 -1.03486,-0.98594 -1.26289,-0.63929 -1.76387,-1.18414 -1.66387,-1.80956 0.0555,-0.34683 0.23039,-0.65218 0.41398,-0.72263 0.1043,-0.0401 0.11666,0.004 0.0791,0.28446 l -0.0446,0.33187 0.15978,-0.25234 c 0.2343,-0.37004 0.52264,-1.25026 0.60875,-1.85828 0.0717,-0.50667 0.003,-1.58514 -0.13265,-2.07991 -0.0488,-0.17845 -0.0588,-0.16664 -0.0958,0.11515 l -0.0414,0.31401 -0.22071,-0.36923 c -0.46392,-0.77608 -0.43256,-1.2269 0.10397,-1.49505 0.58653,-0.29309 2.02323,-0.0729 3.1792,0.48712 0.59216,0.28691 1.95306,1.16066 2.54463,1.63375 l 0.26811,0.21442 -0.10289,-0.19626 c -0.40403,-0.771 -1.41205,-1.75037 -2.38058,-2.31291 l -0.37718,-0.21908 0.18093,-0.19259 c 0.28535,-0.30374 1.51967,-0.87031 2.37895,-1.09196 1.55346,-0.40072 3.75271,-0.33292 5.20319,0.16043 0.79479,0.27033 1.97901,0.91468 1.9795,1.07708 7e-5,0.0279 -0.25596,0.21146 -0.56897,0.40788 -0.92721,0.58185 -1.5861,1.23563 -2.14844,2.1319 l -0.14778,0.23551 0.35332,-0.26237 c 1.38121,-1.02585 2.33864,-1.57857 3.29866,-1.90437 0.62374,-0.21169 0.86685,-0.25369 1.50296,-0.25966 0.65501,-0.006 0.78921,0.0155 0.98126,0.15789 0.4312,0.3199 0.41077,0.76734 -0.0694,1.52275 l -0.17468,0.27475 -0.0445,-0.31401 c -0.0436,-0.31204 -0.0445,-0.31077 -0.13954,0.20269 -0.13096,0.70874 -0.11973,1.75021 0.0251,2.31248 0.0663,0.25732 0.24093,0.71515 0.38829,1.01737 0.26211,0.53736 0.26704,0.54214 0.22284,0.21588 -0.0282,-0.21026 -0.0145,-0.33363 0.0379,-0.33363 0.13646,0 0.40067,0.39022 0.45302,0.66908 0.12637,0.67377 -0.22848,1.11371 -1.4523,1.8006 -0.90232,0.50645 -1.18576,0.81755 -1.39276,1.52885 -0.10907,0.375 -0.11787,0.65879 -0.0622,2.00678 0.0355,0.86352 0.0679,1.76431 0.0703,2.00177 l 0.008,0.43176 -0.5103,0.13202 c -0.28061,0.0726 -0.72741,0.13443 -0.99281,0.13738 l -0.48252,0.006 -0.51701,-1.31489 c -0.28433,-0.72318 -0.64152,-1.56217 -0.79382,-1.86439 -0.26049,-0.51704 -0.27423,-0.53096 -0.23213,-0.2355 0.13234,0.92968 0.79358,3.38371 1.09988,4.08204 0.0227,0.0517 -1.19344,0.0784 -3.56106,0.0784 l -3.59548,0 0.37159,-1.14621 z m 0.92956,-5.97838 c 0.13078,-0.2617 0.23777,-0.57135 0.23777,-0.68811 0,-0.1782 0.0548,-0.23324 0.34143,-0.34269 0.39725,-0.15171 0.64546,-0.39117 0.72101,-0.69557 0.0295,-0.11873 0.0408,-0.21588 0.025,-0.21588 -0.0158,0 -0.15207,0.036 -0.3029,0.0802 -0.53841,0.15736 -0.95714,-0.0229 -1.71655,-0.73911 -0.78111,-0.73665 -1.29973,-1.08755 -1.93998,-1.31258 -0.52813,-0.18563 -1.37293,-0.27343 -1.80862,-0.18798 l -0.30413,0.0596 0.25395,0.0883 c 0.28949,0.10065 0.29061,0.10475 0.13236,0.48352 -0.12464,0.29829 -0.0916,0.70583 0.0856,1.05262 0.0958,0.18773 0.0992,0.1848 0.15349,-0.13697 0.0667,-0.39514 0.1989,-0.51345 0.1989,-0.17809 0,0.32401 0.2446,0.94548 0.5081,1.29094 0.30225,0.39627 1.07373,0.76271 1.70533,0.81003 0.41556,0.0311 0.55405,0.006 0.86435,-0.15333 l 0.36953,-0.19038 0.0819,0.23484 c 0.10223,0.29314 0.10528,0.79812 0.008,1.14095 -0.11467,0.39984 0.0956,0.18212 0.38667,-0.40032 z m 4.94644,0.3296 c -0.098,-0.34195 -0.0973,-0.66542 0,-1.02445 l 0.0784,-0.28338 0.36585,0.18525 c 0.63383,0.32086 1.53794,0.17969 2.29314,-0.35805 0.31526,-0.22449 0.69622,-0.8856 0.76158,-1.3217 0.0679,-0.45435 0.1746,-0.49047 0.24037,-0.0816 l 0.0542,0.33732 0.14148,-0.314 c 0.18219,-0.40467 0.18098,-0.64296 -0.008,-1.00823 l -0.15076,-0.29568 0.19512,-0.0742 c 0.10735,-0.0408 0.23697,-0.0767 0.28812,-0.0797 0.29223,-0.0174 -0.29838,-0.14134 -0.69508,-0.14596 -1.08824,-0.0127 -2.10668,0.46027 -3.22246,1.4965 -0.41198,0.38258 -0.84384,0.71965 -0.95978,0.74906 -0.2899,0.0735 -0.64036,0.0751 -0.89759,0.004 -0.49978,-0.13848 -0.063,0.59512 0.49458,0.8307 0.24586,0.10387 0.38855,0.21246 0.38855,0.2957 0,0.21314 0.20651,0.73646 0.4308,1.09175 0.24061,0.38114 0.30581,0.3801 0.19585,-0.003 z m -2.14879,-3.80204 c 0.40011,-0.19939 1.0164,-0.75579 0.6979,-0.63009 -0.5817,0.22958 -0.76145,0.26937 -1.21676,0.26937 -0.28064,0 -0.63389,-0.0467 -0.78501,-0.10371 -0.15111,-0.0571 -0.3454,-0.12886 -0.43175,-0.15961 -0.26629,-0.0948 0.44573,0.51357 0.785,0.67078 0.40912,0.18956 0.48378,0.18588 0.95062,-0.0468 z m 4.25498,10.58266 c 0.0566,-0.0227 0.12434,-0.0199 0.15043,0.006 0.0258,0.0261 -0.0202,0.0447 -0.10299,0.0412 -0.0914,-0.004 -0.11005,-0.0224 -0.0476,-0.0474 z m 4.41694,-0.69867 c 0,-0.0915 0.0227,-0.11006 0.0476,-0.0474 0.0227,0.0566 0.0202,0.12437 -0.008,0.15045 -0.0258,0.0261 -0.0445,-0.0203 -0.0412,-0.10302 z m -18.43567,-0.26822 c 0,-0.15111 0.0161,-0.21293 0.0359,-0.13737 0.0197,0.0755 0.0197,0.19919 0,0.27475 -0.0197,0.0755 -0.0359,0.0137 -0.0359,-0.13738 z m 18.43567,-0.35979 c 0,-0.0915 0.0227,-0.11006 0.0476,-0.0474 0.0227,0.0566 0.0202,0.12437 -0.008,0.15046 -0.0258,0.0261 -0.0445,-0.0203 -0.0412,-0.10303 z m -15.93565,-1.25601 c 0.004,-0.0914 0.0223,-0.11006 0.0474,-0.0474 0.0227,0.0566 0.0198,0.12436 -0.007,0.15045 -0.0262,0.0261 -0.0447,-0.0203 -0.0412,-0.10302 z m 13.42362,-0.15701 c 0,-0.0915 0.0227,-0.11005 0.0476,-0.0474 0.0227,0.0566 0.0202,0.12438 -0.008,0.15046 -0.0258,0.0261 -0.0445,-0.0203 -0.0412,-0.10303 z m -13.32699,-1.72047 c 4.8e-4,-0.25905 0.0152,-0.35556 0.0326,-0.21447 0.0174,0.14109 0.0171,0.35304 -7.2e-4,0.471 -0.018,0.11796 -0.0323,0.002 -0.0317,-0.25653 z m 16.38851,-4.08859 c 0,-0.0914 0.0227,-0.11004 0.0476,-0.0474 0.0227,0.0566 0.0202,0.12438 -0.008,0.15046 -0.0258,0.0261 -0.0445,-0.0203 -0.0412,-0.10303 z m -15.84564,-6.60393 c -0.25998,-0.0499 -0.3927,-0.30886 -0.45422,-0.88635 -0.0299,-0.28064 -0.10332,-0.63048 -0.1632,-0.77743 -0.0598,-0.14696 -0.0909,-0.28508 -0.0691,-0.30697 0.0689,-0.069 0.63856,0.13527 0.85743,0.30744 0.22977,0.18072 0.67296,0.90073 0.67413,1.09519 7.3e-4,0.13644 -0.47531,0.62974 -0.59175,0.6131 -0.0411,-0.005 -0.15511,-0.026 -0.25332,-0.045 z m 11.61065,-0.26568 -0.26452,-0.3185 0.22622,-0.44243 c 0.25904,-0.50643 0.69541,-0.85829 1.15748,-0.93327 l 0.30274,-0.0491 -0.12685,0.19355 c -0.0694,0.10648 -0.14705,0.36788 -0.17185,0.58096 -0.0251,0.21307 -0.0813,0.55447 -0.12563,0.75864 -0.0727,0.33612 -0.1079,0.37878 -0.36762,0.45095 -0.37563,0.1043 -0.32836,0.12242 -0.62997,-0.24077 z m 1.80772,-0.54217 c 0,-0.1079 0.0178,-0.1521 0.0396,-0.0981 0.0218,0.0539 0.0218,0.14229 0,0.19626 -0.0218,0.0539 -0.0396,0.01 -0.0396,-0.0981 z m -12.05074,-0.54611 c -0.23605,-0.3567 -0.89636,-0.88031 -1.34822,-1.06911 -0.16999,-0.0711 -0.59231,-0.14796 -0.93847,-0.17096 -0.34617,-0.023 -0.69712,-0.0884 -0.7799,-0.14529 -0.14329,-0.0985 -0.13953,-0.10812 0.0786,-0.20124 0.1266,-0.0541 0.56246,-0.0993 0.97476,-0.10114 0.65672,-0.003 0.7973,0.022 1.17751,0.20967 0.53996,0.26647 0.94683,0.60112 1.34816,1.10883 l 0.3122,0.39496 -0.26105,0.13917 c -0.14358,0.0765 -0.28286,0.14065 -0.30949,0.14246 -0.0267,10e-4 -0.14094,-0.13648 -0.254,-0.30731 z m 8.91376,0.16577 -0.25927,-0.13824 0.33457,-0.42024 c 0.42879,-0.53855 1.14877,-1.0679 1.65802,-1.21915 0.46999,-0.13958 1.07062,-0.15198 1.62286,-0.0336 0.69703,0.14948 0.45463,0.3434 -0.5078,0.40614 -0.34613,0.0226 -0.76828,0.0991 -0.93803,0.16998 -0.43299,0.18092 -1.08365,0.70024 -1.33904,1.06871 -0.1186,0.17116 -0.23729,0.30971 -0.26387,0.30789 -0.0267,-0.001 -0.16483,-0.0655 -0.30744,-0.14153 z m -11.87911,-0.54204 c -0.0977,-0.12452 -0.0948,-0.12729 0.0296,-0.0297 0.13076,0.10256 0.17235,0.16703 0.10779,0.16703 -0.0163,0 -0.0781,-0.0618 -0.13738,-0.13739 z m 10.15486,-0.41213 c 0,-0.15111 0.0161,-0.21294 0.0355,-0.13738 0.0194,0.0755 0.0194,0.1992 0,0.27476 -0.0194,0.0755 -0.0355,0.0137 -0.0355,-0.13738 z m -6.18425,-0.33364 -0.31031,-0.33362 0.33362,0.31031 c 0.31028,0.28858 0.36971,0.35695 0.31031,0.35695 -0.0129,0 -0.16296,-0.15013 -0.33362,-0.33364 z m 2.48885,-1.39338 c 0,-0.1079 0.0179,-0.1521 0.0396,-0.0981 0.0218,0.0539 0.0218,0.14228 0,0.19625 -0.0218,0.0539 -0.0396,0.01 -0.0396,-0.0981 z"
       id="path6375" />
    <path
       style="fill:#463014"
       d="m 365.66609,365.97899 c -0.65586,-0.12156 -1.27243,-0.35774 -1.71633,-0.65745 -0.17858,-0.12057 -0.53664,-0.26434 -0.7957,-0.3195 -1.10002,-0.23419 -2.19971,-1.04148 -2.76142,-2.02716 -0.19428,-0.34091 -0.31745,-0.4532 -0.71502,-0.65187 -0.70285,-0.35122 -1.2183,-0.8507 -1.53858,-1.4909 -0.36424,-0.72807 -0.46731,-1.27583 -0.42387,-2.25256 0.0333,-0.74983 0.058,-0.85015 0.35713,-1.45385 0.17673,-0.35664 0.40973,-0.7315 0.51779,-0.83301 l 0.19647,-0.18458 0.0918,0.34097 c 0.12903,0.47914 0.40077,0.98969 0.78657,1.47775 0.25466,0.32218 0.34547,0.39194 0.39499,0.30345 0.0899,-0.16064 0.24316,-3.00644 0.18052,-3.35202 -0.0638,-0.35174 -0.28027,-0.79161 -0.47319,-0.96128 -0.0801,-0.0705 -0.46576,-0.3074 -0.85693,-0.52646 -1.25843,-0.70477 -1.76158,-1.29913 -1.76158,-2.08096 0,-0.54086 0.17739,-0.88243 0.71974,-1.38587 l 0.48253,-0.44792 0.0354,-0.81609 0.0354,-0.8161 -0.32534,-0.60096 c -0.39877,-0.73663 -0.4805,-1.24113 -0.28429,-1.75487 0.20077,-0.52571 0.55396,-0.75131 1.46672,-0.93686 0.17619,-0.0358 0.2148,-0.0951 0.26051,-0.39994 0.0641,-0.42709 -0.003,-0.78672 -0.19843,-1.06326 -0.18913,-0.2677 -0.94148,-0.65892 -1.50531,-0.78277 -0.24827,-0.0545 -0.45139,-0.12399 -0.45139,-0.1544 0,-0.0304 0.17707,-0.22089 0.39349,-0.42333 1.05343,-0.98536 2.6442,-1.16649 4.08106,-0.46468 0.45204,0.2208 0.76191,0.45815 1.33451,1.02225 0.41017,0.40408 0.79833,0.72462 0.86256,0.71234 0.0771,-0.0147 0.13741,-0.16906 0.17732,-0.45321 0.0833,-0.59293 0.46123,-1.32861 0.88163,-1.71612 0.19333,-0.17821 0.38135,-0.32401 0.41782,-0.32401 0.0364,0 0.10539,0.25229 0.15309,0.56067 0.0477,0.30837 0.1383,0.61219 0.20126,0.67514 0.10027,0.10027 0.1307,0.0657 0.2454,-0.27967 0.18099,-0.54487 0.63939,-1.03534 1.28454,-1.37435 l 0.5411,-0.28434 -0.0376,0.58643 c -0.0317,0.49376 0.0833,1.29363 0.18593,1.29363 0.0141,0 0.22123,-0.13705 0.46034,-0.30457 0.39396,-0.27597 1.10561,-0.54325 1.1986,-0.45022 0.0202,0.0205 -0.0509,0.26055 -0.1586,0.53341 -0.22469,0.56905 -0.32496,1.08733 -0.25378,1.31163 0.0267,0.0851 0.14624,0.17618 0.26493,0.20226 0.19189,0.0422 0.29854,-0.0343 0.95937,-0.68769 0.57058,-0.56416 0.88011,-0.80208 1.33103,-1.02312 1.46693,-0.71921 3.1508,-0.4975 4.18449,0.55098 l 0.36221,0.36741 -0.5394,0.13698 c -0.68086,0.17292 -1.07215,0.3741 -1.40826,0.72402 -0.24457,0.25469 -0.26526,0.3155 -0.26978,0.79294 0,0.28439 0.0339,0.55593 0.0814,0.6034 0.0476,0.0475 0.25719,0.1178 0.46604,0.15628 0.20886,0.0385 0.51741,0.16696 0.68564,0.28552 0.77636,0.5471 0.79212,1.40768 0.0493,2.6871 -0.1191,0.20507 -0.15836,0.41138 -0.15699,0.82426 0,0.89052 0.0893,1.12502 0.57769,1.57086 0.53172,0.48533 0.6765,0.7708 0.6765,1.33413 0,0.82839 -0.49705,1.40973 -1.83657,2.14786 -0.83915,0.46245 -1.10787,0.76011 -1.20724,1.33736 -0.0614,0.35921 0.0109,2.81864 0.0968,3.277 l 0.0525,0.28195 0.19069,-0.17912 c 0.34563,-0.32465 0.74468,-0.97913 0.9268,-1.52 l 0.17929,-0.53238 0.21071,0.25034 c 0.58295,0.69282 0.8625,1.51085 0.85886,2.51308 0,0.72759 -0.15949,1.46325 -0.42118,1.97628 -0.27374,0.53649 -0.90185,1.13629 -1.50693,1.43902 -0.48542,0.24285 -0.58076,0.32924 -0.83204,0.75442 -0.33408,0.56515 -1.06868,1.27636 -1.63288,1.5809 -0.22049,0.11897 -0.66058,0.28154 -0.97811,0.36126 -0.31752,0.0797 -0.75019,0.25495 -0.96131,0.38937 -0.98158,0.62479 -2.65108,0.87163 -4.09061,0.6048 z m 2.06643,-0.67222 c 1.55523,-0.25236 2.7519,-1.28291 3.38889,-2.91838 0.4001,-1.0273 0.28368,-1.57671 -0.37618,-1.77441 -0.21799,-0.0653 -1.36795,-0.092 -3.91074,-0.0908 -3.36436,0.002 -3.62351,0.0115 -3.92923,0.15033 -0.18,0.0817 -0.3698,0.22806 -0.42178,0.32516 -0.29465,0.55058 0.40794,2.2737 1.28451,3.15028 0.98945,0.98946 2.42267,1.40802 3.96453,1.15782 z m -3.49694,-2.36137 c -0.31559,-0.0902 -0.78247,-0.55751 -0.97075,-0.97167 -0.12113,-0.26647 -0.12701,-0.33778 -0.0388,-0.47101 0.0942,-0.14228 0.20435,-0.15905 1.17489,-0.17885 1.51393,-0.0309 1.62156,0.06 1.07393,0.90735 -0.4297,0.66484 -0.7553,0.85248 -1.23925,0.71418 z m 4.68366,-0.0536 c -0.26202,-0.1325 -0.93738,-1.01984 -0.93738,-1.23154 0,-0.0589 0.0555,-0.16263 0.12335,-0.23047 0.10016,-0.10021 0.32633,-0.12336 1.2046,-0.12336 0.96817,0 1.09559,0.0158 1.21823,0.15138 0.16491,0.18219 0.11845,0.37632 -0.20206,0.84429 -0.41813,0.61044 -0.93627,0.82766 -1.40674,0.5897 z m -6.28852,1.0967 c -0.0144,-0.036 -0.13214,-0.27446 -0.26167,-0.52988 -0.12952,-0.25543 -0.24105,-0.47586 -0.24783,-0.48983 -0.0194,-0.04 -0.89042,-0.14852 -0.89042,-0.11095 0,0.12657 0.41131,0.56157 0.80512,0.85148 0.44365,0.32659 0.65303,0.42488 0.5948,0.27918 z m 8.92432,-0.14175 c 0.39089,-0.25909 0.7123,-0.55242 0.9163,-0.83638 l 0.15764,-0.21934 -0.18438,0.0382 c -0.10147,0.021 -0.31728,0.0596 -0.47952,0.0857 -0.26647,0.0428 -0.31987,0.0948 -0.54901,0.5344 -0.13961,0.26782 -0.26581,0.51344 -0.28052,0.54582 -0.0517,0.11395 0.11021,0.0567 0.41949,-0.14833 z m -9.81979,-1.97119 c -0.0264,-0.11874 -0.0642,-0.27596 -0.084,-0.34939 -0.0653,-0.24206 0.12698,-0.75065 0.44262,-1.17072 0.17089,-0.22743 0.29765,-0.42656 0.28169,-0.44251 -0.016,-0.016 -0.27121,-0.0628 -0.56723,-0.10411 -1.495,-0.20863 -2.6286,-0.92878 -3.065,-1.94714 -0.20457,-0.47741 -0.29928,-0.18692 -0.29903,0.91711 2.2e-4,0.93168 0.0149,1.0288 0.22563,1.48532 0.46903,1.01647 1.68296,1.7901 2.8568,1.82064 0.24029,0.006 0.25356,-0.007 0.20858,-0.2092 z m 11.57088,-0.0217 c 0.96196,-0.33763 1.67255,-1.05677 1.93174,-1.95502 0.14148,-0.49027 0.16579,-1.76673 0.0396,-2.09773 l -0.0832,-0.21856 -0.23051,0.42932 c -0.43064,0.80201 -1.27084,1.39421 -2.38695,1.68231 -0.25733,0.0664 -0.57526,0.12327 -0.70647,0.1263 -0.51185,0.0118 -0.53746,0.0762 -0.20062,0.50324 0.37368,0.4737 0.51159,0.9681 0.40382,1.44786 l -0.0767,0.34009 0.43153,-0.0507 c 0.23738,-0.0279 0.63207,-0.12108 0.87704,-0.20708 z m -2.84667,-2.07815 c -0.3063,-0.69832 -0.96754,-3.15236 -1.09988,-4.08204 -0.042,-0.29545 -0.0282,-0.28153 0.23213,0.2355 0.15229,0.30223 0.50949,1.14121 0.79381,1.8644 l 0.51702,1.31489 0.4825,-0.006 c 0.26542,-0.003 0.71222,-0.0648 0.99283,-0.13738 l 0.5103,-0.13202 -0.008,-0.43176 c 0,-0.23746 -0.0348,-1.13826 -0.0703,-2.00177 -0.0558,-1.34799 -0.0469,-1.63178 0.0622,-2.00678 0.207,-0.7113 0.49044,-1.0224 1.39276,-1.52884 1.22382,-0.68689 1.57867,-1.12684 1.4523,-1.80061 -0.0525,-0.27886 -0.31656,-0.66908 -0.45302,-0.66908 -0.0525,0 -0.0663,0.12337 -0.0379,0.33363 0.0445,0.32626 0.0388,0.32148 -0.22291,-0.21588 -0.14738,-0.30223 -0.32214,-0.76005 -0.38831,-1.01737 -0.1447,-0.56227 -0.15593,-1.60374 -0.0251,-2.31248 0.0948,-0.51346 0.0958,-0.51473 0.13954,-0.20269 l 0.0436,0.31401 0.17467,-0.27476 c 0.48034,-0.7554 0.50077,-1.20284 0.0695,-1.52275 -0.19206,-0.14244 -0.32626,-0.16403 -0.98127,-0.15789 -1.39349,0.0131 -2.69591,0.60008 -4.80162,2.16404 l -0.35323,0.26236 0.14769,-0.2355 c 0.56234,-0.89627 1.22123,-1.55005 2.14844,-2.13189 0.313,-0.19643 0.56905,-0.37998 0.56896,-0.40789 -4.8e-4,-0.1624 -1.1847,-0.80676 -1.97949,-1.07708 -1.45048,-0.49334 -3.64972,-0.56115 -5.20318,-0.16043 -0.8593,0.22165 -2.09362,0.78821 -2.37896,1.09195 l -0.18093,0.1926 0.37719,0.21908 c 0.9685,0.56254 1.97654,1.54191 2.38057,2.31291 l 0.10289,0.19625 -0.26813,-0.21441 c -0.59156,-0.47309 -1.95246,-1.34684 -2.54463,-1.63376 -1.15597,-0.56008 -2.59266,-0.78021 -3.17919,-0.48711 -0.53658,0.26815 -0.56795,0.71896 -0.10398,1.49505 l 0.22073,0.36923 0.0413,-0.31401 c 0.0371,-0.28179 0.047,-0.2936 0.0958,-0.11516 0.13561,0.49477 0.20439,1.57325 0.13263,2.07992 -0.0861,0.60802 -0.37445,1.48823 -0.60874,1.85828 l -0.15978,0.25234 0.0445,-0.33188 c 0.0376,-0.28022 0.0253,-0.3245 -0.0791,-0.28445 -0.18358,0.0704 -0.3585,0.3758 -0.41397,0.72263 -0.10005,0.62542 0.40097,1.17027 1.66387,1.80955 0.49271,0.24942 0.80151,0.54362 1.03486,0.98595 0.20555,0.38964 0.21201,0.4414 0.21201,1.69716 0,0.7124 -0.0177,1.71725 -0.0392,2.23301 l -0.0392,0.93774 0.35326,0.10543 c 0.19429,0.058 0.6372,0.12645 0.98423,0.15213 l 0.63099,0.0467 0.13099,-0.30486 c 0.072,-0.16768 0.35875,-0.87394 0.63712,-1.56947 0.55212,-1.37952 0.82629,-1.95286 0.83173,-1.7393 0.009,0.32537 -0.43001,2.13927 -0.77135,3.1922 l -0.37158,1.14622 3.59548,0 c 2.36762,0 3.58376,-0.0268 3.56106,-0.0785 z m -6.24206,-6.64578 c 0.0983,-0.34283 0.0953,-0.84781 -0.008,-1.14096 l -0.0819,-0.23483 -0.36951,0.19039 c -0.31031,0.15989 -0.4488,0.18445 -0.86436,0.15333 -0.63161,-0.0473 -1.40308,-0.41376 -1.70532,-0.81003 -0.26351,-0.34547 -0.50811,-0.96693 -0.50811,-1.29094 0,-0.33536 -0.13213,-0.21705 -0.19889,0.17809 -0.0544,0.32177 -0.0577,0.32469 -0.1535,0.13696 -0.17707,-0.34679 -0.2102,-0.75433 -0.0856,-1.05263 0.15826,-0.37875 0.15714,-0.38285 -0.13237,-0.4835 l -0.25394,-0.0883 0.30414,-0.0596 c 0.43569,-0.0854 1.28047,0.002 1.80862,0.18798 0.64025,0.22503 1.15886,0.57592 1.93997,1.31257 0.75942,0.71619 1.17813,0.89648 1.71657,0.73911 0.15082,-0.0441 0.28712,-0.0802 0.30288,-0.0802 0.0158,0 0.004,0.0971 -0.0249,0.21588 -0.0755,0.3044 -0.32378,0.54386 -0.72103,0.69557 -0.2866,0.10946 -0.34143,0.16449 -0.34143,0.34269 0,0.23311 -0.40943,1.10906 -0.58744,1.2568 -0.0952,0.079 -0.1007,0.054 -0.0371,-0.16838 z m -0.5858,-1.67297 c 0.23011,-0.0961 0.26359,-0.13906 0.20047,-0.25699 -0.22048,-0.41198 -2.03662,-1.81426 -2.21051,-1.70679 -0.1532,0.0947 -0.0869,1.00548 0.0998,1.37225 0.31449,0.61756 1.19518,0.89028 1.91018,0.59153 z m 5.72305,1.60538 c -0.22429,-0.35529 -0.4308,-0.87861 -0.4308,-1.09175 0,-0.0832 -0.14269,-0.19183 -0.38855,-0.2957 -0.55757,-0.23558 -0.99435,-0.96917 -0.49456,-0.83069 0.25722,0.0713 0.60767,0.0698 0.89765,-0.004 0.11586,-0.0294 0.5478,-0.36648 0.95969,-0.74906 1.11588,-1.03623 2.13423,-1.50917 3.22246,-1.49651 0.3967,0.005 0.98732,0.12864 0.69508,0.14597 -0.0509,0.003 -0.18081,0.0389 -0.28811,0.0797 l -0.19505,0.0742 0.15069,0.29567 c 0.18624,0.36528 0.18745,0.60357 0.008,1.00824 l -0.14139,0.314 -0.0542,-0.33732 c -0.0663,-0.40888 -0.17225,-0.37275 -0.24044,0.0816 -0.0654,0.43609 -0.44632,1.09721 -0.76158,1.32169 -0.7552,0.53774 -1.65931,0.67892 -2.29307,0.35806 l -0.36592,-0.18525 -0.0784,0.28338 c -0.0998,0.35903 -0.10049,0.68249 0,1.02444 0.10988,0.38324 0.0445,0.38428 -0.19594,0.003 z m 2.29532,-1.74122 c 0.17097,-0.11316 0.36941,-0.32904 0.44091,-0.47973 0.13913,-0.29324 0.18292,-1.26807 0.0606,-1.34383 -0.16708,-0.10327 -1.77968,1.11415 -2.13292,1.61027 l -0.16482,0.23142 0.26129,0.11775 c 0.40729,0.18349 1.15223,0.11755 1.5352,-0.13588 z m -5.19888,-2.0172 c -0.33927,-0.1572 -1.05129,-0.7656 -0.785,-0.67077 0.0863,0.0308 0.28064,0.10258 0.43175,0.15961 0.15112,0.0571 0.50437,0.1037 0.78501,0.1037 0.45531,0 0.63506,-0.0398 1.21676,-0.26937 0.3185,-0.1257 -0.29779,0.4307 -0.6979,0.63008 -0.46684,0.23264 -0.5415,0.23631 -0.95062,0.0468 z m -5.08666,-4.81201 c 0.14238,-0.138 0.25854,-0.3058 0.25814,-0.37288 -10e-4,-0.19446 -0.44437,-0.91447 -0.67413,-1.09519 -0.21888,-0.17217 -0.78848,-0.3764 -0.85744,-0.30743 -0.0219,0.0219 0.009,0.16001 0.0691,0.30696 0.0598,0.14694 0.13331,0.49679 0.1632,0.77742 0.0757,0.71127 0.18635,0.8568 0.70756,0.93132 0.0411,0.005 0.19124,-0.10223 0.33361,-0.2402 z m 11.65367,0.17032 c 0.25975,-0.0722 0.29457,-0.11483 0.36762,-0.45094 0.0445,-0.20418 0.10092,-0.54558 0.12563,-0.75865 0.0251,-0.21306 0.10212,-0.47449 0.17185,-0.58095 l 0.12685,-0.19354 -0.30274,0.0491 c -0.46207,0.075 -0.89844,0.42684 -1.15748,0.93328 l -0.22622,0.44241 0.26452,0.31851 c 0.30161,0.36319 0.25434,0.34511 0.62997,0.24076 z m -10.30949,-1.16418 0.26106,-0.13916 -0.31221,-0.39498 c -0.40133,-0.50771 -0.80821,-0.84236 -1.34817,-1.10881 -0.38021,-0.18764 -0.52078,-0.21267 -1.1775,-0.20968 -0.41231,10e-4 -0.84817,0.0471 -0.97477,0.10115 -0.21803,0.0931 -0.22179,0.10277 -0.0786,0.20124 0.0827,0.0569 0.43373,0.12228 0.7799,0.14527 0.34616,0.023 0.76848,0.0999 0.93847,0.17097 0.45186,0.18881 1.11218,0.71242 1.34823,1.06912 0.11306,0.17084 0.22735,0.30912 0.25399,0.30731 0.0267,-0.001 0.16592,-0.0659 0.3095,-0.14246 z m 8.92157,-0.16544 c 0.25539,-0.36847 0.90605,-0.88779 1.33904,-1.06871 0.16975,-0.0709 0.5919,-0.14743 0.93803,-0.16999 0.96243,-0.0627 1.20483,-0.25664 0.5078,-0.40613 -0.55224,-0.11843 -1.15287,-0.10605 -1.62286,0.0336 -0.50925,0.15124 -1.22923,0.6806 -1.65802,1.21915 l -0.33457,0.42024 0.25927,0.13824 c 0.14261,0.0761 0.28093,0.13974 0.30744,0.14155 0.0267,0.001 0.14527,-0.13675 0.26387,-0.30791 z"
       id="path6377" />
    <path
       style="fill:#ffffff"
       d="m 361.62075,349.49307 c 0.17389,-0.10746 1.99045,1.29506 2.21093,1.70703 0.0631,0.11793 0.0309,0.16167 -0.19921,0.25782 -0.715,0.29875 -1.59567,0.0258 -1.91016,-0.5918 -0.1867,-0.36677 -0.25476,-1.27836 -0.10156,-1.37305 z"
       id="path6514" />
    <path
       style="fill:#ffffff"
       d="m 372.152,349.49698 c 0.12232,0.0758 0.0786,1.05051 -0.0606,1.34375 -0.0715,0.15069 -0.27044,0.36731 -0.44141,0.48047 -0.38297,0.25343 -1.12786,0.3202 -1.53515,0.13672 l -0.26172,-0.11914 0.16601,-0.23047 c 0.35324,-0.49613 1.96574,-1.7146 2.13282,-1.61133 z"
       id="path6512" />
    <path
       style="fill:#ffffff"
       d="m 375.19497,357.58292 0.082,0.21875 c 0.12619,0.331 0.10241,1.60738 -0.0391,2.09765 -0.25919,0.89826 -0.96968,1.61745 -1.93164,1.95508 -0.24497,0.086 -0.63957,0.17915 -0.87695,0.20703 l -0.43164,0.0508 0.0762,-0.33984 c 0.10777,-0.47976 -0.0306,-0.97552 -0.40429,-1.44922 -0.33685,-0.42705 -0.31068,-0.49016 0.20117,-0.50195 0.13121,-0.003 0.4497,-0.0605 0.70703,-0.12696 1.11611,-0.2881 1.95608,-0.87963 2.38672,-1.68164 l 0.23047,-0.42968 z"
       id="path6510" />
    <path
       style="fill:#ffffff"
       d="m 358.61098,357.64932 c 0.0376,0.0226 0.0817,0.0935 0.13281,0.21289 0.4364,1.01837 1.56946,1.73865 3.06446,1.94727 0.29602,0.0413 0.5504,0.0875 0.5664,0.10351 0.016,0.016 -0.11036,0.21594 -0.28125,0.44336 -0.31564,0.42008 -0.5067,0.92787 -0.4414,1.16993 0.0198,0.0734 0.0576,0.23087 0.084,0.34961 0.045,0.2019 0.0313,0.21538 -0.20898,0.20898 -1.17384,-0.0305 -2.3884,-0.80384 -2.85742,-1.82031 -0.21073,-0.45652 -0.22439,-0.55465 -0.22461,-1.48633 -1.9e-4,-0.82802 0.0531,-1.19686 0.16601,-1.12891 z"
       id="path6508" />
  </g>
</svg>
