<?xml version="1.0" encoding="UTF-8" standalone="no"?>
<svg
   xmlns:dc="http://purl.org/dc/elements/1.1/"
   xmlns:cc="http://creativecommons.org/ns#"
   xmlns:rdf="http://www.w3.org/1999/02/22-rdf-syntax-ns#"
   xmlns:svg="http://www.w3.org/2000/svg"
   xmlns="http://www.w3.org/2000/svg"
   version="1.1"
   id="svg6383"
   viewBox="0 0 31.214841 42.91797"
   width="8.8095217mm"
   height="12.112405mm">
  <defs
     id="defs6389" />
  <metadata
     id="metadata6385">
    <rdf:RDF>
      <cc:Work
         rdf:about="">
        <dc:format>image/svg+xml</dc:format>
        <dc:type
           rdf:resource="http://purl.org/dc/dcmitype/StillImage" />
        <dc:title></dc:title>
      </cc:Work>
    </rdf:RDF>
  </metadata>
  <g
     id="g6347"
     transform="translate(-351.30994,-280.95987)">
    <path
       id="path6328"
       d="m 366.91736,280.95987 a 15.60707,15.60707 0 0 0 -15.60742,15.60547 15.60707,15.60707 0 0 0 0.041,1.11914 c 0.83623,12.56323 15.56641,17.71422 15.56641,26.19336 0,-8.36334 14.32556,-13.49165 15.51953,-25.68555 a 15.60707,15.60707 0 0 0 0.0117,-0.11523 c 0.0447,-0.49311 0.0762,-0.99487 0.0762,-1.51172 a 15.60707,15.60707 0 0 0 -15.60742,-15.60547 z"
       style="fill:#f5a01a;fill-opacity:1;fill-rule:evenodd;stroke:none;stroke-width:1px;stroke-linecap:butt;stroke-linejoin:miter;stroke-opacity:1" />
    <g
       id="g6369"
       transform="matrix(1.089887,0,0,1.089887,-657.95217,399.14819)">
      <path
         style="fill:#b3b3b3"
         d="m 939.3407,-81.931904 c -1.23367,-0.262614 -2.09635,-0.970132 -2.70678,-2.219905 -0.39214,-0.802867 -0.51666,-1.391232 -0.3574,-1.688814 0.0477,-0.08909 0.22184,-0.223345 0.387,-0.298338 0.2805,-0.127359 0.51828,-0.136455 3.60517,-0.13793 3.52586,-0.0015 3.75329,0.01787 4.01076,0.345115 0.44412,0.564643 -0.35391,2.420477 -1.4057,3.268898 -0.91235,0.735955 -2.22951,1.008473 -3.53305,0.730974 z m -0.7697,-2.233953 c 0.20346,-0.128442 0.73368,-0.93271 0.73368,-1.112873 0,-0.233443 -0.24532,-0.284386 -1.26888,-0.263511 -0.89049,0.01816 -0.99158,0.03358 -1.07799,0.1641 -0.0809,0.122244 -0.0755,0.187673 0.0356,0.432161 0.17275,0.380002 0.60113,0.80879 0.89069,0.891536 0.25887,0.07398 0.43967,0.04463 0.68688,-0.111413 z m 4.4969,-0.03929 c 0.21973,-0.153402 0.58209,-0.649651 0.66304,-0.908024 0.0363,-0.115283 0.0133,-0.210365 -0.0734,-0.306114 -0.11253,-0.124364 -0.22944,-0.138894 -1.11777,-0.138894 -0.80584,0 -1.0133,0.02128 -1.10524,0.113185 -0.16827,0.168265 -0.14336,0.265371 0.19609,0.764526 0.47022,0.691424 0.91627,0.838947 1.4372,0.475321 z m -7.20203,0.851683 c -0.36133,-0.265994 -0.73872,-0.665122 -0.73872,-0.78125 0,-0.03447 0.7992,0.06509 0.81699,0.101798 0.006,0.01283 0.10855,0.215065 0.22739,0.449427 0.11885,0.234362 0.22689,0.453148 0.24009,0.486181 0.0534,0.133683 -0.13869,0.04352 -0.54575,-0.256156 z m 8.34915,0.262198 c 0.0134,-0.02973 0.12929,-0.255074 0.25739,-0.5008 0.21024,-0.403294 0.25924,-0.451013 0.50373,-0.490326 0.14886,-0.02394 0.34686,-0.0593 0.43997,-0.07859 l 0.16917,-0.03507 -0.14463,0.201247 c -0.18718,0.260538 -0.48208,0.529675 -0.84073,0.767402 -0.28378,0.188126 -0.43241,0.240656 -0.3849,0.1361 z m 3.01259,-2.566132 c 0,-0.01497 0.0571,-0.07169 0.12602,-0.126047 0.11424,-0.08959 0.11684,-0.08705 0.0274,0.02721 -0.0941,0.119983 -0.15323,0.158131 -0.15323,0.09886 z m -9.8583,-2.284955 c 0.31319,-0.966092 0.71535,-2.630397 0.70774,-2.928928 -0.005,-0.195946 -0.25655,0.330104 -0.76314,1.595852 -0.25541,0.638168 -0.51847,1.28618 -0.58457,1.440026 l -0.12019,0.279723 -0.57894,-0.04285 c -0.31842,-0.02357 -0.7248,-0.08638 -0.90306,-0.139584 l -0.32412,-0.09673 0.036,-0.860401 c 0.0198,-0.473223 0.036,-1.395198 0.036,-2.048844 0,-1.152193 -0.006,-1.199682 -0.19453,-1.557192 -0.21409,-0.405845 -0.49743,-0.675782 -0.94951,-0.904629 -1.15873,-0.586563 -1.6184,-1.086474 -1.52664,-1.660317 0.0509,-0.31822 0.21139,-0.598395 0.37983,-0.663031 0.0957,-0.03677 0.10704,0.0037 0.0726,0.260997 l -0.0409,0.304506 0.1466,-0.23153 c 0.21497,-0.339526 0.47953,-1.147145 0.55854,-1.705019 0.0658,-0.464884 0.003,-1.454415 -0.12171,-1.908379 -0.0448,-0.163729 -0.0539,-0.15289 -0.0879,0.105661 l -0.038,0.288107 -0.20251,-0.338777 c -0.42566,-0.712077 -0.39688,-1.125713 0.0954,-1.371748 0.53815,-0.26892 1.85636,-0.0669 2.917,0.446941 0.54332,0.263251 1.79198,1.064939 2.33476,1.499013 l 0.246,0.196732 -0.0944,-0.180067 c -0.37071,-0.707414 -1.2956,-1.606015 -2.18425,-2.122159 l -0.34607,-0.20101 0.16601,-0.17671 c 0.26181,-0.27869 1.39433,-0.79853 2.18275,-1.0019 1.42534,-0.36767 3.44321,-0.30546 4.77406,0.1472 0.72924,0.24803 1.81579,0.83924 1.81624,0.98825 7e-5,0.0256 -0.23485,0.19402 -0.52204,0.37424 -0.85074,0.533864 -1.45529,1.133719 -1.97125,1.956076 l -0.13559,0.21608 0.32418,-0.240729 c 1.26729,-0.941242 2.14576,-1.448381 3.0266,-1.747312 0.5723,-0.194225 0.79536,-0.232765 1.37901,-0.238245 0.60099,-0.006 0.72412,0.0142 0.90033,0.14487 0.39564,0.293517 0.37689,0.704054 -0.0637,1.397161 l -0.16028,0.252094 -0.0408,-0.288107 c -0.04,-0.286307 -0.0408,-0.285143 -0.12803,0.185968 -0.12016,0.650288 -0.10986,1.605867 0.023,2.121761 0.0608,0.236103 0.22106,0.656166 0.35627,0.933465 0.24049,0.493046 0.24501,0.497428 0.20446,0.198074 -0.0259,-0.192914 -0.0133,-0.306114 0.0348,-0.306114 0.12521,0 0.36763,0.358037 0.41566,0.613904 0.11595,0.618196 -0.20964,1.021854 -1.33252,1.652096 -0.82791,0.464683 -1.08797,0.750122 -1.2779,1.40276 -0.10007,0.34407 -0.10815,0.604452 -0.0571,1.841274 0.0326,0.792296 0.0623,1.618796 0.0645,1.836678 l 0.007,0.396148 -0.46822,0.121132 c -0.25746,0.06664 -0.66741,0.123341 -0.91093,0.126047 l -0.44272,0.0052 -0.47437,-1.206442 c -0.26088,-0.663543 -0.58861,-1.433332 -0.72835,-1.710631 -0.23901,-0.474395 -0.25161,-0.487168 -0.21299,-0.216081 0.12143,0.85301 0.72813,3.104651 1.00917,3.745383 0.0208,0.04744 -1.09501,0.07198 -3.26736,0.07198 l -3.29895,0 0.34094,-1.051677 z m 0.8529,-5.485319 c 0.11999,-0.240114 0.21816,-0.524226 0.21816,-0.631354 0,-0.163506 0.0503,-0.214005 0.31327,-0.314432 0.36449,-0.139198 0.59223,-0.358904 0.66155,-0.638205 0.0271,-0.108937 0.0374,-0.198074 0.0229,-0.198074 -0.0145,0 -0.13953,0.03306 -0.27792,0.07354 -0.49401,0.144387 -0.8782,-0.02105 -1.57498,-0.678155 -0.71669,-0.675893 -1.19254,-0.997849 -1.77998,-1.204322 -0.48458,-0.170319 -1.2597,-0.250879 -1.65946,-0.172476 l -0.27905,0.05471 0.23301,0.08101 c 0.26561,0.09235 0.26664,0.09611 0.12144,0.443637 -0.11436,0.273689 -0.084,0.647619 0.0785,0.96581 0.0879,0.172246 0.091,0.169562 0.14083,-0.125669 0.0612,-0.362552 0.18249,-0.471103 0.18249,-0.163403 0,0.297285 0.22443,0.867496 0.4662,1.18447 0.27732,0.363589 0.98517,0.699809 1.56468,0.74322 0.38129,0.02854 0.50836,0.0059 0.79307,-0.14068 l 0.33905,-0.174685 0.0751,0.215472 c 0.0938,0.268967 0.0966,0.732301 0.007,1.046859 -0.10521,0.366858 0.0877,0.167094 0.35478,-0.367303 z m 4.53849,0.302415 c -0.0899,-0.313742 -0.0893,-0.610538 0,-0.939959 l 0.0719,-0.260004 0.33567,0.16997 c 0.58156,0.294401 1.4111,0.16487 2.10402,-0.328524 0.28926,-0.205969 0.6388,-0.812556 0.69877,-1.212693 0.0623,-0.416875 0.1602,-0.450019 0.22054,-0.07487 l 0.0497,0.309502 0.12981,-0.2881 c 0.16716,-0.371298 0.16605,-0.589937 -0.007,-0.925081 l -0.13833,-0.271294 0.17903,-0.06805 c 0.0985,-0.03744 0.21743,-0.07035 0.26436,-0.07309 0.26813,-0.01594 -0.27377,-0.129687 -0.63776,-0.133927 -0.99849,-0.01164 -1.93293,0.422316 -2.95669,1.373084 -0.378,0.351024 -0.77424,0.660296 -0.88062,0.68728 -0.26599,0.06746 -0.58755,0.06887 -0.82356,0.0037 -0.45857,-0.127055 -0.0578,0.546036 0.45379,0.76219 0.22558,0.0953 0.3565,0.194939 0.3565,0.27131 0,0.19556 0.18948,0.675722 0.39527,1.001711 0.22077,0.349704 0.28059,0.348755 0.1797,-0.003 z m -1.97157,-3.48847 c 0.36711,-0.182943 0.93257,-0.693455 0.64034,-0.57812 -0.53373,0.210647 -0.69865,0.247149 -1.11641,0.247149 -0.2575,0 -0.58161,-0.04285 -0.72027,-0.09515 -0.13865,-0.05234 -0.31691,-0.118234 -0.39614,-0.146449 -0.24433,-0.08701 0.40897,0.471214 0.72026,0.615454 0.37538,0.173929 0.44388,0.170556 0.87222,-0.04292 z m 3.90405,9.70987 c 0.0519,-0.02083 0.11409,-0.01824 0.13803,0.0059 0.0237,0.02394 -0.0185,0.04099 -0.0945,0.03781 -0.0839,-0.0037 -0.10097,-0.02054 -0.0437,-0.04352 z m 4.05266,-0.641051 c 0,-0.08391 0.0208,-0.100976 0.0437,-0.04352 0.0208,0.05197 0.0185,0.114112 -0.007,0.138049 -0.0237,0.02394 -0.0408,-0.01861 -0.0378,-0.09453 z m -16.91521,-0.246097 c 0,-0.138649 0.0148,-0.195368 0.0329,-0.12604 0.0181,0.06931 0.0181,0.182766 0,0.252087 -0.0181,0.06931 -0.0329,0.0126 -0.0329,-0.126047 z m 16.91521,-0.330118 c 0,-0.08391 0.0208,-0.100976 0.0437,-0.04352 0.0208,0.05197 0.0185,0.114119 -0.007,0.138049 -0.0237,0.02394 -0.0408,-0.01861 -0.0378,-0.09453 z m -14.62138,-1.152423 c 0.004,-0.08391 0.0205,-0.100975 0.0435,-0.04351 0.0208,0.05197 0.0182,0.114111 -0.006,0.138049 -0.024,0.02394 -0.041,-0.01861 -0.0378,-0.09453 z m 12.31653,-0.144054 c 0,-0.08391 0.0208,-0.100975 0.0437,-0.04352 0.0208,0.05197 0.0185,0.114119 -0.007,0.138049 -0.0237,0.02394 -0.0408,-0.01861 -0.0378,-0.09453 z m -12.22787,-1.578579 c 4.4e-4,-0.23769 0.0139,-0.326241 0.0299,-0.196784 0.016,0.129457 0.0157,0.323928 -6.6e-4,0.432154 -0.0165,0.108233 -0.0296,0.0022 -0.0291,-0.23537 z m 15.03689,-3.751388 c 0,-0.0839 0.0208,-0.100968 0.0437,-0.04351 0.0208,0.05197 0.0185,0.114119 -0.007,0.138049 -0.0237,0.02394 -0.0408,-0.01861 -0.0378,-0.09453 z m -14.53879,-6.059283 c -0.23854,-0.0458 -0.36031,-0.28339 -0.41676,-0.81325 -0.0274,-0.25749 -0.0948,-0.57848 -0.14974,-0.71331 -0.0549,-0.13484 -0.0834,-0.26157 -0.0634,-0.28165 0.0632,-0.0633 0.5859,0.12411 0.78672,0.28208 0.21082,0.16582 0.61745,0.82644 0.61853,1.00487 6.7e-4,0.12518 -0.43611,0.5778 -0.54295,0.56253 -0.0377,-0.005 -0.14232,-0.0239 -0.23243,-0.0413 z m 10.65308,-0.24377 -0.24271,-0.29223 0.20757,-0.40594 c 0.23767,-0.46466 0.63805,-0.7875 1.06202,-0.8563 l 0.27777,-0.0451 -0.11639,0.17759 c -0.0637,0.0977 -0.13492,0.33754 -0.15768,0.53304 -0.023,0.1955 -0.0746,0.50874 -0.11527,0.69608 -0.0667,0.30839 -0.099,0.34754 -0.3373,0.41375 -0.34465,0.0957 -0.30128,0.11233 -0.57801,-0.22091 z m 1.65863,-0.49745 c 0,-0.099 0.0163,-0.13956 0.0363,-0.09 0.02,0.0495 0.02,0.13055 0,0.18007 -0.02,0.0495 -0.0363,0.009 -0.0363,-0.09 z m -11.05687,-0.50107 c -0.21658,-0.32728 -0.82244,-0.80771 -1.23703,-0.98094 -0.15597,-0.0652 -0.54346,-0.13576 -0.86107,-0.15686 -0.31762,-0.0211 -0.63963,-0.0811 -0.71558,-0.13331 -0.13147,-0.0904 -0.12802,-0.0992 0.0721,-0.18464 0.11616,-0.0496 0.51607,-0.0911 0.89437,-0.0928 0.60256,-0.003 0.73154,0.0202 1.08039,0.19238 0.49543,0.24449 0.86875,0.55154 1.23698,1.01738 l 0.28645,0.36239 -0.23952,0.12769 c -0.13174,0.0702 -0.25953,0.12905 -0.28397,0.13071 -0.0245,0.001 -0.12931,-0.12522 -0.23305,-0.28197 z m 8.17861,0.1521 -0.23789,-0.12684 0.30698,-0.38558 c 0.39342,-0.49414 1.05402,-0.97983 1.52127,-1.11861 0.43123,-0.12806 0.98233,-0.13944 1.48902,-0.0308 0.63954,0.13716 0.41714,0.31508 -0.46592,0.37265 -0.31758,0.0207 -0.70492,0.0909 -0.86067,0.15596 -0.39728,0.166 -0.99427,0.64249 -1.2286,0.98057 -0.10882,0.15704 -0.21772,0.28417 -0.24211,0.2825 -0.0245,-0.001 -0.15123,-0.0601 -0.28208,-0.12986 z m -10.8994,-0.49734 c -0.0896,-0.11425 -0.087,-0.11679 0.0272,-0.0272 0.11997,0.0941 0.15813,0.15325 0.0989,0.15325 -0.015,0 -0.0717,-0.0567 -0.12605,-0.12605 z m 9.31735,-0.37814 c 0,-0.13865 0.0148,-0.19538 0.0326,-0.12605 0.0178,0.0693 0.0178,0.18277 0,0.2521 -0.0178,0.0693 -0.0326,0.0126 -0.0326,-0.12605 z m -5.67421,-0.30612 -0.28472,-0.30611 0.30611,0.28472 c 0.28469,0.26478 0.33922,0.32751 0.28472,0.32751 -0.0118,0 -0.14952,-0.13775 -0.30611,-0.30612 z m 2.28359,-1.27847 c 0,-0.099 0.0164,-0.13955 0.0363,-0.09 0.02,0.0495 0.02,0.13055 0,0.18007 -0.02,0.0495 -0.0363,0.009 -0.0363,-0.09 z"
         id="path6322" />
      <path
         style="fill:#463014"
         d="m 939.19665,-81.27106 c -0.60177,-0.111532 -1.16749,-0.328235 -1.57478,-0.603229 -0.16385,-0.110627 -0.49238,-0.242538 -0.73007,-0.293148 -1.0093,-0.21488 -2.0183,-0.955587 -2.53368,-1.859978 -0.17826,-0.312794 -0.29127,-0.415823 -0.65605,-0.598106 -0.64488,-0.322253 -1.11782,-0.780539 -1.41169,-1.36794 -0.3342,-0.668021 -0.42877,-1.170608 -0.38891,-2.066777 0.0306,-0.687992 0.0532,-0.780035 0.32768,-1.333951 0.16215,-0.327227 0.37594,-0.671171 0.47508,-0.76431 l 0.18027,-0.169355 0.0842,0.312845 c 0.11839,0.439626 0.36772,0.908068 0.7217,1.355879 0.23366,0.295609 0.31698,0.359615 0.36241,0.278425 0.0825,-0.147389 0.22311,-2.75849 0.16564,-3.075568 -0.0585,-0.322735 -0.25716,-0.726326 -0.43417,-0.882003 -0.0735,-0.06464 -0.42735,-0.282044 -0.78625,-0.483038 -1.15465,-0.646649 -1.6163,-1.191988 -1.6163,-1.909336 0,-0.496256 0.16276,-0.80965 0.66038,-1.271575 l 0.44273,-0.410974 0.0325,-0.748788 0.0325,-0.748787 -0.29851,-0.551403 c -0.36588,-0.675879 -0.44087,-1.138768 -0.26084,-1.610133 0.18421,-0.48236 0.50827,-0.68935 1.34575,-0.8596 0.16166,-0.0328 0.19709,-0.0873 0.23903,-0.36695 0.0588,-0.39187 -0.003,-0.72184 -0.18207,-0.97557 -0.17353,-0.24562 -0.86383,-0.60458 -1.38116,-0.71821 -0.22779,-0.05 -0.41416,-0.11377 -0.41416,-0.14167 0,-0.0279 0.16247,-0.20267 0.36104,-0.38842 0.96655,-0.90409 2.42612,-1.07028 3.74448,-0.42635 0.41476,0.20259 0.69907,0.42036 1.22445,0.93794 0.37634,0.37075 0.73248,0.66486 0.79142,0.65359 0.0707,-0.0135 0.12607,-0.15512 0.16269,-0.41583 0.0764,-0.54403 0.42319,-1.21904 0.80892,-1.57459 0.17739,-0.16351 0.3499,-0.29729 0.38336,-0.29729 0.0334,0 0.0967,0.23149 0.14047,0.51443 0.0438,0.28294 0.12689,0.5617 0.18466,0.61946 0.092,0.092 0.11992,0.0603 0.22516,-0.2566 0.16606,-0.49993 0.58666,-0.94995 1.1786,-1.261 l 0.49647,-0.26089 -0.0345,0.53806 c -0.0291,0.45304 0.0764,1.18694 0.1706,1.18694 0.0129,0 0.20298,-0.12575 0.42237,-0.27945 0.36147,-0.25321 1.01443,-0.49845 1.09975,-0.41309 0.0185,0.0188 -0.0467,0.23906 -0.14552,0.48942 -0.20616,0.52212 -0.29816,0.99765 -0.23285,1.20345 0.0245,0.0781 0.13418,0.16165 0.24308,0.18558 0.17606,0.0387 0.27392,-0.0315 0.88025,-0.63097 0.52352,-0.51763 0.80752,-0.73593 1.22125,-0.93874 1.34595,-0.65989 2.89094,-0.45647 3.83938,0.50554 l 0.33234,0.33711 -0.49491,0.12568 c -0.62471,0.15866 -0.98373,0.34325 -1.29212,0.66431 -0.2244,0.23368 -0.24338,0.28948 -0.24753,0.72754 0,0.26094 0.0311,0.51008 0.0747,0.55364 0.0437,0.0436 0.23597,0.10808 0.4276,0.14339 0.19163,0.0353 0.47474,0.15319 0.62909,0.26197 0.71233,0.50198 0.72679,1.291579 0.0452,2.465485 -0.10928,0.188155 -0.1453,0.377452 -0.14404,0.756282 0,0.817071 0.0819,1.032232 0.53004,1.441301 0.48787,0.445305 0.62071,0.707229 0.62071,1.224101 0,0.760071 -0.45606,1.29346 -1.6851,1.970717 -0.76994,0.424311 -1.0165,0.697421 -1.10768,1.227066 -0.0563,0.329578 0.01,2.586178 0.0888,3.00673 l 0.0482,0.258699 0.17496,-0.164344 c 0.31713,-0.297878 0.68327,-0.898379 0.85037,-1.394642 l 0.1645,-0.488472 0.19333,0.229691 c 0.53487,0.635677 0.79137,1.386243 0.78803,2.305817 0,0.667583 -0.14634,1.342571 -0.38645,1.813289 -0.25116,0.492245 -0.82747,1.042573 -1.38264,1.32034 -0.44539,0.222819 -0.53287,0.302081 -0.76342,0.692194 -0.30653,0.518541 -0.98054,1.171097 -1.49821,1.450524 -0.20231,0.109159 -0.6061,0.258321 -0.89744,0.331467 -0.29134,0.07317 -0.68832,0.233917 -0.88203,0.357258 -0.90063,0.573257 -2.43244,0.799739 -3.75324,0.554917 z m 1.896,-0.61678 c 1.42697,-0.231552 2.52494,-1.177101 3.1094,-2.677694 0.3671,-0.942569 0.26028,-1.446675 -0.34516,-1.628062 -0.20001,-0.0599 -1.25513,-0.08442 -3.5882,-0.08331 -3.08689,0.0015 -3.32467,0.0106 -3.60517,0.137931 -0.16516,0.07499 -0.33931,0.209245 -0.387,0.298337 -0.27035,0.505174 0.3743,2.086185 1.17857,2.890468 0.90785,0.907853 2.22287,1.291895 3.63756,1.06233 z m -3.20853,-2.166618 c -0.28956,-0.08275 -0.71794,-0.511535 -0.89069,-0.891537 -0.11114,-0.244488 -0.11653,-0.309917 -0.0356,-0.432161 0.0864,-0.130547 0.1875,-0.145937 1.07799,-0.164099 1.38907,-0.02832 1.48783,0.05508 0.98536,0.832519 -0.39426,0.610005 -0.69301,0.78217 -1.13704,0.655278 z m 4.29738,-0.04915 c -0.24041,-0.12157 -0.86007,-0.935734 -0.86007,-1.129976 0,-0.05404 0.0509,-0.149213 0.11318,-0.211462 0.0919,-0.09194 0.29941,-0.113185 1.10525,-0.113185 0.88832,0 1.00523,0.01453 1.11776,0.138894 0.15131,0.167168 0.10868,0.345286 -0.1854,0.77466 -0.38364,0.560099 -0.85905,0.759403 -1.29072,0.541069 z m -5.76988,1.006249 c -0.0132,-0.03306 -0.12124,-0.25182 -0.24009,-0.486182 -0.11884,-0.234362 -0.22117,-0.436609 -0.22739,-0.449427 -0.0178,-0.0367 -0.81699,-0.136269 -0.81699,-0.101798 0,0.116128 0.37739,0.515256 0.73872,0.78125 0.40706,0.299657 0.59918,0.389839 0.54575,0.256157 z m 8.1883,-0.130058 c 0.35865,-0.237727 0.65355,-0.506864 0.84073,-0.767402 l 0.14463,-0.201247 -0.16917,0.03507 c -0.0931,0.01927 -0.29111,0.05464 -0.43997,0.07859 -0.24449,0.03929 -0.29349,0.08703 -0.50373,0.490326 -0.1281,0.245726 -0.24389,0.471088 -0.25739,0.5008 -0.0474,0.104556 0.10112,0.05204 0.3849,-0.136099 z M 935.59,-85.036036 c -0.0242,-0.108945 -0.0589,-0.253206 -0.0771,-0.320577 -0.0599,-0.222093 0.11651,-0.688741 0.40612,-1.074169 0.15679,-0.208668 0.2731,-0.391374 0.25845,-0.406008 -0.0147,-0.01468 -0.24884,-0.0576 -0.52044,-0.09553 -1.37171,-0.191417 -2.41181,-0.852173 -2.81222,-1.78655 -0.1877,-0.438033 -0.2746,-0.171498 -0.27437,0.841475 2e-4,0.854841 0.0137,0.943948 0.20702,1.362817 0.43035,0.932636 1.54416,1.642467 2.62119,1.670489 0.22047,0.0059 0.23265,-0.0067 0.19138,-0.191951 z m 10.61659,-0.01994 c 0.88262,-0.309783 1.53461,-0.969612 1.77242,-1.793785 0.12981,-0.449834 0.15212,-1.62102 0.0363,-1.924725 l -0.0763,-0.200535 -0.2115,0.393917 c -0.39513,0.735866 -1.16603,1.279226 -2.19009,1.543566 -0.23611,0.06094 -0.52782,0.113096 -0.64821,0.115884 -0.46963,0.01082 -0.49313,0.06991 -0.18407,0.461732 0.34286,0.43463 0.4694,0.88826 0.37051,1.32845 l -0.0704,0.312045 0.39594,-0.04655 c 0.2178,-0.02558 0.57994,-0.111095 0.80471,-0.190008 z m -2.6119,-1.906755 c -0.28104,-0.640732 -0.88774,-2.892373 -1.00917,-3.745383 -0.0385,-0.271079 -0.0259,-0.258314 0.21299,0.216081 0.13973,0.277299 0.46747,1.047088 0.72834,1.710631 l 0.47438,1.206443 0.44271,-0.0052 c 0.24353,-0.003 0.65348,-0.05945 0.91094,-0.126047 l 0.46822,-0.121132 -0.007,-0.396148 c 0,-0.217882 -0.0319,-1.044382 -0.0645,-1.836678 -0.0512,-1.236814 -0.043,-1.497204 0.0571,-1.841274 0.18993,-0.652638 0.44999,-0.938077 1.2779,-1.402752 1.12288,-0.630243 1.44847,-1.0339 1.33252,-1.652104 -0.0482,-0.255867 -0.29045,-0.613904 -0.41566,-0.613904 -0.0482,0 -0.0608,0.1132 -0.0348,0.306115 0.0408,0.299353 0.0356,0.294972 -0.20453,-0.198074 -0.13522,-0.277299 -0.29557,-0.697362 -0.35628,-0.933466 -0.13277,-0.515894 -0.14307,-1.471473 -0.023,-2.121761 0.087,-0.47111 0.0879,-0.472274 0.12803,-0.185968 l 0.04,0.288107 0.16027,-0.252094 c 0.44072,-0.693106 0.45947,-1.103643 0.0638,-1.397161 -0.17622,-0.1307 -0.29935,-0.15051 -0.90034,-0.14487 -1.27856,0.012 -2.47357,0.550587 -4.40561,1.985557 l -0.3241,0.24073 0.13551,-0.216081 c 0.51596,-0.822356 1.12051,-1.422212 1.97125,-1.956066 0.28719,-0.18023 0.52212,-0.34864 0.52204,-0.37425 -4.4e-4,-0.14901 -1.087,-0.74022 -1.81624,-0.98825 -1.33085,-0.45265 -3.34871,-0.51487 -4.77405,-0.1472 -0.78843,0.20337 -1.92095,0.72321 -2.18276,1.0019 l -0.16601,0.17671 0.34608,0.20101 c 0.88863,0.516144 1.81353,1.414745 2.18424,2.122159 l 0.0944,0.180068 -0.24601,-0.196732 c -0.54278,-0.434074 -1.79144,-1.235763 -2.33477,-1.499014 -1.06063,-0.513891 -2.37883,-0.715861 -2.91699,-0.446941 -0.49233,0.246036 -0.52111,0.659671 -0.0954,1.371748 l 0.20252,0.338777 0.0379,-0.288107 c 0.034,-0.258551 0.0431,-0.269389 0.0879,-0.105661 0.12443,0.453964 0.18754,1.443496 0.1217,1.908379 -0.079,0.557875 -0.34357,1.365493 -0.55854,1.705019 l -0.1466,0.23153 0.0408,-0.304506 c 0.0345,-0.257113 0.0232,-0.297737 -0.0726,-0.260997 -0.16844,0.06464 -0.32894,0.344811 -0.37983,0.663031 -0.0918,0.573843 0.3679,1.073754 1.52664,1.660318 0.45208,0.228846 0.73541,0.498784 0.94951,0.904628 0.1886,0.35751 0.19453,0.404999 0.19453,1.557192 0,0.653646 -0.0162,1.575621 -0.036,2.048845 l -0.036,0.860401 0.32413,0.09674 c 0.17826,0.05323 0.58464,0.116017 0.90305,0.139583 l 0.57895,0.04285 0.12019,-0.279723 c 0.0661,-0.153847 0.32916,-0.801859 0.58457,-1.440027 0.50659,-1.265748 0.75815,-1.791798 0.76314,-1.595852 0.008,0.298531 -0.39455,1.962837 -0.70774,2.928928 l -0.34093,1.051684 3.29895,0 c 2.17235,0 3.28819,-0.02461 3.26736,-0.07206 z m -5.72725,-6.09768 c 0.0902,-0.314558 0.0874,-0.777892 -0.007,-1.046859 l -0.0751,-0.215465 -0.33904,0.174685 c -0.28471,0.146701 -0.41178,0.169237 -0.79307,0.140681 -0.57952,-0.04344 -1.28736,-0.379631 -1.56468,-0.74322 -0.24177,-0.316975 -0.4662,-0.887185 -0.4662,-1.18447 0,-0.307701 -0.12123,-0.199149 -0.18249,0.163402 -0.0499,0.295232 -0.0529,0.297915 -0.14084,0.125662 -0.16246,-0.318191 -0.19286,-0.692114 -0.0785,-0.96581 0.14521,-0.347517 0.14418,-0.351283 -0.12145,-0.443629 l -0.233,-0.08101 0.27906,-0.05471 c 0.39975,-0.0784 1.17486,0.0022 1.65945,0.172476 0.58745,0.206473 1.06329,0.528422 1.77998,1.204323 0.69678,0.657123 1.08096,0.822542 1.57499,0.678154 0.13839,-0.04048 0.26344,-0.07354 0.2779,-0.07354 0.0145,0 0.004,0.08913 -0.0228,0.198074 -0.0693,0.279293 -0.29707,0.499006 -0.66156,0.638204 -0.26296,0.100427 -0.31327,0.150919 -0.31327,0.314425 0,0.213886 -0.37566,1.017591 -0.53899,1.153149 -0.0874,0.0725 -0.0924,0.04952 -0.034,-0.154492 z m -0.53749,-1.534997 c 0.21113,-0.08822 0.24185,-0.127589 0.18394,-0.235792 -0.2023,-0.378001 -1.86865,-1.664632 -2.0282,-1.566029 -0.14057,0.08688 -0.0797,0.922553 0.0916,1.259077 0.28856,0.566629 1.09661,0.816855 1.75264,0.542744 z m 5.25105,1.472978 c -0.20579,-0.325989 -0.39527,-0.806144 -0.39527,-1.001705 0,-0.07637 -0.13092,-0.176012 -0.3565,-0.271316 -0.51159,-0.216148 -0.91235,-0.889239 -0.45378,-0.762183 0.23601,0.06538 0.55756,0.06405 0.82362,-0.0037 0.10631,-0.02698 0.50262,-0.336256 0.88054,-0.68728 1.02385,-0.950768 1.95821,-1.384701 2.95669,-1.373085 0.36399,0.0044 0.9059,0.118026 0.63776,0.133928 -0.0467,0.003 -0.1659,0.03566 -0.26435,0.07309 l -0.17896,0.06805 0.13826,0.271287 c 0.17088,0.335152 0.17199,0.55379 0.007,0.925082 l -0.12973,0.288107 -0.0497,-0.309502 c -0.0608,-0.375153 -0.15805,-0.342009 -0.22061,0.07487 -0.06,0.400129 -0.40951,1.006723 -0.69877,1.212692 -0.69292,0.493388 -1.52246,0.622926 -2.10395,0.328525 l -0.33575,-0.169971 -0.0719,0.260004 c -0.0916,0.329422 -0.0922,0.62621 0,0.939953 0.10082,0.351631 0.0408,0.352587 -0.17978,0.003 z m 2.10602,-1.597617 c 0.15687,-0.103822 0.33894,-0.301896 0.40454,-0.44016 0.12766,-0.269055 0.16784,-1.16349 0.0556,-1.233004 -0.1533,-0.09475 -1.63291,1.022261 -1.95701,1.47747 l -0.15123,0.21233 0.23974,0.10804 c 0.3737,0.168354 1.0572,0.107855 1.40859,-0.124676 z m -4.77011,-1.85083 c -0.31129,-0.144239 -0.96459,-0.702462 -0.72026,-0.615453 0.0792,0.02824 0.25749,0.09412 0.39614,0.146448 0.13866,0.05234 0.46277,0.09515 0.72027,0.09515 0.41776,0 0.58268,-0.03655 1.11641,-0.247157 0.29223,-0.115327 -0.27323,0.395184 -0.64034,0.578121 -0.42834,0.213449 -0.49684,0.216814 -0.87222,0.04292 z m -4.66715,-4.415143 c 0.13064,-0.12662 0.23722,-0.28058 0.23685,-0.34213 -0.001,-0.17842 -0.40772,-0.83905 -0.61853,-1.00487 -0.20083,-0.15797 -0.72345,-0.34535 -0.78672,-0.28207 -0.0201,0.0201 0.008,0.14681 0.0634,0.28164 0.0549,0.13482 0.12231,0.45582 0.14974,0.71331 0.0695,0.6526 0.17098,0.78613 0.6492,0.85451 0.0377,0.005 0.17547,-0.0938 0.3061,-0.22039 z m 10.69255,0.15627 c 0.23833,-0.0662 0.27028,-0.10536 0.3373,-0.41375 0.0408,-0.18734 0.0926,-0.50058 0.11527,-0.69608 0.023,-0.19549 0.0937,-0.43536 0.15768,-0.53304 l 0.11639,-0.17758 -0.27777,0.0451 c -0.42397,0.0688 -0.82435,0.39164 -1.06202,0.85631 l -0.20757,0.40593 0.24271,0.29224 c 0.27673,0.33323 0.23336,0.31664 0.57801,0.2209 z m -9.45923,-1.06817 0.23953,-0.12768 -0.28646,-0.3624 c -0.36823,-0.46584 -0.74155,-0.77289 -1.23698,-1.01737 -0.34885,-0.17216 -0.47783,-0.19513 -1.08039,-0.19238 -0.3783,0.001 -0.77821,0.0432 -0.89437,0.0928 -0.20005,0.0854 -0.2035,0.0943 -0.0721,0.18465 0.0759,0.0522 0.39796,0.11219 0.71558,0.13329 0.31761,0.0211 0.7051,0.0917 0.86107,0.15687 0.41459,0.17323 1.02045,0.65366 1.23703,0.98094 0.10374,0.15675 0.2086,0.28363 0.23305,0.28197 0.0245,-0.001 0.15223,-0.0605 0.28397,-0.13071 z m 8.18578,-0.15179 c 0.23433,-0.33808 0.83132,-0.81457 1.2286,-0.98057 0.15575,-0.0651 0.54309,-0.13527 0.86067,-0.15597 0.88306,-0.0575 1.10546,-0.23548 0.46592,-0.37264 -0.50669,-0.10866 -1.05779,-0.0973 -1.48902,0.0308 -0.46725,0.13877 -1.12785,0.62447 -1.52127,1.11861 l -0.30698,0.38558 0.23789,0.12684 c 0.13085,0.0698 0.25776,0.12821 0.28208,0.12987 0.0245,0.001 0.13329,-0.12547 0.24211,-0.28251 z"
         id="path6320" />
    </g>
    <path
       id="path6534"
       d="m 361.62075,294.08428 c 0.17389,-0.10747 1.99045,1.29505 2.21093,1.70703 0.0631,0.11793 0.0309,0.16166 -0.19921,0.25781 -0.715,0.29875 -1.59567,0.0258 -1.91016,-0.5918 -0.1867,-0.36677 -0.25476,-1.27835 -0.10156,-1.37304 z"
       style="fill:#ffffff" />
    <path
       id="path6536"
       d="m 372.152,294.08818 c 0.12232,0.0758 0.0786,1.05051 -0.0606,1.34375 -0.0715,0.1507 -0.27044,0.36732 -0.44141,0.48047 -0.38297,0.25343 -1.12786,0.32021 -1.53515,0.13672 l -0.26172,-0.11914 0.16601,-0.23047 c 0.35324,-0.49613 1.96574,-1.71459 2.13282,-1.61133 z"
       style="fill:#ffffff" />
    <path
       id="path6538"
       d="m 375.19497,302.17412 0.082,0.21875 c 0.12619,0.331 0.10241,1.60739 -0.0391,2.09766 -0.25919,0.89825 -0.96968,1.61745 -1.93164,1.95507 -0.24497,0.086 -0.63957,0.17916 -0.87695,0.20704 l -0.43164,0.0508 0.0762,-0.33985 c 0.10777,-0.47975 -0.0306,-0.97552 -0.40429,-1.44922 -0.33685,-0.42704 -0.31068,-0.49016 0.20117,-0.50195 0.13121,-0.003 0.4497,-0.0605 0.70703,-0.12695 1.11611,-0.2881 1.95608,-0.87963 2.38672,-1.68164 l 0.23047,-0.42969 z"
       style="fill:#ffffff" />
    <path
       id="path6540"
       d="m 358.61098,302.24053 c 0.0376,0.0226 0.0817,0.0935 0.13281,0.21289 0.4364,1.01836 1.56946,1.73864 3.06446,1.94726 0.29602,0.0413 0.5504,0.0875 0.5664,0.10352 0.016,0.0159 -0.11036,0.21593 -0.28125,0.44336 -0.31564,0.42007 -0.5067,0.92786 -0.4414,1.16992 0.0198,0.0734 0.0576,0.23087 0.084,0.34961 0.045,0.2019 0.0313,0.21538 -0.20898,0.20898 -1.17384,-0.0305 -2.3884,-0.80384 -2.85742,-1.82031 -0.21073,-0.45652 -0.22439,-0.55465 -0.22461,-1.48633 -1.9e-4,-0.82802 0.0531,-1.19686 0.16601,-1.1289 z"
       style="fill:#ffffff" />
  </g>
</svg>
