<?xml version="1.0" encoding="UTF-8" standalone="no"?>
<svg
   xmlns:dc="http://purl.org/dc/elements/1.1/"
   xmlns:cc="http://creativecommons.org/ns#"
   xmlns:rdf="http://www.w3.org/1999/02/22-rdf-syntax-ns#"
   xmlns:svg="http://www.w3.org/2000/svg"
   xmlns="http://www.w3.org/2000/svg"
   xmlns:xlink="http://www.w3.org/1999/xlink"
   version="1.1"
   id="svg10428"
   viewBox="0 0 31.214841 42.91797"
   height="12.112405mm"
   width="8.8095217mm">
  <defs
     id="defs10430">
    <linearGradient
       y2="137.78625"
       x2="379.57394"
       y1="115.09216"
       x1="379.57394"
       gradientTransform="translate(-12.656925,264.66007)"
       gradientUnits="userSpaceOnUse"
       id="linearGradient8176"
       xlink:href="#linearGradient7557" />
    <linearGradient
       id="linearGradient7557">
      <stop
         id="stop7559"
         offset="0"
         style="stop-color:#f05134;stop-opacity:1;" />
      <stop
         id="stop7561"
         offset="1"
         style="stop-color:#e12d0f;stop-opacity:1" />
    </linearGradient>
  </defs>
  <metadata
     id="metadata10433">
    <rdf:RDF>
      <cc:Work
         rdf:about="">
        <dc:format>image/svg+xml</dc:format>
        <dc:type
           rdf:resource="http://purl.org/dc/dcmitype/StillImage" />
        <dc:title></dc:title>
      </cc:Work>
    </rdf:RDF>
  </metadata>
  <g
     transform="translate(-172.96401,-193.76036)"
     id="layer1">
    <g
       id="g8868"
       transform="translate(-178.34575,-167.19951)">
      <path
         id="path8174"
         d="m 366.91718,360.95987 a 15.60707,15.60707 0 0 0 -15.60742,15.60547 15.60707,15.60707 0 0 0 0.041,1.11914 c 0.83623,12.56323 15.56641,17.71422 15.56641,26.19336 0,-8.36334 14.32556,-13.49165 15.51953,-25.68555 a 15.60707,15.60707 0 0 0 0.0117,-0.11523 c 0.0447,-0.49311 0.0762,-0.99487 0.0762,-1.51172 a 15.60707,15.60707 0 0 0 -15.60742,-15.60547 z"
         style="color:#000000;clip-rule:nonzero;display:inline;overflow:visible;visibility:visible;opacity:1;isolation:auto;mix-blend-mode:normal;color-interpolation:sRGB;color-interpolation-filters:linearRGB;solid-color:#000000;solid-opacity:1;fill:url(#linearGradient8176);fill-opacity:1;fill-rule:evenodd;stroke:none;stroke-width:1px;stroke-linecap:butt;stroke-linejoin:miter;stroke-miterlimit:4;stroke-dasharray:none;stroke-dashoffset:0;stroke-opacity:1;color-rendering:auto;image-rendering:auto;shape-rendering:auto;text-rendering:auto;enable-background:accumulate" />
      <g
         style="fill:#ffffff"
         transform="matrix(0.18735313,0,0,0.18735313,341.37494,365.03276)"
         id="g8292">
        <g
           style="fill:#ffffff"
           id="g8294">
          <path
             style="fill:#ffffff;stroke:none;stroke-miterlimit:10"
             stroke-miterlimit="10"
             d="m 160.533,79.118 c -0.176,0.26 -0.494,1.079 -0.955,2.456 -0.461,1.379 -1.021,3.107 -1.68,5.188 -0.658,2.079 -1.373,4.405 -2.14,6.979 -0.769,2.573 -1.559,5.199 -2.371,7.877 -0.812,2.68 -1.591,5.304 -2.337,7.878 -0.748,2.573 -1.416,4.899 -2.008,6.98 -0.593,2.078 -1.086,3.821 -1.482,5.226 -0.395,1.403 -0.637,2.234 -0.724,2.496 -0.22,0.831 -0.571,1.754 -1.053,2.769 -0.484,1.013 -1.054,1.976 -1.712,2.886 -0.659,0.909 -1.382,1.663 -2.173,2.262 -0.791,0.597 -1.603,0.896 -2.436,0.896 -1.406,0 -2.426,-0.468 -3.062,-1.403 -0.638,-0.937 -0.955,-2.651 -0.955,-5.147 0,-0.365 0,-0.729 0,-1.093 0,-0.364 0.021,-0.754 0.066,-1.169 0.043,-0.832 0.373,-2.394 0.988,-4.681 0.614,-2.288 1.35,-4.874 2.206,-7.76 0.856,-2.886 1.778,-5.875 2.766,-8.969 0.988,-3.094 1.876,-5.862 2.667,-8.308 -2.328,2.602 -4.851,5.188 -7.572,7.761 -2.723,2.574 -5.51,4.888 -8.363,6.941 -2.854,2.056 -5.729,3.732 -8.626,5.031 -2.897,1.298 -5.686,1.95 -8.363,1.95 -3.073,0 -5.718,-0.677 -7.935,-2.028 -2.217,-1.353 -4.048999,-3.12 -5.497999,-5.304 -1.449,-2.184 -2.525,-4.653 -3.227,-7.409 -0.703,-2.756 -1.054,-5.511 -1.054,-8.267 0,-0.362 0,-0.702 0,-1.015 0,-0.311 0.021,-0.623 0.066,-0.935 0.263,-4.992 0.976,-10.113 2.14,-15.365 1.163,-5.252 2.688,-10.478 4.576999,-15.677 1.887,-5.198 4.071,-10.282 6.552,-15.248 2.479,-4.965 5.179,-9.658 8.099,-14.078 2.919,-4.418 6.025,-8.487 9.317,-12.206 3.292,-3.717 6.672,-6.915 10.141,-9.593 3.467,-2.677 6.968,-4.77 10.502,-6.278 3.533,-1.507 7.035,-2.261 10.502,-2.261 3.994,0 7.858,1.092 11.589,3.275 3.73,2.184 7.22,5.721 10.47,10.607 0.745,1.092 1.218,2.197 1.415,3.314 0.197,1.119 0.296,2.171 0.296,3.159 0,2.339 -0.56,4.187 -1.679,5.538 -1.119,1.353 -2.447,2.028 -3.984,2.028 -1.405,0 -2.71,-0.741 -3.918,-2.223 -1.208,-1.482 -2.558,-3.6 -4.05,-6.356 -1.405,-2.496 -2.953,-4.302 -4.642,-5.42 -1.69,-1.118 -3.523,-1.677 -5.499,-1.677 -3.073,0 -6.354,1.275 -9.844,3.822 -3.49,2.548 -6.947,5.916 -10.371,10.101 -3.425,4.186 -6.706,8.968 -9.845,14.35 -3.138,5.382 -5.916,10.893 -8.33,16.535 -2.415,5.642 -4.335,11.206 -5.761,16.689 -1.427,5.486 -2.14,10.412 -2.14,14.781 0,1.455 0.099,2.951 0.296,4.483 0.198,1.534 0.57,2.926 1.12,4.173 0.548,1.248 1.294,2.275 2.239,3.08 0.944,0.809 2.14,1.209 3.589,1.209 1.624,0 3.468,-0.545 5.531,-1.638 2.062,-1.091 4.203,-2.521 6.42,-4.289 2.216,-1.768 4.444,-3.769 6.684,-6.006 2.239,-2.234 4.323,-4.496 6.255,-6.785 1.931,-2.287 3.644,-4.485 5.136,-6.591 1.492,-2.105 2.611,-3.938 3.358,-5.498 l 6.124,-18.329 c 0.746,-1.975 1.722,-3.378 2.93,-4.211 1.207,-0.831 2.447,-1.248 3.721,-1.248 0.614,0 1.228,0.105 1.843,0.312 0.614,0.208 1.163,0.533 1.646,0.975 0.483,0.442 0.866,1.014 1.152,1.716 0.285,0.702 0.428,1.521 0.428,2.456 0,2.496 -0.22,4.836 -0.658,7.02 -0.439,2.186 -0.999,4.316 -1.679,6.396 -0.681,2.079 -1.438,4.173 -2.271,6.278 -0.833,2.106 -1.645,4.304 -2.434,6.592 z"
             id="path8296" />
        </g>
        <g
           style="fill:#ffffff"
           id="g8298" />
        <g
           style="fill:#ffffff"
           id="g8300" />
        <g
           style="fill:#ffffff"
           id="g8302" />
        <g
           style="fill:#ffffff"
           id="g8304" />
        <g
           style="fill:#ffffff"
           id="g8306" />
        <g
           style="fill:#ffffff"
           id="g8308" />
      </g>
    </g>
  </g>
</svg>
