<?xml version="1.0" encoding="UTF-8" standalone="no"?>
<svg
   xmlns:dc="http://purl.org/dc/elements/1.1/"
   xmlns:cc="http://creativecommons.org/ns#"
   xmlns:rdf="http://www.w3.org/1999/02/22-rdf-syntax-ns#"
   xmlns:svg="http://www.w3.org/2000/svg"
   xmlns="http://www.w3.org/2000/svg"
   xmlns:xlink="http://www.w3.org/1999/xlink"
   version="1.1"
   id="svg9208"
   viewBox="0 0 31.214838 42.91797"
   height="12.112405mm"
   width="8.8095207mm">
  <defs
     id="defs9210">
    <linearGradient
       gradientUnits="userSpaceOnUse"
       y2="139.21777"
       x2="245.83344"
       y1="114.5768"
       x1="246.48949"
       id="linearGradient7563"
       xlink:href="#linearGradient7557" />
    <linearGradient
       id="linearGradient7557">
      <stop
         id="stop7559"
         offset="0"
         style="stop-color:#f05134;stop-opacity:1;" />
      <stop
         id="stop7561"
         offset="1"
         style="stop-color:#e12d0f;stop-opacity:1" />
    </linearGradient>
  </defs>
  <metadata
     id="metadata9213">
    <rdf:RDF>
      <cc:Work
         rdf:about="">
        <dc:format>image/svg+xml</dc:format>
        <dc:type
           rdf:resource="http://purl.org/dc/dcmitype/StillImage" />
        <dc:title></dc:title>
      </cc:Work>
    </rdf:RDF>
  </metadata>
  <g
     transform="translate(-2.22873,-1.638529)"
     id="layer1">
    <g
       id="g8791"
       transform="translate(-227.9973,-94.661271)">
      <path
         style="fill:url(#linearGradient7563);fill-opacity:1;fill-rule:evenodd;stroke:none;stroke-width:1px;stroke-linecap:butt;stroke-linejoin:miter;stroke-opacity:1"
         d="m 245.83345,96.2998 a 15.60707,15.60707 0 0 0 -15.60742,15.60547 15.60707,15.60707 0 0 0 0.041,1.11914 c 0.83623,12.56323 15.56641,17.71422 15.56641,26.19336 0,-8.36334 14.32556,-13.49165 15.51953,-25.68555 a 15.60707,15.60707 0 0 0 0.0117,-0.11523 c 0.0447,-0.49311 0.0762,-0.99487 0.0762,-1.51172 A 15.60707,15.60707 0 0 0 245.83345,96.2998 Z"
         id="path6681" />
      <path
         style="opacity:1;fill:#ffffff;fill-opacity:1"
         d="m 243.11421,100.53663 -9.76754,10.00149 c -3.6984,3.69724 2.39447,3.38913 4.59927,4.78745 1.01943,0.66361 -3.27165,1.51681 -2.39446,2.39372 0.85347,0.87691 5.14455,1.68272 5.99802,2.53592 0.85348,0.8769 -1.73065,1.80121 -0.87718,2.67812 0.82977,0.87691 2.82121,0.0474 3.17682,2.03821 0.26079,1.46941 3.65098,0.73471 5.16826,-0.5214 0.94832,-0.80581 -1.63582,-0.80581 -0.78234,-1.68271 2.13368,-2.15672 4.03029,-0.97171 4.81265,-2.96252 0.42673,-1.06651 -3.22425,-1.82492 -2.25224,-2.51222 2.32335,-1.63532 10.8581,-2.46483 6.92264,-6.39907 l -10.12316,-10.35699 c -1.2565,-1.185 -3.31907,-1.185 -4.48074,0 z m 11.2137,19.26828 c 0,0.49771 3.86435,0.7821 3.65097,-0.11845 -0.30819,-1.5168 -3.22423,-1.39831 -3.65097,0.11845 z m -16.4768,2.63071 c 0.87719,0.75841 2.20481,-0.1659 2.63155,-1.23241 -0.85347,-1.1139 -4.00658,0.0711 -2.63155,1.23241 z m 16.00265,-1.58791 c -1.09056,0.99541 0.18966,2.03822 1.25651,1.35091 0.28449,-0.1896 -0.0237,-1.11391 -1.25651,-1.35091 z"
         id="path6683" />
    </g>
  </g>
</svg>
