<?xml version="1.0" encoding="UTF-8" standalone="no"?>
<svg
   xmlns:dc="http://purl.org/dc/elements/1.1/"
   xmlns:cc="http://creativecommons.org/ns#"
   xmlns:rdf="http://www.w3.org/1999/02/22-rdf-syntax-ns#"
   xmlns:svg="http://www.w3.org/2000/svg"
   xmlns="http://www.w3.org/2000/svg"
   version="1.1"
   id="svg6302"
   viewBox="0 0 31.214827 31.214827"
   width="8.8095179mm"
   height="8.8095179mm">
  <defs
     id="defs6308" />
  <metadata
     id="metadata6304">
    <rdf:RDF>
      <cc:Work
         rdf:about="">
        <dc:format>image/svg+xml</dc:format>
        <dc:type
           rdf:resource="http://purl.org/dc/dcmitype/StillImage" />
        <dc:title></dc:title>
      </cc:Work>
    </rdf:RDF>
  </metadata>
  <g
     transform="translate(-401.48438,54.968375)"
     id="g6230">
    <circle
       style="color:#000000;clip-rule:nonzero;display:inline;overflow:visible;visibility:visible;opacity:1;isolation:auto;mix-blend-mode:normal;color-interpolation:sRGB;color-interpolation-filters:linearRGB;solid-color:#000000;solid-opacity:1;fill:#1a1a1a;fill-opacity:1;fill-rule:nonzero;stroke:none;stroke-width:0.01;stroke-linecap:butt;stroke-linejoin:miter;stroke-miterlimit:4;stroke-dasharray:none;stroke-dashoffset:0;stroke-opacity:1;color-rendering:auto;image-rendering:auto;shape-rendering:auto;text-rendering:auto;enable-background:accumulate"
       id="path6194"
       cx="417.0918"
       cy="-39.360962"
       r="15.607413" />
    <path
       style="opacity:1;fill:#ffffff;fill-opacity:1"
       d="m 414.74512,-51.540698 -9.76754,10.001492 c -3.6984,3.697236 2.39447,3.389128 4.59927,4.787446 1.01943,0.663607 -3.27165,1.516815 -2.39446,2.393724 0.85347,0.876908 5.14455,1.682713 5.99802,2.53592 0.85348,0.876897 -1.73065,1.801209 -0.87718,2.678117 0.82977,0.876909 2.82121,0.04736 3.17682,2.038213 0.26079,1.469411 3.65098,0.734711 5.16826,-0.521398 0.94832,-0.805816 -1.63582,-0.805816 -0.78234,-1.682713 2.13368,-2.15672 4.03029,-0.971715 4.81265,-2.962524 0.42673,-1.066509 -3.22425,-1.824922 -2.25224,-2.512219 2.32335,-1.635322 10.8581,-2.464828 6.92264,-6.399067 l -10.12316,-10.356991 c -1.2565,-1.185 -3.31907,-1.185 -4.48074,0 z m 11.2137,19.268277 c 0,0.497708 3.86435,0.782102 3.65097,-0.118448 -0.30819,-1.516802 -3.22423,-1.398307 -3.65097,0.118448 z m -16.4768,2.630714 c 0.87719,0.758413 2.20481,-0.165899 2.63155,-1.232408 -0.85347,-1.1139 -4.00658,0.07109 -2.63155,1.232408 z m 16.00265,-1.587907 c -1.09056,0.995405 0.18966,2.038212 1.25651,1.350904 0.28449,-0.1896 -0.0237,-1.113912 -1.25651,-1.350904 z"
       id="path6202" />
  </g>
</svg>
