<?xml version="1.0" encoding="UTF-8" standalone="no"?>
<svg
   xmlns:dc="http://purl.org/dc/elements/1.1/"
   xmlns:cc="http://creativecommons.org/ns#"
   xmlns:rdf="http://www.w3.org/1999/02/22-rdf-syntax-ns#"
   xmlns:svg="http://www.w3.org/2000/svg"
   xmlns="http://www.w3.org/2000/svg"
   version="1.1"
   id="svg12749"
   viewBox="0 0 31.214827 31.214827"
   height="8.8095179mm"
   width="8.8095179mm">
  <defs
     id="defs12751" />
  <metadata
     id="metadata12754">
    <rdf:RDF>
      <cc:Work
         rdf:about="">
        <dc:format>image/svg+xml</dc:format>
        <dc:type
           rdf:resource="http://purl.org/dc/dcmitype/StillImage" />
        <dc:title></dc:title>
      </cc:Work>
    </rdf:RDF>
  </metadata>
  <g
     transform="translate(-158.6783,-171.0405)"
     id="layer1">
    <g
       id="g12238"
       transform="translate(-545.35345,-666.37894)">
      <circle
         r="15.607413"
         cy="853.02686"
         cx="719.63916"
         id="circle12164"
         style="color:#000000;clip-rule:nonzero;display:inline;overflow:visible;visibility:visible;opacity:1;isolation:auto;mix-blend-mode:normal;color-interpolation:sRGB;color-interpolation-filters:linearRGB;solid-color:#000000;solid-opacity:1;fill:#333333;fill-opacity:1;fill-rule:evenodd;stroke:none;stroke-width:1px;stroke-linecap:butt;stroke-linejoin:miter;stroke-miterlimit:4;stroke-dasharray:none;stroke-dashoffset:0;stroke-opacity:1;color-rendering:auto;image-rendering:auto;shape-rendering:auto;text-rendering:auto;enable-background:accumulate" />
      <g
         transform="translate(237,-122)"
         style="font-style:normal;font-variant:normal;font-weight:bold;font-stretch:normal;font-size:20.84570122px;line-height:125%;font-family:sans-serif;-inkscape-font-specification:'sans-serif Bold';letter-spacing:0px;word-spacing:0px;fill:#ffffff;fill-opacity:1;stroke:none;stroke-width:1px;stroke-linecap:butt;stroke-linejoin:miter;stroke-opacity:1"
         id="g12166">
        <path
           d="m 480.64772,982.3555 0,2.29017 -2.20875,0 q -2.21892,0 -3.23678,-0.89571 -1.01786,-0.89571 -1.01786,-2.86018 l 0,-1.95428 q 0,-1.52679 -0.54964,-2.11714 -0.54964,-0.60054 -1.995,-0.60054 l -0.62089,0 0,-2.26982 0.62089,0 q 1.44536,0 1.995,-0.59036 0.54964,-0.59035 0.54964,-2.11714 l 0,-2.0866 q 0,-1.96447 1.01786,-2.85 1.01786,-0.89571 3.23678,-0.89571 l 2.20875,0 0,2.29017 -0.70232,0 q -1.43518,0 -1.87286,0.44786 -0.4275,0.43768 -0.4275,1.88303 l 0,1.68965 q 0,1.59803 -0.45803,2.32071 -0.45804,0.72268 -1.57768,0.97714 1.12982,0.27482 1.57768,0.9975 0.45803,0.72268 0.45803,2.31053 l 0,1.68965 q 0,1.45553 0.4275,1.89321 0.43768,0.44786 1.87286,0.44786 l 0.70232,0 z"
           id="path12168" />
        <path
           d="m 491.0095,984.64567 -6.32089,0 0,-2.29018 2.86018,0 0,-14.65713 -2.86018,0 0,-2.29017 6.32089,0 z"
           id="path12170" />
      </g>
    </g>
  </g>
</svg>
