<?xml version="1.0" encoding="UTF-8" standalone="no"?>
<!-- Created with Inkscape (http://www.inkscape.org/) -->

<svg
   xmlns:dc="http://purl.org/dc/elements/1.1/"
   xmlns:cc="http://creativecommons.org/ns#"
   xmlns:rdf="http://www.w3.org/1999/02/22-rdf-syntax-ns#"
   xmlns:svg="http://www.w3.org/2000/svg"
   xmlns="http://www.w3.org/2000/svg"
   xmlns:sodipodi="http://sodipodi.sourceforge.net/DTD/sodipodi-0.dtd"
   xmlns:inkscape="http://www.inkscape.org/namespaces/inkscape"
   width="8.8095179mm"
   height="8.8095179mm"
   viewBox="0 0 8.8095179 8.8095179"
   version="1.1"
   id="svg8111"
   inkscape:version="0.92.1 r15371"
   sodipodi:docname="laravel-pastille.svg">
  <defs
     id="defs8105" />
  <sodipodi:namedview
     id="base"
     pagecolor="#ffffff"
     bordercolor="#666666"
     borderopacity="1.0"
     inkscape:pageopacity="0.0"
     inkscape:pageshadow="2"
     inkscape:zoom="0.35"
     inkscape:cx="-63.352093"
     inkscape:cy="-129.06638"
     inkscape:document-units="mm"
     inkscape:current-layer="layer1"
     showgrid="false"
     fit-margin-top="0"
     fit-margin-left="0"
     fit-margin-right="0"
     fit-margin-bottom="0"
     inkscape:window-width="1366"
     inkscape:window-height="704"
     inkscape:window-x="0"
     inkscape:window-y="27"
     inkscape:window-maximized="1" />
  <metadata
     id="metadata8108">
    <rdf:RDF>
      <cc:Work
         rdf:about="">
        <dc:format>image/svg+xml</dc:format>
        <dc:type
           rdf:resource="http://purl.org/dc/dcmitype/StillImage" />
        <dc:title></dc:title>
      </cc:Work>
    </rdf:RDF>
  </metadata>
  <g
     inkscape:label="Calque 1"
     inkscape:groupmode="layer"
     id="layer1"
     transform="translate(-122.59524,-105.875)">
    <g
       transform="matrix(0.28222223,0,0,0.28222223,-90.852238,21.960198)"
       id="g7895">
      <circle
         style="color:#000000;clip-rule:nonzero;display:inline;overflow:visible;visibility:visible;opacity:1;isolation:auto;mix-blend-mode:normal;color-interpolation:sRGB;color-interpolation-filters:linearRGB;solid-color:#000000;solid-opacity:1;fill:#f94f3b;fill-opacity:1;fill-rule:evenodd;stroke:none;stroke-width:1px;stroke-linecap:butt;stroke-linejoin:miter;stroke-miterlimit:4;stroke-dasharray:none;stroke-dashoffset:0;stroke-opacity:1;color-rendering:auto;image-rendering:auto;shape-rendering:auto;text-rendering:auto;enable-background:accumulate"
         id="circle7665"
         cx="771.91736"
         cy="312.94333"
         r="15.607413" />
      <path
         inkscape:connector-curvature="0"
         id="path7792"
         d="m 775.54166,322.21682 c -0.18289,-0.0632 -0.36018,-0.21844 -0.52488,-0.45947 -0.24933,-0.36488 -1.1099,-1.87027 -2.42651,-4.24469 -0.31454,-0.56729 -0.57772,-1.03763 -0.58482,-1.04521 -0.008,-0.009 -0.56842,0.13101 -1.40725,0.34969 -3.21784,0.8389 -4.24869,1.09973 -4.43624,1.12251 -0.35474,0.0431 -0.65432,-0.0473 -0.88445,-0.26692 -0.063,-0.0601 -0.14176,-0.15107 -0.17492,-0.202 -0.0332,-0.0509 -0.16767,-0.32521 -0.29887,-0.60954 -0.13119,-0.28431 -0.7411,-1.60274 -1.35531,-2.92982 -2.33353,-5.04176 -3.72095,-8.0529 -3.94941,-8.57145 -0.20678,-0.46934 -0.23546,-0.72196 -0.1018,-0.89713 0.045,-0.0591 0.15184,-0.11866 0.25387,-0.14152 0.0892,-0.02 3.17112,-0.27494 4.87684,-0.40344 1.13423,-0.0854 1.19789,-0.0716 1.46581,0.31717 0.0411,0.0597 1.52265,2.53002 3.29234,5.48974 1.76967,2.9597 3.22938,5.39371 3.2438,5.40889 0.0255,0.0267 0.15101,-0.002 4.06028,-0.93878 2.21873,-0.53155 4.03974,-0.97208 4.04667,-0.97898 0.007,-0.007 -0.60069,-0.88143 -1.35028,-1.94339 -0.84142,-1.19207 -1.3716,-1.95638 -1.38566,-1.99764 -0.0449,-0.13173 0.008,-0.22908 0.16464,-0.30354 0.0508,-0.0241 0.14271,-0.0542 0.20439,-0.0669 0.0616,-0.0126 0.96303,-0.16535 2.00304,-0.33947 2.04176,-0.34185 2.11406,-0.35122 2.25714,-0.29266 0.0923,0.0378 0.23004,0.13947 0.33051,0.24397 0.10912,0.11353 0.22072,0.24978 1.11213,1.35785 1.49696,1.86078 1.79559,2.23116 1.96125,2.4325 0.19994,0.24302 0.23572,0.30412 0.22355,0.38211 -0.0111,0.0693 -0.0953,0.14889 -0.1985,0.18703 -0.0609,0.0224 -3.69733,0.99695 -3.72034,0.99695 -0.0344,0 0.0853,0.16896 0.7427,1.04995 1.49393,2.00206 2.34487,3.14965 2.49805,3.36888 0.1069,0.15291 0.14416,0.23497 0.14457,0.31792 0,0.15422 -0.12235,0.24116 -0.58777,0.415 -1.40718,0.52566 -7.89554,2.84674 -8.53768,3.0542 -0.50545,0.1633 -0.77245,0.20181 -0.95685,0.13805 z m 0.73321,-1.43169 c 0.29162,-0.1029 1.33796,-0.45872 4.65575,-1.58321 1.6566,-0.56147 3.0478,-1.03457 3.0915,-1.05132 0.12163,-0.0466 0.15219,-0.0713 0.15219,-0.12289 0,-0.0697 0.11638,0.095 -1.33005,-1.8828 -0.8456,-1.15627 -1.26731,-1.7366 -1.42557,-1.96173 -0.0389,-0.0553 -0.0834,-0.10756 -0.099,-0.11586 -0.0367,-0.0196 -0.13671,-0.0193 -0.18905,5.9e-4 -0.0226,0.009 -1.77369,0.46631 -3.89119,1.0171 -2.11755,0.55082 -3.90274,1.01553 -3.96714,1.0327 -0.0643,0.0171 -0.12042,0.0399 -0.12451,0.0507 -0.008,0.02 0.0409,0.10535 1.03822,1.82269 1.13295,1.95088 1.50146,2.57337 1.60001,2.70282 0.0716,0.094 0.17074,0.15972 0.24108,0.15972 0.0297,0 0.14126,-0.0308 0.24782,-0.0684 z m -7.45963,-4.72185 c 1.36474,-0.32566 2.4933,-0.59575 2.50793,-0.60019 0.0503,-0.0154 0.0741,-0.0719 0.0568,-0.13534 -0.0156,-0.0572 -6.0962,-10.57154 -6.16127,-10.65384 l -0.0344,-0.0432 -0.15778,0.01 c -0.0868,0.004 -1.002,0.0832 -2.03379,0.17375 -1.0318,0.0905 -1.98519,0.1739 -2.11865,0.18527 -0.15367,0.0131 -0.25158,0.0281 -0.26692,0.0407 -0.0176,0.0147 -0.0223,0.0363 -0.0171,0.0805 0.004,0.0384 0.21619,0.48924 0.57869,1.2338 1.51764,3.11703 4.87924,10.05942 4.95065,10.22413 0.0371,0.0859 0.0491,0.0929 0.13924,0.0844 0.0411,-0.004 1.19135,-0.27355 2.55613,-0.59922 z m 14.24546,-3.42492 c 1.86485,-0.45885 1.72178,-0.42099 1.77681,-0.47016 0.0399,-0.0357 0.0437,-0.0455 0.0295,-0.0765 -0.009,-0.0196 -0.23358,-0.31129 -0.49924,-0.64822 -0.71304,-0.90441 -1.60468,-2.03968 -1.74617,-2.22332 -0.12396,-0.16089 -0.2136,-0.23535 -0.28332,-0.23535 -0.0176,0 -0.20881,0.0332 -0.4247,0.0735 -0.42578,0.0799 -2.27908,0.41345 -2.58232,0.46471 -0.20448,0.0345 -0.2471,0.0561 -0.23167,0.11773 0.0119,0.0472 -0.10346,-0.11377 1.21602,1.69817 1.32599,1.82086 1.2119,1.66664 1.23336,1.6669 0.01,10e-5 0.68956,-0.16534 1.51172,-0.36765 z"
         style="fill:#ffffff;stroke-width:0.01494803" />
    </g>
  </g>
</svg>
