<?xml version="1.0" encoding="UTF-8" standalone="no"?>
<svg
   xmlns:dc="http://purl.org/dc/elements/1.1/"
   xmlns:cc="http://creativecommons.org/ns#"
   xmlns:rdf="http://www.w3.org/1999/02/22-rdf-syntax-ns#"
   xmlns:svg="http://www.w3.org/2000/svg"
   xmlns="http://www.w3.org/2000/svg"
   xmlns:xlink="http://www.w3.org/1999/xlink"
   version="1.1"
   id="svg8356"
   viewBox="0 0 31.214827 31.214827"
   width="8.8095179mm"
   height="8.8095179mm">
  <defs
     id="defs8362">
    <linearGradient
       y2="340.0723"
       x2="651.04474"
       y1="366.76556"
       x1="625.66351"
       gradientUnits="userSpaceOnUse"
       id="linearGradient8237"
       xlink:href="#linearGradient8206" />
    <linearGradient
       id="linearGradient8206">
      <stop
         id="stop8208"
         offset="0"
         style="stop-color:#b2df5e;stop-opacity:1;" />
      <stop
         id="stop8210"
         offset="1"
         style="stop-color:#cbeb91;stop-opacity:1" />
    </linearGradient>
  </defs>
  <metadata
     id="metadata8358">
    <rdf:RDF>
      <cc:Work
         rdf:about="">
        <dc:format>image/svg+xml</dc:format>
        <dc:type
           rdf:resource="http://purl.org/dc/dcmitype/StillImage" />
        <dc:title></dc:title>
      </cc:Work>
    </rdf:RDF>
  </metadata>
  <g
     id="g8247"
     transform="translate(-625.30995,-337.33592)">
    <circle
       style="color:#000000;clip-rule:nonzero;display:inline;overflow:visible;visibility:visible;opacity:1;isolation:auto;mix-blend-mode:normal;color-interpolation:sRGB;color-interpolation-filters:linearRGB;solid-color:#000000;solid-opacity:1;fill:url(#linearGradient8237);fill-opacity:1;fill-rule:evenodd;stroke:none;stroke-width:1px;stroke-linecap:butt;stroke-linejoin:miter;stroke-miterlimit:4;stroke-dasharray:none;stroke-dashoffset:0;stroke-opacity:1;color-rendering:auto;image-rendering:auto;shape-rendering:auto;text-rendering:auto;enable-background:accumulate"
       id="circle8184"
       cx="640.91736"
       cy="352.94333"
       r="15.607413" />
    <path
       id="path8239"
       d="m 628.76778,368.46437 c 0.14275,-0.0864 1.43561,-1.05227 1.43561,-1.05227 0.697,-0.58061 3.79684,-2.7505 5.48633,-3.38346 1.68952,-0.63299 6.14485,-2.01424 6.48763,-2.17305 0.34278,-0.15881 1.02403,-0.64454 1.34847,-0.91419 0.32445,-0.26965 1.55185,-2.79315 2.03113,-3.69303 0.47924,-0.89989 1.82425,-2.66549 1.82425,-2.66549 0,0 0.94637,0.47549 2.04558,-0.1658 1.09922,-0.64129 2.11222,-2.23021 2.28389,-3.11452 0.0447,-0.22987 0.0678,-0.61509 0.0447,-1.08432 l 2.34328,-1.48739 -0.17479,-0.37795 1.10962,-2.64869 0.40715,-0.38453 -0.4275,-0.27893 -1.52529,3.75192 -1.75504,0.96391 c 0.0541,-1.12968 -0.36226,-3.01783 -0.83547,-3.9849 -0.71792,-1.46735 -5.9865,-7.34843 -5.9865,-7.34843 0,0 -3.24444,6.15925 -3.33023,8.79615 -0.0858,2.63687 0.62514,4.13288 0.62514,4.13288 0,0 -4.46032,0.16498 -4.69931,0.3341 -0.23899,0.16911 1.93912,4.41011 3.71731,5.33292 1.77815,0.92283 3.634,0.72562 3.634,0.72562 l -1.39049,2.01262 -0.18696,-0.22819 -0.0676,0.0897 0.0908,0.31084 -0.39333,0.92101 c 0,0 -1.09167,0.73427 -1.82044,0.9805 -0.72877,0.24626 -4.78779,1.4363 -4.78779,1.4363 0,0 0.32291,-0.63451 0.20834,-0.66266 -0.1146,-0.0281 -0.59734,0.0203 -0.59734,0.0203 l -0.40513,0.6599 c 0,0 -4.75264,3.02452 -5.00571,3.25093 -0.25306,0.2264 -0.38701,-0.15582 -0.38701,-0.15582 0,0 -0.66395,0.35331 -0.90619,0.59756 -0.24226,0.24424 -0.53986,0.96096 -0.53986,0.96096 z"
       style="fill:#ffffff;fill-rule:evenodd;stroke:none;stroke-width:0.11799837px;stroke-linecap:butt;stroke-linejoin:miter;stroke-opacity:1" />
  </g>
</svg>
