<?xml version="1.0" encoding="UTF-8" standalone="no"?>
<svg
   xmlns:dc="http://purl.org/dc/elements/1.1/"
   xmlns:cc="http://creativecommons.org/ns#"
   xmlns:rdf="http://www.w3.org/1999/02/22-rdf-syntax-ns#"
   xmlns:svg="http://www.w3.org/2000/svg"
   xmlns="http://www.w3.org/2000/svg"
   xmlns:xlink="http://www.w3.org/1999/xlink"
   version="1.1"
   id="svg11551"
   viewBox="0 0 31.214841 42.91797"
   height="12.112405mm"
   width="8.8095217mm">
  <defs
     id="defs11553">
    <linearGradient
       y2="137.78625"
       x2="379.57394"
       y1="115.09216"
       x1="379.57394"
       gradientTransform="translate(-170.93491,665.5166)"
       gradientUnits="userSpaceOnUse"
       id="linearGradient8568"
       xlink:href="#linearGradient7557" />
    <linearGradient
       id="linearGradient7557">
      <stop
         id="stop7559"
         offset="0"
         style="stop-color:#f05134;stop-opacity:1;" />
      <stop
         id="stop7561"
         offset="1"
         style="stop-color:#e12d0f;stop-opacity:1" />
    </linearGradient>
  </defs>
  <metadata
     id="metadata11556">
    <rdf:RDF>
      <cc:Work
         rdf:about="">
        <dc:format>image/svg+xml</dc:format>
        <dc:type
           rdf:resource="http://purl.org/dc/dcmitype/StillImage" />
        <dc:title></dc:title>
      </cc:Work>
    </rdf:RDF>
  </metadata>
  <g
     transform="translate(-98.678294,-113.76036)"
     id="layer1">
    <g
       id="g9076"
       transform="translate(-94.353456,-648.05604)">
      <path
         style="color:#000000;clip-rule:nonzero;display:inline;overflow:visible;visibility:visible;opacity:1;isolation:auto;mix-blend-mode:normal;color-interpolation:sRGB;color-interpolation-filters:linearRGB;solid-color:#000000;solid-opacity:1;fill:url(#linearGradient8568);fill-opacity:1;fill-rule:evenodd;stroke:none;stroke-width:1px;stroke-linecap:butt;stroke-linejoin:miter;stroke-miterlimit:4;stroke-dasharray:none;stroke-dashoffset:0;stroke-opacity:1;color-rendering:auto;image-rendering:auto;shape-rendering:auto;text-rendering:auto;enable-background:accumulate"
         d="m 208.63917,761.8164 a 15.60707,15.60707 0 0 0 -15.60742,15.60547 15.60707,15.60707 0 0 0 0.041,1.11914 c 0.83623,12.56323 15.56641,17.71422 15.56641,26.19336 0,-8.36334 14.32556,-13.49165 15.51953,-25.68555 a 15.60707,15.60707 0 0 0 0.0117,-0.11523 c 0.0447,-0.49311 0.0762,-0.99487 0.0762,-1.51172 A 15.60707,15.60707 0 0 0 208.63917,761.8164 Z"
         id="path8564" />
      <path
         style="fill:#ffffff"
         d="m 204.62166,789.46227 c -0.11173,-0.0205 -0.67853,-0.22108 -1.25954,-0.44582 -0.58101,-0.22475 -1.44034,-0.4988 -1.90962,-0.60901 -2.22631,-0.52285 -2.46856,-0.59286 -2.65399,-0.76706 -0.23235,-0.21829 -0.2372,-0.39435 -0.0276,-1.00353 0.19804,-0.57562 0.20414,-0.88699 0.0319,-1.62521 -0.12118,-0.51918 -0.12161,-0.59546 -0.005,-0.87407 0.15366,-0.36703 0.37556,-0.46673 1.03884,-0.46673 0.729,0 0.91469,-0.13249 1.28585,-0.91746 0.285,-0.60274 0.31816,-0.74161 0.34365,-1.43909 0.0267,-0.7316 0.0477,-0.81023 0.40158,-1.50332 0.20535,-0.40224 0.60424,-1.31229 0.88643,-2.02234 0.39337,-0.98982 0.62052,-1.43592 0.97368,-1.91222 0.25333,-0.34167 0.76835,-1.07715 1.14449,-1.63438 l 0.68387,-1.01316 -10e-4,-0.77198 c -4.9e-4,-0.42459 -0.0172,-1.63131 -0.0372,-2.6816 -0.0306,-1.61042 -0.0147,-1.99568 0.10147,-2.45885 0.27642,-1.1019 0.70519,-1.66865 1.56184,-2.06441 0.41501,-0.19173 0.61856,-0.23003 1.36797,-0.2574 1.46676,-0.0536 2.34955,0.21418 3.16579,0.96018 0.72955,0.66676 1.03693,1.57314 1.15785,3.41418 0.0279,0.42459 0.10272,1.13624 0.16629,1.58144 0.10227,0.71609 0.17303,0.92232 0.61346,1.78773 0.58419,1.1479 0.96877,1.75978 1.76604,2.80977 1.04616,1.37778 1.5686,2.60585 1.88269,4.42556 0.20568,1.19163 0.1673,1.66584 -0.17691,2.18551 -0.26466,0.39956 -0.25136,0.53672 0.052,0.53672 0.2501,0 0.44626,0.28333 0.44853,0.64785 0.004,0.6076 0.39171,1.12687 1.31788,1.76408 1.05247,0.72411 0.79288,1.16629 -1.32919,2.26408 -0.81939,0.42389 -1.17713,0.66854 -1.78141,1.21829 -0.47287,0.43019 -0.86504,0.71814 -1.04685,0.76865 -0.48084,0.13357 -1.38794,0.0965 -1.75869,-0.0719 -0.30412,-0.13813 -0.41142,-0.24254 -0.84432,-0.82154 l -0.15189,-0.20314 -2.30275,0 c -2.671,0 -2.83609,0.0289 -3.63856,0.63671 -0.53491,0.40517 -0.96592,0.63241 -1.16035,0.61176 -0.0573,-0.006 -0.1956,-0.0278 -0.30734,-0.0482 z m 1.01952,-0.91823 c 0.34725,-0.32444 0.47176,-0.64216 0.47671,-1.21647 0.006,-0.70172 -0.16279,-1.0496 -1.41594,-2.91727 -1.05936,-1.57884 -1.91133,-2.5601 -2.30605,-2.656 -0.53182,-0.1292 -0.96015,0.28793 -1.05873,1.03101 -0.12451,0.93863 -0.38249,1.14165 -1.42154,1.11872 -0.45102,-0.01 -0.77883,0.0185 -0.83259,0.0722 -0.14151,0.14152 -0.10432,0.44517 0.12463,1.01746 0.2884,0.72087 0.27727,1.09985 -0.0498,1.69471 -0.20611,0.37494 -0.24437,0.50911 -0.17671,0.61977 0.0626,0.10248 0.8094,0.32418 2.7212,0.80789 2.1907,0.55427 2.72664,0.66344 3.1794,0.64765 0.45156,-0.0158 0.58124,-0.0533 0.75938,-0.21972 z m 9.24815,0.0295 c 0.14056,-0.0719 0.42012,-0.26658 0.62124,-0.43252 0.69,-0.56932 1.26072,-0.8885 2.11277,-1.1816 1.28497,-0.44203 1.71931,-0.78984 1.59665,-1.27856 -0.0492,-0.19626 -0.32396,-0.35297 -0.95347,-0.54395 -0.3324,-0.10085 -0.67391,-0.4252 -0.80053,-0.76032 -0.0475,-0.12581 -0.0864,-0.47787 -0.0864,-0.78234 0,-0.63897 -0.0672,-0.73025 -0.55164,-0.74924 -0.26963,-0.0106 -0.38866,0.0372 -0.63748,0.25564 -0.97754,0.85828 -1.9919,0.69924 -2.48378,-0.38944 -0.18023,-0.39889 -0.30277,-0.47426 -0.55318,-0.34024 -0.40412,0.21628 -0.51342,1.10283 -0.28387,2.30248 0.14781,0.77243 0.15257,1.15927 0.0268,2.17542 -0.10975,0.88668 -0.0515,1.13916 0.35013,1.51826 0.45188,0.4265 1.06284,0.50327 1.64279,0.20641 z m -5.31078,-1.81764 c 0.85914,-0.13483 1.40523,-0.46128 2.19403,-1.31159 l 0.69072,-0.74459 0.0406,-1.11752 c 0.0379,-1.04246 0.0539,-1.13161 0.23763,-1.32705 0.10835,-0.11523 0.27943,-0.20951 0.38018,-0.20951 0.40041,0 0.43858,-0.14514 0.43858,-1.66764 0,-0.77675 -0.0386,-1.60604 -0.0858,-1.84287 -0.0472,-0.23684 -0.33657,-0.96085 -0.64307,-1.6089 -0.3065,-0.64805 -0.65721,-1.50147 -0.77937,-1.89649 -0.15016,-0.4856 -0.36299,-0.92991 -0.6571,-1.37186 -0.23925,-0.35951 -0.435,-0.70151 -0.435,-0.76 0,-0.0585 -0.0322,-0.12621 -0.0714,-0.15049 -0.1099,-0.0679 -1.52514,0.72662 -2.17231,1.21957 -0.48746,0.3713 -0.63137,0.44019 -0.91953,0.44019 -0.45936,0 -0.56967,-0.0716 -1.06105,-0.68917 -0.41462,-0.52106 -0.57005,-0.63584 -0.57005,-0.42096 0,0.0598 -0.17645,0.47121 -0.39211,0.91419 -0.21565,0.44297 -0.51174,1.2442 -0.65797,1.78052 -0.14624,0.53632 -0.41115,1.31751 -0.5887,1.73598 -0.51684,1.21813 -0.63652,1.81015 -0.63652,3.14883 0,0.70372 0.0369,1.24246 0.0936,1.36701 0.0838,0.184 1.38816,1.3345 2.08526,1.83934 0.33331,0.2414 0.58395,0.63531 0.58395,0.91781 0,0.13063 -0.11219,0.33781 -0.28873,0.53322 l -0.28872,0.31959 0.71534,0.42359 c 0.39344,0.23298 0.80676,0.45181 0.9185,0.48627 0.29724,0.0917 1.26158,0.0879 1.86898,-0.007 z m 0.0406,-13.8406 c 0.6704,-0.30218 1.2829,-0.62441 1.36112,-0.71606 0.0803,-0.0941 0.1422,-0.29876 0.1422,-0.47009 0,-0.38191 -0.13586,-0.50278 -0.81506,-0.72512 -0.29186,-0.0955 -0.66259,-0.26336 -0.82385,-0.37294 -0.29823,-0.20265 -1.03805,-0.36646 -1.66023,-0.36761 -0.23627,-4e-4 -0.4371,0.0698 -0.69071,0.24169 -0.38824,0.26307 -0.47948,0.29285 -0.47948,0.1565 0,-0.0488 -0.0731,-0.18173 -0.16252,-0.29537 -0.10585,-0.13456 -0.16252,-0.32966 -0.16252,-0.55945 0,-0.28821 0.0378,-0.37762 0.20648,-0.48813 0.29719,-0.19473 0.57013,-0.0472 0.76842,0.41542 0.26872,0.62688 0.48546,0.36584 0.3276,-0.39455 -0.13917,-0.67038 -0.56781,-1.00314 -1.02427,-0.79517 -0.61562,0.2805 -0.71727,1.56555 -0.18212,2.30218 0.083,0.11429 0.0632,0.17292 -0.12025,0.35644 -0.31342,0.31341 -0.27829,0.5125 0.16635,0.9428 0.47176,0.45654 0.65536,0.55484 1.03631,0.55484 0.64878,0 2.68344,-0.63428 2.83827,-0.88479 0.0877,-0.14197 0.30525,-0.10727 0.27566,0.044 -0.0166,0.0849 -0.28042,0.23028 -0.71698,0.39517 -0.3799,0.14347 -0.89184,0.35693 -1.13765,0.47435 -0.37653,0.17985 -0.55895,0.21361 -1.15797,0.21428 -0.40157,4.9e-4 -0.71103,0.0349 -0.71103,0.0791 0,0.0431 0.13713,0.17346 0.30473,0.28973 0.49113,0.34071 0.94623,0.26593 2.4175,-0.39723 z m 1.42952,-2.29575 c 0.15167,-0.18274 0.1323,-0.88432 -0.0384,-1.39036 -0.17329,-0.51382 -0.4958,-0.80694 -0.96491,-0.87699 -0.4648,-0.0694 -0.7434,0.0531 -0.99896,0.43929 -0.27262,0.41197 -0.37093,1.21392 -0.16931,1.38124 0.18416,0.15284 0.37636,0.0522 0.37636,-0.19707 0,-0.61566 0.51065,-0.9295 1.05467,-0.64818 0.29059,0.15027 0.35602,0.34592 0.286,0.8551 -0.0301,0.21881 -0.0311,0.43609 -0.002,0.48284 0.079,0.12781 0.3338,0.10221 0.45671,-0.0459 z"
         id="path8504" />
    </g>
  </g>
</svg>
