<?xml version="1.0" encoding="UTF-8" standalone="no"?>
<svg
   xmlns:dc="http://purl.org/dc/elements/1.1/"
   xmlns:cc="http://creativecommons.org/ns#"
   xmlns:rdf="http://www.w3.org/1999/02/22-rdf-syntax-ns#"
   xmlns:svg="http://www.w3.org/2000/svg"
   xmlns="http://www.w3.org/2000/svg"
   xmlns:xlink="http://www.w3.org/1999/xlink"
   version="1.1"
   id="svg9213"
   viewBox="0 0 31.214827 31.214827"
   width="8.8095179mm"
   height="8.8095179mm">
  <defs
     id="defs9219">
    <linearGradient
       y2="768.24396"
       x2="55.320343"
       y1="787.16119"
       x1="29.69243"
       gradientUnits="userSpaceOnUse"
       id="linearGradient6989"
       xlink:href="#linearGradient6958" />
    <linearGradient
       id="linearGradient6958">
      <stop
         id="stop6960"
         offset="0"
         style="stop-color:#671d5e;stop-opacity:1;" />
      <stop
         id="stop6962"
         offset="1"
         style="stop-color:#c5482d;stop-opacity:1" />
    </linearGradient>
  </defs>
  <metadata
     id="metadata9215">
    <rdf:RDF>
      <cc:Work
         rdf:about="">
        <dc:format>image/svg+xml</dc:format>
        <dc:type
           rdf:resource="http://purl.org/dc/dcmitype/StillImage" />
        <dc:title></dc:title>
      </cc:Work>
    </rdf:RDF>
  </metadata>
  <g
     id="g9134"
     transform="translate(-27.031732,-762.19245)">
    <circle
       style="color:#000000;clip-rule:nonzero;display:inline;overflow:visible;visibility:visible;opacity:1;isolation:auto;mix-blend-mode:normal;color-interpolation:sRGB;color-interpolation-filters:linearRGB;solid-color:#000000;solid-opacity:1;fill:url(#linearGradient6989);fill-opacity:1;fill-rule:evenodd;stroke:none;stroke-width:1px;stroke-linecap:butt;stroke-linejoin:miter;stroke-miterlimit:4;stroke-dasharray:none;stroke-dashoffset:0;stroke-opacity:1;color-rendering:auto;image-rendering:auto;shape-rendering:auto;text-rendering:auto;enable-background:accumulate"
       id="circle6937"
       cx="42.639145"
       cy="777.79987"
       r="15.607413" />
    <path
       style="fill:#ffffff"
       d="m 38.621657,789.20179 c -0.11173,-0.0205 -0.678522,-0.22108 -1.259535,-0.44582 -0.581012,-0.22475 -1.440343,-0.4988 -1.909625,-0.60901 -2.226311,-0.52285 -2.46856,-0.59286 -2.653988,-0.76706 -0.23235,-0.21829 -0.237195,-0.39435 -0.0276,-1.00353 0.198046,-0.57562 0.204143,-0.88699 0.03185,-1.62521 -0.121179,-0.51918 -0.121614,-0.59546 -0.0047,-0.87407 0.153666,-0.36703 0.375565,-0.46673 1.038845,-0.46673 0.729,0 0.91469,-0.13249 1.28585,-0.91746 0.284996,-0.60274 0.318158,-0.74161 0.343645,-1.43909 0.02671,-0.7316 0.04772,-0.81023 0.401577,-1.50332 0.205353,-0.40224 0.604248,-1.31229 0.886432,-2.02234 0.393374,-0.98982 0.620522,-1.43592 0.973679,-1.91222 0.253338,-0.34167 0.768358,-1.07715 1.144489,-1.63438 l 0.683875,-1.01316 -0.001,-0.77198 c -4.87e-4,-0.42459 -0.01723,-1.63131 -0.03719,-2.6816 -0.03064,-1.61042 -0.01472,-1.99568 0.101465,-2.45885 0.276426,-1.1019 0.705198,-1.66865 1.561842,-2.06441 0.415017,-0.19173 0.618563,-0.23003 1.36797,-0.2574 1.466758,-0.0536 2.349549,0.21418 3.165792,0.96018 0.72955,0.66676 1.036928,1.57314 1.157846,3.41418 0.02787,0.42459 0.102721,1.13624 0.166299,1.58144 0.102265,0.71609 0.17303,0.92232 0.613457,1.78773 0.584186,1.1479 0.968771,1.75978 1.766043,2.80977 1.046157,1.37778 1.568593,2.60585 1.882686,4.42556 0.205683,1.19163 0.1673,1.66584 -0.176916,2.18551 -0.264657,0.39956 -0.251358,0.53672 0.05206,0.53672 0.250096,0 0.446256,0.28333 0.448529,0.64785 0.0037,0.6076 0.391704,1.12687 1.317875,1.76408 1.052474,0.72411 0.792882,1.16629 -1.329189,2.26408 -0.819391,0.42389 -1.177126,0.66854 -1.781405,1.21829 -0.472871,0.43019 -0.86504,0.71814 -1.046859,0.76865 -0.480832,0.13357 -1.387938,0.0965 -1.758689,-0.0719 -0.30412,-0.13813 -0.411414,-0.24254 -0.844319,-0.82154 l -0.151889,-0.20314 -2.302754,0 c -2.670996,0 -2.836085,0.0289 -3.638552,0.63671 -0.534914,0.40517 -0.965923,0.63241 -1.160355,0.61176 -0.0573,-0.006 -0.1956,-0.0278 -0.307336,-0.0482 z m 1.019522,-0.91823 c 0.347249,-0.32444 0.47176,-0.64216 0.476715,-1.21647 0.0061,-0.70172 -0.16279,-1.0496 -1.415945,-2.91727 -1.059356,-1.57884 -1.911327,-2.5601 -2.306053,-2.656 -0.531813,-0.1292 -0.96015,0.28793 -1.058723,1.03101 -0.124516,0.93863 -0.382489,1.14165 -1.421544,1.11872 -0.451023,-0.01 -0.778828,0.0185 -0.832585,0.0722 -0.141514,0.14152 -0.104319,0.44517 0.124631,1.01746 0.288396,0.72087 0.27727,1.09985 -0.04976,1.69471 -0.206118,0.37494 -0.244376,0.50911 -0.176718,0.61977 0.06265,0.10248 0.809403,0.32418 2.721202,0.80789 2.190703,0.55427 2.726643,0.66344 3.1794,0.64765 0.451562,-0.0158 0.581238,-0.0533 0.75938,-0.21972 z m 9.24815,0.0295 c 0.140566,-0.0719 0.420119,-0.26658 0.62124,-0.43252 0.690004,-0.56932 1.260719,-0.8885 2.112774,-1.1816 1.284965,-0.44203 1.719305,-0.78984 1.596643,-1.27856 -0.04924,-0.19626 -0.323956,-0.35297 -0.953467,-0.54395 -0.332404,-0.10085 -0.673912,-0.4252 -0.800529,-0.76032 -0.04751,-0.12581 -0.08643,-0.47787 -0.08643,-0.78234 0,-0.63897 -0.06721,-0.73025 -0.551638,-0.74924 -0.269628,-0.0106 -0.388665,0.0372 -0.637483,0.25564 -0.977535,0.85828 -1.991898,0.69924 -2.483782,-0.38944 -0.180227,-0.39889 -0.302763,-0.47426 -0.553178,-0.34024 -0.404122,0.21628 -0.513422,1.10283 -0.283865,2.30248 0.14781,0.77243 0.152571,1.15927 0.02682,2.17542 -0.109756,0.88668 -0.05154,1.13916 0.350124,1.51826 0.451887,0.4265 1.06284,0.50327 1.642795,0.20641 z m -5.310778,-1.81764 c 0.859141,-0.13483 1.405233,-0.46128 2.194034,-1.31159 l 0.690716,-0.74459 0.04065,-1.11752 c 0.03792,-1.04246 0.05386,-1.13161 0.237629,-1.32705 0.108352,-0.11523 0.279433,-0.20951 0.380185,-0.20951 0.400404,0 0.438572,-0.14514 0.438572,-1.66764 0,-0.77675 -0.0386,-1.60604 -0.0858,-1.84287 -0.04719,-0.23684 -0.336569,-0.96085 -0.643067,-1.6089 -0.306497,-0.64805 -0.657214,-1.50147 -0.779368,-1.89649 -0.150166,-0.4856 -0.362989,-0.92991 -0.657099,-1.37186 -0.239253,-0.35951 -0.435,-0.70151 -0.435,-0.76 0,-0.0585 -0.03216,-0.12621 -0.07143,-0.15049 -0.109903,-0.0679 -1.525146,0.72662 -2.172313,1.21957 -0.487464,0.3713 -0.631371,0.44019 -0.919525,0.44019 -0.459367,0 -0.569678,-0.0716 -1.061054,-0.68917 -0.414624,-0.52106 -0.57005,-0.63584 -0.57005,-0.42096 0,0.0598 -0.17645,0.47121 -0.392106,0.91419 -0.215656,0.44297 -0.511746,1.2442 -0.657979,1.78052 -0.146233,0.53632 -0.411147,1.31751 -0.588697,1.73598 -0.516843,1.21813 -0.636514,1.81015 -0.636514,3.14883 0,0.70372 0.03693,1.24246 0.09365,1.36701 0.08384,0.184 1.388152,1.3345 2.085253,1.83934 0.333316,0.2414 0.583951,0.63531 0.583951,0.91781 0,0.13063 -0.112186,0.33781 -0.288725,0.53322 l -0.288726,0.31959 0.71534,0.42359 c 0.393442,0.23298 0.806762,0.45181 0.918498,0.48627 0.297247,0.0917 1.261588,0.0879 1.868989,-0.007 z m 0.04065,-13.8406 c 0.670398,-0.30218 1.282901,-0.62441 1.361114,-0.71606 0.0803,-0.0941 0.142205,-0.29876 0.142205,-0.47009 0,-0.38191 -0.135862,-0.50278 -0.81506,-0.72512 -0.291857,-0.0955 -0.662588,-0.26336 -0.823848,-0.37294 -0.298227,-0.20265 -1.038054,-0.36646 -1.660227,-0.36761 -0.236272,-4e-4 -0.4371,0.0698 -0.690716,0.24169 -0.388235,0.26307 -0.479475,0.29285 -0.479475,0.1565 0,-0.0488 -0.07314,-0.18173 -0.162523,-0.29537 -0.105848,-0.13456 -0.162522,-0.32966 -0.162522,-0.55945 0,-0.28821 0.03782,-0.37762 0.206479,-0.48813 0.297195,-0.19473 0.570128,-0.0472 0.768421,0.41542 0.268717,0.62688 0.485457,0.36584 0.327596,-0.39455 -0.139167,-0.67038 -0.567802,-1.00314 -1.024262,-0.79517 -0.61562,0.2805 -0.717273,1.56555 -0.182118,2.30218 0.08304,0.11429 0.06325,0.17292 -0.120258,0.35644 -0.313417,0.31341 -0.278286,0.5125 0.166352,0.9428 0.47176,0.45654 0.65536,0.55484 1.036315,0.55484 0.648776,0 2.683441,-0.63428 2.838264,-0.88479 0.08775,-0.14197 0.305251,-0.10727 0.275662,0.044 -0.0166,0.0849 -0.280418,0.23028 -0.716984,0.39517 -0.379897,0.14347 -0.891837,0.35693 -1.137648,0.47435 -0.376524,0.17985 -0.558951,0.21361 -1.157966,0.21428 -0.401567,4.9e-4 -0.711029,0.0349 -0.711029,0.0791 0,0.0431 0.137129,0.17346 0.304727,0.28973 0.49113,0.34071 0.946233,0.26593 2.417501,-0.39723 z m 1.429521,-2.29575 c 0.151665,-0.18274 0.1323,-0.88432 -0.03839,-1.39036 -0.173297,-0.51382 -0.495802,-0.80694 -0.964916,-0.87699 -0.464794,-0.0694 -0.743394,0.0531 -0.998953,0.43929 -0.272624,0.41197 -0.37093,1.21392 -0.169316,1.38124 0.184165,0.15284 0.376366,0.0522 0.376366,-0.19707 0,-0.61566 0.510652,-0.9295 1.054664,-0.64818 0.29059,0.15027 0.356027,0.34592 0.286001,0.8551 -0.03012,0.21881 -0.03106,0.43609 -0.0021,0.48284 0.07899,0.12781 0.333803,0.10221 0.456712,-0.0459 z"
       id="path6991" />
  </g>
</svg>
