<?xml version="1.0" encoding="UTF-8" standalone="no"?>
<svg
   xmlns:dc="http://purl.org/dc/elements/1.1/"
   xmlns:cc="http://creativecommons.org/ns#"
   xmlns:rdf="http://www.w3.org/1999/02/22-rdf-syntax-ns#"
   xmlns:svg="http://www.w3.org/2000/svg"
   xmlns="http://www.w3.org/2000/svg"
   xmlns:xlink="http://www.w3.org/1999/xlink"
   version="1.1"
   id="svg10220"
   viewBox="0 0 31.214841 42.91797"
   height="12.112405mm"
   width="8.8095217mm">
  <defs
     id="defs10222">
    <linearGradient
       y2="137.78625"
       x2="379.57394"
       y1="115.09216"
       x1="379.57394"
       gradientTransform="translate(-56.65692,264.66007)"
       gradientUnits="userSpaceOnUse"
       id="linearGradient8172"
       xlink:href="#linearGradient7557" />
    <linearGradient
       id="linearGradient7557">
      <stop
         id="stop7559"
         offset="0"
         style="stop-color:#f05134;stop-opacity:1;" />
      <stop
         id="stop7561"
         offset="1"
         style="stop-color:#e12d0f;stop-opacity:1" />
    </linearGradient>
  </defs>
  <metadata
     id="metadata10225">
    <rdf:RDF>
      <cc:Work
         rdf:about="">
        <dc:format>image/svg+xml</dc:format>
        <dc:type
           rdf:resource="http://purl.org/dc/dcmitype/StillImage" />
        <dc:title></dc:title>
      </cc:Work>
    </rdf:RDF>
  </metadata>
  <g
     transform="translate(-61.53544,-93.76036)"
     id="layer1">
    <g
       id="g8859"
       transform="translate(-245.77432,-267.19951)">
      <path
         style="color:#000000;clip-rule:nonzero;display:inline;overflow:visible;visibility:visible;opacity:1;isolation:auto;mix-blend-mode:normal;color-interpolation:sRGB;color-interpolation-filters:linearRGB;solid-color:#000000;solid-opacity:1;fill:url(#linearGradient8172);fill-opacity:1;fill-rule:evenodd;stroke:none;stroke-width:1px;stroke-linecap:butt;stroke-linejoin:miter;stroke-miterlimit:4;stroke-dasharray:none;stroke-dashoffset:0;stroke-opacity:1;color-rendering:auto;image-rendering:auto;shape-rendering:auto;text-rendering:auto;enable-background:accumulate"
         d="m 322.91718,360.95987 a 15.60707,15.60707 0 0 0 -15.60742,15.60547 15.60707,15.60707 0 0 0 0.041,1.11914 c 0.83623,12.56323 15.56641,17.71422 15.56641,26.19336 0,-8.36334 14.32556,-13.49165 15.51953,-25.68555 a 15.60707,15.60707 0 0 0 0.0117,-0.11523 c 0.0447,-0.49311 0.0762,-0.99487 0.0762,-1.51172 a 15.60707,15.60707 0 0 0 -15.60742,-15.60547 z"
         id="path8170" />
      <path
         id="path7856"
         d="m 316.23578,385.01312 c -2.53976,-2.22132 -0.78267,-3.39096 -3.01729,-6.83178 l -4.55451,0 c 2.93417,3.30998 1.35931,6.83178 3.01726,6.83178 z"
         style="fill:#f5a99b;fill-opacity:1;fill-rule:evenodd;stroke:none;stroke-width:1px;stroke-linecap:butt;stroke-linejoin:miter;stroke-opacity:1" />
      <path
         style="fill:#f5a99b;fill-opacity:1;fill-rule:evenodd;stroke:none;stroke-width:1px;stroke-linecap:butt;stroke-linejoin:miter;stroke-opacity:1"
         d="m 325.33408,385.01312 c -1.97927,0 -3.5902,-14.80219 -5.02684,-14.80219 l -4.55452,0 c 1.65347,0 3.49395,14.80219 5.02683,14.80219 z"
         id="path7858" />
      <path
         style="fill:#ffffff;fill-opacity:1;fill-rule:evenodd;stroke:none;stroke-width:1px;stroke-linecap:butt;stroke-linejoin:miter;stroke-opacity:1"
         d="m 311.68124,385.01312 c 1.68834,0 2.27167,-14.80219 4.07148,-14.80219 l 4.55452,0 c -1.77924,0 -2.89473,14.80219 -4.07146,14.80219 z"
         id="path7860" />
      <path
         id="path7862"
         d="m 334.02372,385.01312 c -1.97927,0 -3.5902,-14.80219 -5.02685,-14.80219 l -4.55451,0 c 1.65347,0 3.49395,14.80219 5.02682,14.80219 z"
         style="fill:#f5a99b;fill-opacity:1;fill-rule:evenodd;stroke:none;stroke-width:1px;stroke-linecap:butt;stroke-linejoin:miter;stroke-opacity:1" />
      <path
         id="path7864"
         d="m 320.77955,385.01312 c 1.68833,0 2.27166,-14.80219 4.07147,-14.80219 l 4.55452,0 c -1.77924,0 -2.89472,14.80219 -4.07146,14.80219 z"
         style="fill:#ffffff;fill-opacity:1;fill-rule:evenodd;stroke:none;stroke-width:1px;stroke-linecap:butt;stroke-linejoin:miter;stroke-opacity:1" />
      <path
         style="fill:#ffffff;fill-opacity:1;fill-rule:evenodd;stroke:none;stroke-width:1px;stroke-linecap:butt;stroke-linejoin:miter;stroke-opacity:1"
         d="m 329.40554,385.01312 c 2.53976,-2.22132 0.78267,-3.39096 3.01729,-6.83178 l 4.55451,0 c -2.93417,3.30998 -1.35931,6.83178 -3.01726,6.83178 z"
         id="path7866" />
    </g>
  </g>
</svg>
