<?xml version="1.0" encoding="UTF-8" standalone="no"?>
<svg
   xmlns:dc="http://purl.org/dc/elements/1.1/"
   xmlns:cc="http://creativecommons.org/ns#"
   xmlns:rdf="http://www.w3.org/1999/02/22-rdf-syntax-ns#"
   xmlns:svg="http://www.w3.org/2000/svg"
   xmlns="http://www.w3.org/2000/svg"
   version="1.1"
   id="svg7812"
   viewBox="0 0 31.214827 31.214827"
   width="8.8095179mm"
   height="8.8095179mm">
  <defs
     id="defs7818" />
  <metadata
     id="metadata7814">
    <rdf:RDF>
      <cc:Work
         rdf:about="">
        <dc:format>image/svg+xml</dc:format>
        <dc:type
           rdf:resource="http://purl.org/dc/dcmitype/StillImage" />
        <dc:title></dc:title>
      </cc:Work>
    </rdf:RDF>
  </metadata>
  <g
     id="g6627"
     transform="translate(-307.30995,-238.20829)">
    <circle
       style="color:#000000;clip-rule:nonzero;display:inline;overflow:visible;visibility:visible;opacity:1;isolation:auto;mix-blend-mode:normal;color-interpolation:sRGB;color-interpolation-filters:linearRGB;solid-color:#000000;solid-opacity:1;fill:#df1f2a;fill-opacity:1;fill-rule:evenodd;stroke:none;stroke-width:1px;stroke-linecap:butt;stroke-linejoin:miter;stroke-miterlimit:4;stroke-dasharray:none;stroke-dashoffset:0;stroke-opacity:1;color-rendering:auto;image-rendering:auto;shape-rendering:auto;text-rendering:auto;enable-background:accumulate"
       id="circle6573"
       cx="322.91736"
       cy="253.8157"
       r="15.607413" />
    <path
       id="path6592"
       d="m 316.23578,261.2168 c -2.53976,-2.22132 -0.78267,-3.39096 -3.01729,-6.83178 l -4.55451,0 c 2.93417,3.30998 1.35931,6.83178 3.01726,6.83178 z"
       style="fill:#f6a2ad;fill-opacity:1;fill-rule:evenodd;stroke:none;stroke-width:1px;stroke-linecap:butt;stroke-linejoin:miter;stroke-opacity:1" />
    <path
       style="fill:#f6a2ad;fill-opacity:1;fill-rule:evenodd;stroke:none;stroke-width:1px;stroke-linecap:butt;stroke-linejoin:miter;stroke-opacity:1"
       d="m 325.33408,261.2168 c -1.97927,0 -3.5902,-14.80219 -5.02684,-14.80219 l -4.55452,0 c 1.65347,0 3.49395,14.80219 5.02683,14.80219 z"
       id="path6594" />
    <path
       style="fill:#ffffff;fill-opacity:1;fill-rule:evenodd;stroke:none;stroke-width:1px;stroke-linecap:butt;stroke-linejoin:miter;stroke-opacity:1"
       d="m 311.68124,261.2168 c 1.68834,0 2.27167,-14.80219 4.07148,-14.80219 l 4.55452,0 c -1.77924,0 -2.89473,14.80219 -4.07146,14.80219 z"
       id="path6596" />
    <path
       id="path6598"
       d="m 334.02372,261.2168 c -1.97927,0 -3.5902,-14.80219 -5.02685,-14.80219 l -4.55451,0 c 1.65347,0 3.49395,14.80219 5.02682,14.80219 z"
       style="fill:#f6a2ad;fill-opacity:1;fill-rule:evenodd;stroke:none;stroke-width:1px;stroke-linecap:butt;stroke-linejoin:miter;stroke-opacity:1" />
    <path
       id="path6600"
       d="m 320.77955,261.2168 c 1.68833,0 2.27166,-14.80219 4.07147,-14.80219 l 4.55452,0 c -1.77924,0 -2.89472,14.80219 -4.07146,14.80219 z"
       style="fill:#ffffff;fill-opacity:1;fill-rule:evenodd;stroke:none;stroke-width:1px;stroke-linecap:butt;stroke-linejoin:miter;stroke-opacity:1" />
    <path
       style="fill:#ffffff;fill-opacity:1;fill-rule:evenodd;stroke:none;stroke-width:1px;stroke-linecap:butt;stroke-linejoin:miter;stroke-opacity:1"
       d="m 329.40554,261.2168 c 2.53976,-2.22132 0.78267,-3.39096 3.01729,-6.83178 l 4.55451,0 c -2.93417,3.30998 -1.35931,6.83178 -3.01726,6.83178 z"
       id="path6603" />
  </g>
</svg>
