<?xml version="1.0" encoding="UTF-8" standalone="no"?>
<svg
   xmlns:dc="http://purl.org/dc/elements/1.1/"
   xmlns:cc="http://creativecommons.org/ns#"
   xmlns:rdf="http://www.w3.org/1999/02/22-rdf-syntax-ns#"
   xmlns:svg="http://www.w3.org/2000/svg"
   xmlns="http://www.w3.org/2000/svg"
   xmlns:xlink="http://www.w3.org/1999/xlink"
   version="1.1"
   id="svg10593"
   viewBox="0 0 31.214841 42.91797"
   height="12.112405mm"
   width="8.8095217mm">
  <defs
     id="defs10595">
    <linearGradient
       y2="137.78625"
       x2="379.57394"
       y1="115.09216"
       x1="379.57394"
       gradientTransform="translate(75.343065,264.66007)"
       gradientUnits="userSpaceOnUse"
       id="linearGradient8184"
       xlink:href="#linearGradient7557" />
    <linearGradient
       id="linearGradient7557">
      <stop
         id="stop7559"
         offset="0"
         style="stop-color:#f05134;stop-opacity:1;" />
      <stop
         id="stop7561"
         offset="1"
         style="stop-color:#e12d0f;stop-opacity:1" />
    </linearGradient>
  </defs>
  <metadata
     id="metadata10598">
    <rdf:RDF>
      <cc:Work
         rdf:about="">
        <dc:format>image/svg+xml</dc:format>
        <dc:type
           rdf:resource="http://purl.org/dc/dcmitype/StillImage" />
        <dc:title></dc:title>
      </cc:Work>
    </rdf:RDF>
  </metadata>
  <g
     transform="translate(-38.67829,-36.61751)"
     id="layer1">
    <g
       id="g8889"
       transform="translate(-400.63147,-324.34236)">
      <path
         id="path8182"
         d="m 454.91718,360.95987 a 15.60707,15.60707 0 0 0 -15.60742,15.60547 15.60707,15.60707 0 0 0 0.041,1.11914 c 0.83623,12.56323 15.56641,17.71422 15.56641,26.19336 0,-8.36334 14.32556,-13.49165 15.51953,-25.68555 a 15.60707,15.60707 0 0 0 0.0117,-0.11523 c 0.0447,-0.49311 0.0762,-0.99487 0.0762,-1.51172 a 15.60707,15.60707 0 0 0 -15.60742,-15.60547 z"
         style="color:#000000;clip-rule:nonzero;display:inline;overflow:visible;visibility:visible;opacity:1;isolation:auto;mix-blend-mode:normal;color-interpolation:sRGB;color-interpolation-filters:linearRGB;solid-color:#000000;solid-opacity:1;fill:url(#linearGradient8184);fill-opacity:1;fill-rule:evenodd;stroke:none;stroke-width:1px;stroke-linecap:butt;stroke-linejoin:miter;stroke-miterlimit:4;stroke-dasharray:none;stroke-dashoffset:0;stroke-opacity:1;color-rendering:auto;image-rendering:auto;shape-rendering:auto;text-rendering:auto;enable-background:accumulate" />
      <path
         id="path8216"
         d="m 459.95508,395.20853 c 0.47717,-0.5061 0.87997,-1.00893 1.38281,-1.52539 a 1.2011201,1.2011201 0 0 0 -0.26172,-0.46289 c -2.19951,-2.55022 -4.41032,-4.58825 -5.25195,-7.7793 a 1.2011201,1.2011201 0 0 0 -2.35352,0.16992 l -0.5,4.32813 c 0.006,0.0196 -0.0623,-0.0457 -0.0312,0.006 -0.78991,-1.31257 -1.39656,-2.49556 -1.55664,-3.9336 -0.16008,-1.43803 0.1065,-3.21408 1.34961,-5.75586 a 1.2011201,1.2011201 0 0 0 -0.18945,-1.33593 c -2.20447,-2.42888 -3.54238,-7.01531 -5.98828,-9.93946 -0.29732,-0.35545 -0.18995,-0.17072 -0.15039,-0.21875 0.0396,-0.048 0.38356,-0.26948 0.93359,-0.22265 0.97148,0.0827 2.47017,1.18835 4.18164,2.09961 a 1.2011201,1.2011201 0 0 0 0.42774,0.13476 c 5.08088,0.57909 8.08637,2.88059 10.45507,6.11328 2.00029,2.7299 3.47133,6.16926 5.01954,9.62696 0.0259,-0.0393 0.0603,-0.0719 0.0859,-0.11133 0.52471,-0.80785 0.92173,-1.7017 1.33399,-2.58399 -1.29124,-2.89786 -2.63472,-5.80325 -4.50196,-8.35156 -2.58426,-3.52688 -6.27438,-6.27862 -11.78711,-7.00586 -1.36381,-0.75039 -2.91627,-2.13608 -5.01171,-2.31445 -1.16638,-0.0993 -2.27976,0.22538 -2.99024,1.08789 -0.71047,0.8625 -0.64682,2.32236 0.16016,3.28711 1.74176,2.08233 3.11327,6.32017 5.60351,9.40039 -1.09165,2.47183 -1.51847,4.57537 -1.32031,6.35547 0.21856,1.96337 1.05277,3.51727 1.88867,4.90625 0.55202,0.91727 1.36948,1.14525 2.25391,1.13281 0.44221,-0.006 0.94248,-0.11977 1.38476,-0.45898 0.44229,-0.33922 0.7508,-0.91441 0.81836,-1.5 l 0.0371,-0.32032 c 1.19171,1.79673 2.62287,3.29338 3.88086,4.75196 a 1.2011201,1.2011201 0 0 0 0.69727,0.41992 z"
         style="color:#000000;font-style:normal;font-variant:normal;font-weight:normal;font-stretch:normal;font-size:medium;line-height:normal;font-family:sans-serif;text-indent:0;text-align:start;text-decoration:none;text-decoration-line:none;text-decoration-style:solid;text-decoration-color:#000000;letter-spacing:normal;word-spacing:normal;text-transform:none;direction:ltr;block-progression:tb;writing-mode:lr-tb;baseline-shift:baseline;text-anchor:start;white-space:normal;clip-rule:nonzero;display:inline;overflow:visible;visibility:visible;opacity:1;isolation:auto;mix-blend-mode:normal;color-interpolation:sRGB;color-interpolation-filters:linearRGB;solid-color:#000000;solid-opacity:1;fill:#ffffff;fill-opacity:1;fill-rule:evenodd;stroke:none;stroke-width:2.40199995;stroke-linecap:round;stroke-linejoin:round;stroke-miterlimit:4;stroke-dasharray:none;stroke-dashoffset:0;stroke-opacity:1;color-rendering:auto;image-rendering:auto;shape-rendering:auto;text-rendering:auto;enable-background:accumulate" />
      <path
         id="path8218"
         d="m 452.81427,373.10514 0.90305,0.98905"
         style="fill:#ffffff;fill-opacity:1;fill-rule:evenodd;stroke:#ffffff;stroke-width:1.69200003;stroke-linecap:round;stroke-linejoin:round;stroke-miterlimit:4;stroke-dasharray:none;stroke-opacity:1" />
    </g>
  </g>
</svg>
