<?xml version="1.0" encoding="UTF-8" standalone="no"?>
<svg
   xmlns:dc="http://purl.org/dc/elements/1.1/"
   xmlns:cc="http://creativecommons.org/ns#"
   xmlns:rdf="http://www.w3.org/1999/02/22-rdf-syntax-ns#"
   xmlns:svg="http://www.w3.org/2000/svg"
   xmlns="http://www.w3.org/2000/svg"
   xmlns:xlink="http://www.w3.org/1999/xlink"
   version="1.1"
   id="svg11179"
   viewBox="0 0 31.214841 42.91797"
   height="12.112405mm"
   width="8.8095217mm">
  <defs
     id="defs11181">
    <linearGradient
       y2="137.78625"
       x2="379.57394"
       y1="115.09216"
       x1="379.57394"
       gradientUnits="userSpaceOnUse"
       id="linearGradient7600-3-9"
       xlink:href="#linearGradient7557"
       gradientTransform="translate(-203.62366,382.19719)" />
    <linearGradient
       id="linearGradient7557">
      <stop
         id="stop7559"
         offset="0"
         style="stop-color:#f05134;stop-opacity:1;" />
      <stop
         id="stop7561"
         offset="1"
         style="stop-color:#e12d0f;stop-opacity:1" />
    </linearGradient>
  </defs>
  <metadata
     id="metadata11184">
    <rdf:RDF>
      <cc:Work
         rdf:about="">
        <dc:format>image/svg+xml</dc:format>
        <dc:type
           rdf:resource="http://purl.org/dc/dcmitype/StillImage" />
        <dc:title></dc:title>
      </cc:Work>
    </rdf:RDF>
  </metadata>
  <g
     transform="translate(-78.678294,-88.04608)"
     id="layer1">
    <g
       id="g9030"
       transform="translate(-81.664706,-390.45091)">
      <path
         id="path6729-2-7"
         d="m 175.95042,478.49699 a 15.60707,15.60707 0 0 0 -15.60742,15.60547 15.60707,15.60707 0 0 0 0.041,1.11914 c 0.83623,12.56323 15.56641,17.71422 15.56641,26.19336 0,-8.36334 14.32556,-13.49165 15.51953,-25.68555 a 15.60707,15.60707 0 0 0 0.0117,-0.11523 c 0.0447,-0.49311 0.0762,-0.99487 0.0762,-1.51172 a 15.60707,15.60707 0 0 0 -15.60742,-15.60547 z"
         style="color:#000000;clip-rule:nonzero;display:inline;overflow:visible;visibility:visible;opacity:1;isolation:auto;mix-blend-mode:normal;color-interpolation:sRGB;color-interpolation-filters:linearRGB;solid-color:#000000;solid-opacity:1;fill:url(#linearGradient7600-3-9);fill-opacity:1;fill-rule:evenodd;stroke:none;stroke-width:1px;stroke-linecap:butt;stroke-linejoin:miter;stroke-miterlimit:4;stroke-dasharray:none;stroke-dashoffset:0;stroke-opacity:1;color-rendering:auto;image-rendering:auto;shape-rendering:auto;text-rendering:auto;enable-background:accumulate" />
      <path
         style="fill:#ffffff"
         d="m 180.18782,500.62357 c -2.0696,-2.1807 -1.9927,-2.17868 -3.4952,-0.0919 -0.4635,0.64377 -0.915,1.1705 -1.0034,1.1705 -0.088,0 -0.7096,-0.55199 -1.3808,-1.22664 l -1.2202,-1.22663 -5.352,-0.0379 c -4.9128,-0.0348 -5.3503,-0.0578 -5.3335,-0.28106 0.03,-0.39806 3.6865,-5.33523 4.0548,-5.47524 0.1998,-0.076 0.4827,-0.0708 0.7026,0.0128 0.2024,0.077 1.5507,1.32721 2.9961,2.7783 1.4453,1.4511 2.5246,2.47578 2.3983,2.27708 -1.5637,-2.46174 -2.6366,-4.04638 -2.7398,-4.04638 -0.069,0 1.3544,-2.03066 3.1648,-4.51258 2.795,-3.83197 3.37,-4.54246 3.8118,-4.7106 0.4561,-0.17363 0.5798,-0.16839 1.0048,0.0427 0.5537,0.27486 11.707,13.22817 11.7379,13.6322 0.017,0.21946 -0.2603,0.25378 -2.6547,0.32881 -1.4704,0.0461 -2.6793,0.0948 -2.6864,0.10838 -0.2327,0.44125 -2.0465,2.78107 -2.2023,2.84084 -0.1506,0.0579 -0.7216,-0.44331 -1.8028,-1.58255 z"
         id="path8316" />
    </g>
  </g>
</svg>
