<?xml version="1.0" encoding="UTF-8" standalone="no"?>
<svg
   xmlns:dc="http://purl.org/dc/elements/1.1/"
   xmlns:cc="http://creativecommons.org/ns#"
   xmlns:rdf="http://www.w3.org/1999/02/22-rdf-syntax-ns#"
   xmlns:svg="http://www.w3.org/2000/svg"
   xmlns="http://www.w3.org/2000/svg"
   xmlns:xlink="http://www.w3.org/1999/xlink"
   version="1.1"
   id="svg8521"
   viewBox="0 0 31.214827 31.214827"
   width="8.8095179mm"
   height="8.8095179mm">
  <defs
     id="defs8527">
    <linearGradient
       gradientTransform="translate(-1067.9693,537.32901)"
       y2="-28.692886"
       x2="1090.3535"
       y1="-43.723591"
       x1="1114.5098"
       gradientUnits="userSpaceOnUse"
       id="linearGradient6790"
       xlink:href="#linearGradient6755" />
    <linearGradient
       id="linearGradient6755">
      <stop
         id="stop6757"
         offset="0"
         style="stop-color:#00b9b9;stop-opacity:1;" />
      <stop
         id="stop6759"
         offset="1"
         style="stop-color:#009696;stop-opacity:1" />
    </linearGradient>
  </defs>
  <metadata
     id="metadata8523">
    <rdf:RDF>
      <cc:Work
         rdf:about="">
        <dc:format>image/svg+xml</dc:format>
        <dc:type
           rdf:resource="http://purl.org/dc/dcmitype/StillImage" />
        <dc:title></dc:title>
      </cc:Work>
    </rdf:RDF>
  </metadata>
  <g
     id="g6710"
     transform="translate(-20.342988,-484.48826)">
    <circle
       style="color:#000000;clip-rule:nonzero;display:inline;overflow:visible;visibility:visible;opacity:1;isolation:auto;mix-blend-mode:normal;color-interpolation:sRGB;color-interpolation-filters:linearRGB;solid-color:#000000;solid-opacity:1;fill:url(#linearGradient6790);fill-opacity:1;fill-rule:evenodd;stroke:none;stroke-width:1px;stroke-linecap:butt;stroke-linejoin:miter;stroke-miterlimit:4;stroke-dasharray:none;stroke-dashoffset:0;stroke-opacity:1;color-rendering:auto;image-rendering:auto;shape-rendering:auto;text-rendering:auto;enable-background:accumulate"
       id="circle6546"
       cx="35.950401"
       cy="500.09567"
       r="15.607413" />
    <path
       style="fill:#ffffff"
       d="m 40.169724,507.04901 c -2.0696,-2.1807 -1.9927,-2.17868 -3.4952,-0.0919 -0.4635,0.64377 -0.915,1.1705 -1.0034,1.1705 -0.088,0 -0.7096,-0.55199 -1.3808,-1.22664 l -1.2202,-1.22663 -5.352,-0.0379 c -4.9128,-0.0348 -5.3503,-0.0578 -5.3335,-0.28106 0.03,-0.39806 3.6865,-5.33523 4.0548,-5.47524 0.1998,-0.076 0.4827,-0.0708 0.7026,0.0128 0.2024,0.077 1.5507,1.32721 2.9961,2.7783 1.4453,1.4511 2.5246,2.47578 2.3983,2.27708 -1.5637,-2.46174 -2.6366,-4.04638 -2.7398,-4.04638 -0.069,0 1.3544,-2.03066 3.1648,-4.51258 2.795,-3.83197 3.37,-4.54246 3.8118,-4.7106 0.4561,-0.17363 0.5798,-0.16839 1.0048,0.0427 0.5537,0.27486 11.707,13.22817 11.7379,13.6322 0.017,0.21946 -0.2603,0.25378 -2.6547,0.32881 -1.4704,0.0461 -2.6793,0.0949 -2.6864,0.10838 -0.2327,0.44125 -2.0465,2.78107 -2.2023,2.84084 -0.1506,0.0578 -0.7216,-0.44331 -1.8028,-1.58255 z"
       id="path6601" />
  </g>
</svg>
