<?xml version="1.0" encoding="UTF-8" standalone="no"?>
<svg
   xmlns:dc="http://purl.org/dc/elements/1.1/"
   xmlns:cc="http://creativecommons.org/ns#"
   xmlns:rdf="http://www.w3.org/1999/02/22-rdf-syntax-ns#"
   xmlns:svg="http://www.w3.org/2000/svg"
   xmlns="http://www.w3.org/2000/svg"
   xmlns:xlink="http://www.w3.org/1999/xlink"
   version="1.1"
   id="svg11623"
   viewBox="0 0 31.214841 42.91797"
   height="12.112405mm"
   width="8.8095217mm">
  <defs
     id="defs11625">
    <linearGradient
       y2="137.78625"
       x2="379.57394"
       y1="115.09216"
       x1="379.57394"
       gradientTransform="translate(-124.93518,665.5166)"
       gradientUnits="userSpaceOnUse"
       id="linearGradient8572"
       xlink:href="#linearGradient7557" />
    <linearGradient
       id="linearGradient7557">
      <stop
         id="stop7559"
         offset="0"
         style="stop-color:#f05134;stop-opacity:1;" />
      <stop
         id="stop7561"
         offset="1"
         style="stop-color:#e12d0f;stop-opacity:1" />
    </linearGradient>
  </defs>
  <metadata
     id="metadata11628">
    <rdf:RDF>
      <cc:Work
         rdf:about="">
        <dc:format>image/svg+xml</dc:format>
        <dc:type
           rdf:resource="http://purl.org/dc/dcmitype/StillImage" />
        <dc:title></dc:title>
      </cc:Work>
    </rdf:RDF>
  </metadata>
  <g
     transform="translate(-52.96401,-93.76036)"
     id="layer1">
    <g
       id="g9080"
       transform="translate(-186.06747,-668.05604)">
      <path
         id="path8570"
         d="m 254.6389,761.8164 a 15.60707,15.60707 0 0 0 -15.60742,15.60547 15.60707,15.60707 0 0 0 0.041,1.11914 c 0.83623,12.56323 15.56641,17.71422 15.56641,26.19336 0,-8.36334 14.32556,-13.49165 15.51953,-25.68555 a 15.60707,15.60707 0 0 0 0.0117,-0.11523 c 0.0447,-0.49311 0.0762,-0.99487 0.0762,-1.51172 A 15.60707,15.60707 0 0 0 254.6389,761.8164 Z"
         style="color:#000000;clip-rule:nonzero;display:inline;overflow:visible;visibility:visible;opacity:1;isolation:auto;mix-blend-mode:normal;color-interpolation:sRGB;color-interpolation-filters:linearRGB;solid-color:#000000;solid-opacity:1;fill:url(#linearGradient8572);fill-opacity:1;fill-rule:evenodd;stroke:none;stroke-width:1px;stroke-linecap:butt;stroke-linejoin:miter;stroke-miterlimit:4;stroke-dasharray:none;stroke-dashoffset:0;stroke-opacity:1;color-rendering:auto;image-rendering:auto;shape-rendering:auto;text-rendering:auto;enable-background:accumulate" />
      <path
         id="path8518"
         d="m 254.63917,764.65771 a 12.611555,12.611555 0 0 0 -12.61156,12.61155 12.611555,12.611555 0 0 0 8.1914,11.80409 l 3.16308,-7.94791 a 4.0588915,4.0588915 0 0 1 -2.80181,-3.85618 4.0588915,4.0588915 0 0 1 4.05889,-4.05888 4.0588915,4.0588915 0 0 1 4.05889,4.05888 4.0588915,4.0588915 0 0 1 -2.57191,3.77578 l 3.02604,7.98641 a 12.611555,12.611555 0 0 0 8.09853,-11.76219 12.611555,12.611555 0 0 0 -12.61155,-12.61155 z"
         style="fill:#ffffff;fill-opacity:1" />
    </g>
  </g>
</svg>
