<?xml version="1.0" encoding="UTF-8" standalone="no"?>
<svg
   xmlns:dc="http://purl.org/dc/elements/1.1/"
   xmlns:cc="http://creativecommons.org/ns#"
   xmlns:rdf="http://www.w3.org/1999/02/22-rdf-syntax-ns#"
   xmlns:svg="http://www.w3.org/2000/svg"
   xmlns="http://www.w3.org/2000/svg"
   xmlns:xlink="http://www.w3.org/1999/xlink"
   version="1.1"
   id="svg6794"
   viewBox="0 0 31.214827 31.214827"
   width="8.8095179mm"
   height="8.8095179mm">
  <defs
     id="defs6800">
    <linearGradient
       y2="766.15881"
       x2="100.53194"
       y1="784.30963"
       x1="82.479965"
       gradientUnits="userSpaceOnUse"
       id="linearGradient6678"
       xlink:href="#linearGradient6647" />
    <linearGradient
       id="linearGradient6647">
      <stop
         id="stop6649"
         offset="0"
         style="stop-color:#3fa648;stop-opacity:1;" />
      <stop
         id="stop6651"
         offset="1"
         style="stop-color:#80d480;stop-opacity:1" />
    </linearGradient>
  </defs>
  <metadata
     id="metadata6796">
    <rdf:RDF>
      <cc:Work
         rdf:about="">
        <dc:format>image/svg+xml</dc:format>
        <dc:type
           rdf:resource="http://purl.org/dc/dcmitype/StillImage" />
        <dc:title></dc:title>
      </cc:Work>
    </rdf:RDF>
  </metadata>
  <g
     id="g6684"
     transform="translate(-73.031732,-762.19245)">
    <circle
       r="15.607413"
       cy="777.79987"
       cx="88.639145"
       id="circle6570"
       style="color:#000000;clip-rule:nonzero;display:inline;overflow:visible;visibility:visible;opacity:1;isolation:auto;mix-blend-mode:normal;color-interpolation:sRGB;color-interpolation-filters:linearRGB;solid-color:#000000;solid-opacity:1;fill:url(#linearGradient6678);fill-opacity:1;fill-rule:evenodd;stroke:none;stroke-width:1px;stroke-linecap:butt;stroke-linejoin:miter;stroke-miterlimit:4;stroke-dasharray:none;stroke-dashoffset:0;stroke-opacity:1;color-rendering:auto;image-rendering:auto;shape-rendering:auto;text-rendering:auto;enable-background:accumulate" />
    <path
       id="path6590"
       d="m 88.764146,766.15879 a 11.767802,11.767802 0 0 0 -11.767803,11.7678 11.767802,11.767802 0 0 0 7.643365,11.01436 l 2.951461,-7.41617 a 3.7873387,3.7873387 0 0 1 -2.614362,-3.59819 3.7873387,3.7873387 0 0 1 3.787338,-3.78733 3.7873387,3.7873387 0 0 1 3.787338,3.78733 3.7873387,3.7873387 0 0 1 -2.399845,3.52317 l 2.823596,7.45209 a 11.767802,11.767802 0 0 0 7.556706,-10.97526 11.767802,11.767802 0 0 0 -11.767794,-11.7678 z"
       style="fill:#ffffff;fill-opacity:1" />
  </g>
</svg>
