<?xml version="1.0" encoding="UTF-8" standalone="no"?>
<svg
   xmlns:dc="http://purl.org/dc/elements/1.1/"
   xmlns:cc="http://creativecommons.org/ns#"
   xmlns:rdf="http://www.w3.org/1999/02/22-rdf-syntax-ns#"
   xmlns:svg="http://www.w3.org/2000/svg"
   xmlns="http://www.w3.org/2000/svg"
   xmlns:xlink="http://www.w3.org/1999/xlink"
   version="1.1"
   id="svg9676"
   viewBox="0 0 31.214844 42.91797"
   height="12.112405mm"
   width="8.8095226mm">
  <defs
     id="defs9678">
    <linearGradient
       y2="137.78625"
       x2="379.57394"
       y1="115.09216"
       x1="379.57394"
       gradientTransform="translate(-304.65673,264.66007)"
       gradientUnits="userSpaceOnUse"
       id="linearGradient8152"
       xlink:href="#linearGradient7557" />
    <linearGradient
       id="linearGradient7557">
      <stop
         id="stop7559"
         offset="0"
         style="stop-color:#f05134;stop-opacity:1;" />
      <stop
         id="stop7561"
         offset="1"
         style="stop-color:#e12d0f;stop-opacity:1" />
    </linearGradient>
  </defs>
  <metadata
     id="metadata9681">
    <rdf:RDF>
      <cc:Work
         rdf:about="">
        <dc:format>image/svg+xml</dc:format>
        <dc:type
           rdf:resource="http://purl.org/dc/dcmitype/StillImage" />
        <dc:title></dc:title>
      </cc:Work>
    </rdf:RDF>
  </metadata>
  <g
     transform="translate(-58.678293,-82.33179)"
     id="layer1">
    <g
       id="g8829"
       transform="translate(-0.63164421,-278.62808)">
      <path
         style="color:#000000;clip-rule:nonzero;display:inline;overflow:visible;visibility:visible;opacity:1;isolation:auto;mix-blend-mode:normal;color-interpolation:sRGB;color-interpolation-filters:linearRGB;solid-color:#000000;solid-opacity:1;fill:url(#linearGradient8152);fill-opacity:1;fill-rule:evenodd;stroke:none;stroke-width:1px;stroke-linecap:butt;stroke-linejoin:miter;stroke-miterlimit:4;stroke-dasharray:none;stroke-dashoffset:0;stroke-opacity:1;color-rendering:auto;image-rendering:auto;shape-rendering:auto;text-rendering:auto;enable-background:accumulate"
         d="m 74.91736,360.95987 a 15.60707,15.60707 0 0 0 -15.607423,15.60547 15.60707,15.60707 0 0 0 0.041,1.11914 c 0.836233,12.56323 15.566413,17.71422 15.566413,26.19336 0,-8.36334 14.32556,-13.49165 15.51953,-25.68555 a 15.60707,15.60707 0 0 0 0.0117,-0.11523 c 0.0447,-0.49311 0.0762,-0.99487 0.0762,-1.51172 A 15.60707,15.60707 0 0 0 74.91736,360.95987 Z"
         id="path8150" />
      <g
         transform="matrix(0.21878806,0,0,0.21878806,-164.39088,449.8965)"
         id="g7620"
         style="fill:#ffffff">
        <path
           style="fill:#ffffff"
           d="m 1054.9141,-350.4707 c -7.7209,-0.005 -10.7526,0.1503 -11.3203,0.57812 -0.7682,0.57877 -1.1777,2.2891 -5.2872,22.08789 -0.9073,4.37108 -2.0836,9.93454 -2.6132,12.36328 l -0.9629,4.41602 1.041,0.84375 c 2.3386,1.89363 6.1597,0.75761 7.2285,-2.14844 0.3878,-1.05453 1.0792,-2.9592 1.5371,-4.23242 1.2615,-3.50731 2.5651,-4.07336 10.3477,-4.50195 3.5026,-0.19289 7.4146,-0.59036 8.6933,-0.88282 5.6486,-1.29197 10.0395,-5.45333 12.1934,-11.55664 1.4722,-4.17027 1.4602,-7.0351 -0.043,-10.38476 -2.528,-5.63304 -5.4991,-6.57193 -20.8144,-6.58203 z m 0.8281,4.74609 c 0.3999,-0.003 0.8319,0.007 1.3027,0.0273 6.0484,0.26191 10.0528,3.32049 10.0528,7.68165 0,4.28778 -3.8873,9.47461 -8.2793,11.04882 -3.3451,1.199 -8.5246,1.08776 -10.1856,-0.21875 -1.2596,-0.99083 -1.2855,-1.10564 -1.0039,-4.4375 0.4078,-4.82478 1.5914,-9.66748 2.8027,-11.46484 1.3246,-1.96564 2.5112,-2.61447 5.3106,-2.63672 z"
           id="path7622" />
        <path
           style="fill:#ffffff"
           d="m 1136.1387,-350.4707 c -6.206,-0.004 -11.0307,0.18796 -11.5371,0.45898 -0.5689,0.30447 -1.0563,1.39802 -1.4063,3.15625 -0.2945,1.47938 -1.0403,5.10755 -1.6582,8.06445 -0.618,2.95691 -1.7749,8.63765 -2.5703,12.62305 -0.7954,3.98539 -1.7455,8.69188 -2.1133,10.45899 -0.8711,4.1854 -0.8442,5.28135 0.1485,5.89257 0.4499,0.27703 1.8558,0.42093 3.125,0.31836 2.6715,-0.21588 3.7024,-1.17618 4.5136,-4.20898 1.7388,-6.50096 2.2314,-6.82716 11.0879,-7.33399 7.9373,-0.45422 10.8927,-1.0957 13.8809,-3.00781 8.6863,-5.55823 10.9996,-18.70861 4.2031,-23.89258 -2.717,-2.07235 -5.8509,-2.52129 -17.6738,-2.52929 z m 1.0371,4.65429 c 3.446,-0.0979 7.3992,1.18887 9.5312,3.72266 3.609,4.28913 -0.4216,12.9395 -7.0879,15.21094 -3.1026,1.05715 -7.8715,0.93646 -9.8144,-0.24805 -1.5659,-0.95468 -1.5698,-0.9685 -1.3262,-3.85352 0.2786,-3.30012 1.894,-10.57173 2.6719,-12.02539 0.9718,-1.81574 3.3451,-2.73045 6.0254,-2.80664 z"
           id="path7624" />
        <path
           style="fill:#ffffff"
           d="m 1079.3453,-321.58649 c -0.7993,-0.7993 -0.7242,-1.59075 0.8049,-8.47924 0.7512,-3.38433 1.8968,-8.67781 2.5457,-11.76327 4.2655,-20.28106 4.2205,-20.12988 6.1341,-20.61017 1.6066,-0.40322 4.4951,0.0815 5.0177,0.84197 0.2271,0.33051 0.2876,2.31412 0.1343,4.40802 -0.2606,3.56182 -0.2055,3.8921 0.8561,5.12625 1.1166,1.29814 1.2417,1.32447 7.8509,1.65302 8.6204,0.42853 10.5742,0.98206 12.0829,3.42317 1.1275,1.82428 1.2211,4.84974 0.2753,8.8977 -0.3605,1.54273 -0.9851,4.69832 -1.3879,7.01241 -1.5129,8.68999 -2.39,10.05113 -6.4768,10.05113 -4.2023,0 -4.3494,-0.69257 -2.2185,-10.44196 1.6542,-7.56836 1.7102,-8.91607 0.4561,-10.97309 -1.8334,-3.00709 -7.6522,-4.3293 -11.1926,-2.54331 -2.7079,1.36605 -2.8726,1.80483 -6.3598,16.94595 -0.8471,3.67798 -1.5338,5.63461 -2.1739,6.1943 -1.1002,0.96198 -5.4668,1.13883 -6.3485,0.25712 z"
           id="path7626" />
      </g>
    </g>
  </g>
</svg>
