<?xml version="1.0" encoding="UTF-8" standalone="no"?>
<svg
   xmlns:dc="http://purl.org/dc/elements/1.1/"
   xmlns:cc="http://creativecommons.org/ns#"
   xmlns:rdf="http://www.w3.org/1999/02/22-rdf-syntax-ns#"
   xmlns:svg="http://www.w3.org/2000/svg"
   xmlns="http://www.w3.org/2000/svg"
   version="1.1"
   id="svg12561"
   viewBox="0 0 31.214827 31.214827"
   height="8.8095179mm"
   width="8.8095179mm">
  <defs
     id="defs12563" />
  <metadata
     id="metadata12566">
    <rdf:RDF>
      <cc:Work
         rdf:about="">
        <dc:format>image/svg+xml</dc:format>
        <dc:type
           rdf:resource="http://purl.org/dc/dcmitype/StillImage" />
        <dc:title></dc:title>
      </cc:Work>
    </rdf:RDF>
  </metadata>
  <g
     transform="translate(-55.821157,-53.897652)"
     id="layer1">
    <g
       id="g12257"
       transform="translate(-468.21059,-783.52179)">
      <circle
         style="color:#000000;clip-rule:nonzero;display:inline;overflow:visible;visibility:visible;opacity:1;isolation:auto;mix-blend-mode:normal;color-interpolation:sRGB;color-interpolation-filters:linearRGB;solid-color:#000000;solid-opacity:1;fill:#333333;fill-opacity:1;fill-rule:evenodd;stroke:none;stroke-width:1px;stroke-linecap:butt;stroke-linejoin:miter;stroke-miterlimit:4;stroke-dasharray:none;stroke-dashoffset:0;stroke-opacity:1;color-rendering:auto;image-rendering:auto;shape-rendering:auto;text-rendering:auto;enable-background:accumulate"
         id="circle12132"
         cx="539.63916"
         cy="853.02686"
         r="15.607413" />
      <g
         transform="matrix(0.88453409,0,0,0.88453409,501.92303,90.74609)"
         id="g12134">
        <path
           id="path12136"
           d="m 42.705078,847.71484 c -3.94307,-0.0325 -6.118769,2.53706 -6.167969,7.28125 -0.02034,1.96238 0.0352,2.25357 0.705079,3.66797 1.216878,2.56933 2.872216,4.23673 4.597656,4.63282 2.11558,0.48561 4.585697,-1.33392 6.091797,-4.48633 0.57777,-1.20933 0.71009,-1.79059 0.77539,-3.40235 0.19335,-4.76982 -2.061293,-7.66096 -6.001953,-7.69336 z"
           style="fill:#ffffff;fill-opacity:1;fill-rule:evenodd;stroke:none;stroke-width:1px;stroke-linecap:butt;stroke-linejoin:miter;stroke-opacity:1" />
        <path
           id="path12138"
           d="m 31.986328,871.01367 a 14.5625,14.5625 0 0 0 0.378906,0.43164 14.5625,14.5625 0 0 0 1.066407,0.99219 14.5625,14.5625 0 0 0 1.158203,0.88086 14.5625,14.5625 0 0 0 1.240234,0.76172 14.5625,14.5625 0 0 0 1.310547,0.63281 14.5625,14.5625 0 0 0 1.369141,0.49805 14.5625,14.5625 0 0 0 1.410156,0.36133 14.5625,14.5625 0 0 0 1.439453,0.21679 14.5625,14.5625 0 0 0 1.453125,0.0723 14.5625,14.5625 0 0 0 1.029297,-0.0352 14.5625,14.5625 0 0 0 1.445312,-0.17578 14.5625,14.5625 0 0 0 1.419922,-0.31836 14.5625,14.5625 0 0 0 1.382813,-0.45898 14.5625,14.5625 0 0 0 1.328125,-0.59571 14.5625,14.5625 0 0 0 1.261719,-0.72461 14.5625,14.5625 0 0 0 1.185546,-0.8457 14.5625,14.5625 0 0 0 1.021485,-0.89648 c 0.142676,-0.19269 0.319972,-0.34944 0.457031,-0.54688 l -0.05469,-1.12109 c -0.07268,-1.51162 -0.623658,-2.9 -1.417968,-3.56836 -0.6885,-0.57934 -5.551193,-3.05274 -6.001953,-3.05274 -0.14409,0 -0.506068,0.3883 -0.804688,0.86133 -0.72887,1.15461 -1.83911,2.05664 -2.53125,2.05664 -0.5719,0 -1.385759,-0.71447 -2.574219,-2.25781 l -0.595703,-0.77148 -3.037109,1.52148 c -2.41379,1.2087 -3.134399,1.67854 -3.511719,2.28906 -0.5285,0.85512 -1.045845,3.2256 -0.828125,3.79297 z"
           style="fill:#ffffff;fill-opacity:1;fill-rule:evenodd;stroke:none;stroke-width:1px;stroke-linecap:butt;stroke-linejoin:miter;stroke-opacity:1" />
      </g>
    </g>
  </g>
</svg>
