<?xml version="1.0" encoding="UTF-8" standalone="no"?>
<svg
   xmlns:dc="http://purl.org/dc/elements/1.1/"
   xmlns:cc="http://creativecommons.org/ns#"
   xmlns:rdf="http://www.w3.org/1999/02/22-rdf-syntax-ns#"
   xmlns:svg="http://www.w3.org/2000/svg"
   xmlns="http://www.w3.org/2000/svg"
   xmlns:xlink="http://www.w3.org/1999/xlink"
   version="1.1"
   id="svg11254"
   viewBox="0 0 31.214841 42.91797"
   height="12.112405mm"
   width="8.8095217mm">
  <defs
     id="defs11256">
    <linearGradient
       y2="137.78625"
       x2="379.57394"
       y1="115.09216"
       x1="379.57394"
       gradientTransform="translate(-163.62393,382.19719)"
       gradientUnits="userSpaceOnUse"
       id="linearGradient8420"
       xlink:href="#linearGradient7557" />
    <linearGradient
       id="linearGradient7557">
      <stop
         id="stop7559"
         offset="0"
         style="stop-color:#f05134;stop-opacity:1;" />
      <stop
         id="stop7561"
         offset="1"
         style="stop-color:#e12d0f;stop-opacity:1" />
    </linearGradient>
  </defs>
  <metadata
     id="metadata11259">
    <rdf:RDF>
      <cc:Work
         rdf:about="">
        <dc:format>image/svg+xml</dc:format>
        <dc:type
           rdf:resource="http://purl.org/dc/dcmitype/StillImage" />
        <dc:title></dc:title>
      </cc:Work>
    </rdf:RDF>
  </metadata>
  <g
     transform="translate(-375.82115,-236.61751)"
     id="layer1">
    <g
       id="g9034"
       transform="translate(175.47841,-241.87948)">
      <path
         style="color:#000000;clip-rule:nonzero;display:inline;overflow:visible;visibility:visible;opacity:1;isolation:auto;mix-blend-mode:normal;color-interpolation:sRGB;color-interpolation-filters:linearRGB;solid-color:#000000;solid-opacity:1;fill:url(#linearGradient8420);fill-opacity:1;fill-rule:evenodd;stroke:none;stroke-width:1px;stroke-linecap:butt;stroke-linejoin:miter;stroke-miterlimit:4;stroke-dasharray:none;stroke-dashoffset:0;stroke-opacity:1;color-rendering:auto;image-rendering:auto;shape-rendering:auto;text-rendering:auto;enable-background:accumulate"
         d="m 215.95016,478.49699 a 15.60707,15.60707 0 0 0 -15.60742,15.60547 15.60707,15.60707 0 0 0 0.041,1.11914 c 0.83623,12.56323 15.56641,17.71422 15.56641,26.19336 0,-8.36334 14.32556,-13.49165 15.51953,-25.68555 a 15.60707,15.60707 0 0 0 0.0117,-0.11523 c 0.0447,-0.49311 0.0762,-0.99487 0.0762,-1.51172 a 15.60707,15.60707 0 0 0 -15.60742,-15.60547 z"
         id="path8418" />
      <rect
         y="483.31537"
         x="204.30661"
         height="23.602179"
         width="23.602179"
         id="rect8330"
         style="fill:none;stroke-width:4.5;stroke-miterlimit:4;stroke-dasharray:none" />
      <g
         style="stroke:#ffffff"
         transform="matrix(0.1627082,0,0,0.1627082,184.93202,433.21108)"
         id="g8332">
        <path
           style="fill:none;fill-rule:evenodd;stroke:#ffffff;stroke-width:16.29999924;stroke-linecap:butt;stroke-linejoin:miter;stroke-miterlimit:4;stroke-dasharray:none;stroke-opacity:1"
           d="m 146.03756,444.84783 76.92053,0 c 6.91545,0 12.2627,-6.24408 12.2627,-12.2627 l 0,-30.86576 c 0,-20.0042 -15.02529,-28.96252 -33.42688,-33.71248 -34.06388,-8.79283 -53.80547,-13.78068 -53.80547,-28.27584 l 0,-16.55379 c 0,-3.8353 4.08068,-7.08774 10.06088,-7.08774 l 79.87011,0"
           id="path8334" />
        <path
           style="fill:none;fill-rule:evenodd;stroke:#ffffff;stroke-width:4.5;stroke-linecap:round;stroke-linejoin:miter;stroke-miterlimit:4;stroke-dasharray:none;stroke-opacity:1"
           d="M 148.28558,436.59253 235.66431,324.12142"
           id="path8336" />
      </g>
    </g>
  </g>
</svg>
