<?xml version="1.0" encoding="UTF-8" standalone="no"?>
<svg
   xmlns:dc="http://purl.org/dc/elements/1.1/"
   xmlns:cc="http://creativecommons.org/ns#"
   xmlns:rdf="http://www.w3.org/1999/02/22-rdf-syntax-ns#"
   xmlns:svg="http://www.w3.org/2000/svg"
   xmlns="http://www.w3.org/2000/svg"
   id="svg7500"
   version="1.1"
   viewBox="0 0 32.729107 45"
   height="45mm"
   width="32.729107mm">
  <defs
     id="defs7494" />
  <metadata
     id="metadata7497">
    <rdf:RDF>
      <cc:Work
         rdf:about="">
        <dc:format>image/svg+xml</dc:format>
        <dc:type
           rdf:resource="http://purl.org/dc/dcmitype/StillImage" />
        <dc:title></dc:title>
      </cc:Work>
    </rdf:RDF>
  </metadata>
  <g
     transform="translate(-106.72023,-53.193091)"
     id="layer1">
    <g
       id="g7477"
       transform="matrix(1.0485111,0,0,1.0485111,-688.4774,-764.45306)">
      <path
         style="color:#000000;font-style:normal;font-variant:normal;font-weight:bold;font-stretch:normal;font-size:medium;line-height:125%;font-family:sans-serif;-inkscape-font-specification:'sans-serif Bold';letter-spacing:0px;word-spacing:0px;clip-rule:nonzero;display:inline;overflow:visible;visibility:visible;opacity:1;isolation:auto;mix-blend-mode:normal;color-interpolation:sRGB;color-interpolation-filters:linearRGB;solid-color:#000000;solid-opacity:1;fill:#333333;fill-opacity:1;fill-rule:evenodd;stroke:none;stroke-width:1px;stroke-linecap:butt;stroke-linejoin:miter;stroke-miterlimit:4;stroke-dasharray:none;stroke-dashoffset:0;stroke-opacity:1;color-rendering:auto;image-rendering:auto;shape-rendering:auto;text-rendering:auto;enable-background:accumulate"
         d="m 774.01392,779.8164 a 15.60707,15.60707 0 0 0 -15.60742,15.6055 15.60707,15.60707 0 0 0 0.041,1.1191 c 0.83623,12.5632 15.56641,17.7142 15.56641,26.1934 0,-8.3634 14.32556,-13.4917 15.51953,-25.6856 a 15.60707,15.60707 0 0 0 0.0117,-0.1152 c 0.0447,-0.4931 0.0762,-0.9949 0.0762,-1.5117 a 15.60707,15.60707 0 0 0 -15.60742,-15.6055 z"
         id="path7442" />
      <path
         d="m 770.14005,797.85424 h 0.96295 l 0.34129,-0.3291 c -1.19453,-1.38956 -1.91369,-3.19355 -1.91369,-5.156 0,-4.37588 3.54703,-7.92292 7.92292,-7.92292 4.37589,0 7.92292,3.54704 7.92292,7.92292 0,4.3759 -3.54703,7.92292 -7.92292,7.92292 -1.96244,0 -3.76643,-0.71915 -5.15599,-1.91368 l -0.32911,0.34129 v 0.96294 l -6.09456,6.08237 -1.81617,-1.81619 z m 7.31347,0 c 3.03509,0 5.48509,-2.45 5.48509,-5.4851 0,-3.03508 -2.45,-5.4851 -5.48509,-5.4851 -3.03508,0 -5.4851,2.45002 -5.4851,5.4851 0,3.0351 2.45002,5.4851 5.4851,5.4851 z"
         id="path2"
         style="fill:#ffffff;stroke-width:1.21891069" />
    </g>
  </g>
</svg>
