<?xml version="1.0" encoding="UTF-8" standalone="no"?>
<!-- Created with Inkscape (http://www.inkscape.org/) -->

<svg
   xmlns:dc="http://purl.org/dc/elements/1.1/"
   xmlns:cc="http://creativecommons.org/ns#"
   xmlns:rdf="http://www.w3.org/1999/02/22-rdf-syntax-ns#"
   xmlns:svg="http://www.w3.org/2000/svg"
   xmlns="http://www.w3.org/2000/svg"
   xmlns:sodipodi="http://sodipodi.sourceforge.net/DTD/sodipodi-0.dtd"
   xmlns:inkscape="http://www.inkscape.org/namespaces/inkscape"
   width="45mm"
   height="45mm"
   viewBox="0 0 45 45"
   version="1.1"
   id="svg7580"
   inkscape:version="0.92.1 r15371"
   sodipodi:docname="search-pastille.svg">
  <defs
     id="defs7574" />
  <sodipodi:namedview
     id="base"
     pagecolor="#ffffff"
     bordercolor="#666666"
     borderopacity="1.0"
     inkscape:pageopacity="0.0"
     inkscape:pageshadow="2"
     inkscape:zoom="0.35"
     inkscape:cx="119.50498"
     inkscape:cy="-83.351982"
     inkscape:document-units="mm"
     inkscape:current-layer="layer1"
     showgrid="false"
     fit-margin-top="0"
     fit-margin-left="0"
     fit-margin-right="0"
     fit-margin-bottom="0"
     inkscape:window-width="1366"
     inkscape:window-height="704"
     inkscape:window-x="0"
     inkscape:window-y="27"
     inkscape:window-maximized="1" />
  <metadata
     id="metadata7577">
    <rdf:RDF>
      <cc:Work
         rdf:about="">
        <dc:format>image/svg+xml</dc:format>
        <dc:type
           rdf:resource="http://purl.org/dc/dcmitype/StillImage" />
        <dc:title></dc:title>
      </cc:Work>
    </rdf:RDF>
  </metadata>
  <g
     inkscape:label="Calque 1"
     inkscape:groupmode="layer"
     id="layer1"
     transform="translate(-74.214306,-51.541694)">
    <g
       transform="matrix(1.4416226,0,0,1.4416226,-1019.122,-1155.7011)"
       id="g7481">
      <circle
         r="15.607413"
         cy="853.02686"
         cx="774.01416"
         id="circle7450"
         style="color:#000000;clip-rule:nonzero;display:inline;overflow:visible;visibility:visible;opacity:1;isolation:auto;mix-blend-mode:normal;color-interpolation:sRGB;color-interpolation-filters:linearRGB;solid-color:#000000;solid-opacity:1;fill:#333333;fill-opacity:1;fill-rule:evenodd;stroke:none;stroke-width:1px;stroke-linecap:butt;stroke-linejoin:miter;stroke-miterlimit:4;stroke-dasharray:none;stroke-dashoffset:0;stroke-opacity:1;color-rendering:auto;image-rendering:auto;shape-rendering:auto;text-rendering:auto;enable-background:accumulate" />
      <path
         inkscape:connector-curvature="0"
         d="m 770.14026,855.07239 h 0.96295 l 0.34129,-0.3291 c -1.19453,-1.38956 -1.91369,-3.19355 -1.91369,-5.156 0,-4.37588 3.54703,-7.92292 7.92292,-7.92292 4.37589,0 7.92292,3.54704 7.92292,7.92292 0,4.3759 -3.54703,7.92292 -7.92292,7.92292 -1.96244,0 -3.76643,-0.71915 -5.15599,-1.91368 l -0.32911,0.34129 v 0.96294 l -6.09456,6.08237 -1.81617,-1.81619 z m 7.31347,0 c 3.03509,0 5.48509,-2.45 5.48509,-5.4851 0,-3.03508 -2.45,-5.4851 -5.48509,-5.4851 -3.03508,0 -5.4851,2.45002 -5.4851,5.4851 0,3.0351 2.45002,5.4851 5.4851,5.4851 z"
         id="path7473"
         style="fill:#ffffff;stroke-width:1.21891069" />
    </g>
  </g>
</svg>
