<?xml version="1.0" encoding="UTF-8" standalone="no"?>
<svg
   xmlns:dc="http://purl.org/dc/elements/1.1/"
   xmlns:cc="http://creativecommons.org/ns#"
   xmlns:rdf="http://www.w3.org/1999/02/22-rdf-syntax-ns#"
   xmlns:svg="http://www.w3.org/2000/svg"
   xmlns="http://www.w3.org/2000/svg"
   version="1.1"
   id="svg6485"
   viewBox="0 0 31.214827 31.214827"
   width="8.8095179mm"
   height="8.8095179mm">
  <defs
     id="defs6491" />
  <metadata
     id="metadata6487">
    <rdf:RDF>
      <cc:Work
         rdf:about="">
        <dc:format>image/svg+xml</dc:format>
        <dc:type
           rdf:resource="http://purl.org/dc/dcmitype/StillImage" />
        <dc:title></dc:title>
      </cc:Work>
    </rdf:RDF>
  </metadata>
  <g
     id="g6389"
     transform="translate(-153.96667,-202.939)">
    <circle
       r="15.607413"
       cy="218.54642"
       cx="169.57408"
       id="circle6352"
       style="color:#000000;clip-rule:nonzero;display:inline;overflow:visible;visibility:visible;opacity:1;isolation:auto;mix-blend-mode:normal;color-interpolation:sRGB;color-interpolation-filters:linearRGB;solid-color:#000000;solid-opacity:1;fill:#ed3124;fill-opacity:1;fill-rule:nonzero;stroke:none;stroke-width:0.01;stroke-linecap:butt;stroke-linejoin:miter;stroke-miterlimit:4;stroke-dasharray:none;stroke-dashoffset:0;stroke-opacity:1;color-rendering:auto;image-rendering:auto;shape-rendering:auto;text-rendering:auto;enable-background:accumulate" />
    <path
       d="m 168.57331,215.35527 c 0.44978,-0.1216 0.70256,-0.22234 1.31024,-0.52189 2.13674,-1.05327 4.25676,-2.62842 5.51001,-4.09376 0.88919,-1.0397 1.34045,-1.92255 1.40094,-2.74079 0.062,-0.8396 -0.16944,-1.35828 -0.82197,-1.84201 -0.22624,-0.16771 -0.96779,-0.52949 -1.09373,-0.53359 -0.0288,-9.4e-4 -0.12161,-0.0272 -0.20653,-0.0585 -0.0849,-0.0313 -0.38891,-0.10404 -0.67551,-0.16171 -0.51956,-0.10467 -0.52627,-0.10488 -2.21959,-0.10557 -1.5917,-6.2e-4 -1.73363,0.004 -2.25817,0.089 -1.26123,0.20182 -2.17847,0.48117 -2.40583,0.73279 -0.15763,0.17458 -4.7e-4,0.40191 0.35542,0.51398 0.0859,0.027 0.70923,0.0559 1.62579,0.0746 1.52947,0.0317 2.57093,0.11515 3.06726,0.24606 0.12652,0.0333 0.26965,0.0607 0.318,0.0607 0.0483,0 0.25751,0.0541 0.46475,0.12032 0.8354,0.26664 1.15839,0.49897 1.24755,0.89735 0.21997,0.98295 -1.16665,2.77529 -3.70882,4.79401 -0.26587,0.21103 -0.66284,0.51416 -0.88217,0.67339 -0.98518,0.71524 -1.6367,1.30679 -1.71046,1.55303 -0.0519,0.17307 -0.0215,0.25196 0.12674,0.32821 0.12674,0.0651 0.23964,0.0601 0.55592,-0.0256 z m 9.36084,10.88597 c 1.19176,-0.16493 1.72068,-0.29836 2.29294,-0.57855 0.63845,-0.31258 1.09733,-0.77402 1.30786,-1.31516 0.0925,-0.23769 0.10489,-0.32239 0.10489,-0.71441 0,-0.38965 -0.0129,-0.48432 -0.11095,-0.76448 -0.14562,-0.42023 -0.22939,-0.58106 -0.56727,-1.08905 -0.34843,-0.52381 -1.25413,-1.64765 -2.16006,-2.68026 -1.14841,-1.30904 -1.40339,-1.61655 -1.66648,-2.00978 -0.24472,-0.36579 -0.33213,-0.53964 -0.41739,-0.82994 -0.15141,-0.51571 -0.057,-0.88409 0.27887,-1.08843 0.56162,-0.34164 1.24469,-0.42294 4.31501,-0.51342 0.98698,-0.0292 1.20082,-0.0462 1.44756,-0.11479 0.30103,-0.0839 0.4632,-0.20632 0.4632,-0.34932 0,-0.11024 -0.21983,-0.33933 -0.42556,-0.44358 -0.19324,-0.098 -0.81774,-0.26709 -1.13778,-0.30819 -0.10616,-0.0129 -0.32329,-0.0495 -0.48253,-0.0798 -0.91911,-0.17458 -2.05187,-0.26449 -2.97229,-0.23564 -1.77341,0.0556 -2.97002,0.41697 -3.7395,1.12939 -0.37542,0.34756 -0.56297,0.64044 -0.64434,1.00611 -0.2063,0.92779 0.32156,2.03821 1.83255,3.85417 0.28901,0.34734 0.50943,0.60689 1.37688,1.62124 1.13499,1.32724 1.52665,1.89427 1.69118,2.44854 0.0821,0.27636 0.0784,0.47563 -0.0105,0.65076 -0.10056,0.19623 -0.21457,0.29284 -0.48589,0.41218 -0.60656,0.26678 -1.45987,0.35883 -4.47813,0.48304 -0.50955,0.0215 -1.16094,0.048 -1.44756,0.0601 -0.53584,0.0226 -1.23488,0.08 -1.45785,0.11989 -0.18208,0.0326 -0.35642,0.20845 -0.35642,0.35982 0,0.0671 0.0172,0.15528 0.0392,0.1956 0.0654,0.12224 0.34793,0.26091 0.69436,0.34087 0.30262,0.07 0.54268,0.10697 1.65962,0.25662 0.42193,0.0566 2.02024,0.20225 2.48979,0.22699 0.44348,0.0234 2.29655,-0.0129 2.56699,-0.0506 z m -17.83383,2.52467 c 0.94213,-0.17392 2.73312,-0.79103 3.92527,-1.35269 0.11024,-0.0519 0.21211,-0.0943 0.22683,-0.0943 0.0472,0 1.5664,-0.77228 2.02413,-1.02899 2.73024,-1.53131 4.67913,-3.3503 5.68021,-5.30162 0.30267,-0.59 0.43427,-0.92265 0.53448,-1.35105 0.1259,-0.5377 0.0913,-0.85951 -0.14347,-1.34217 -0.43496,-0.89377 -1.66493,-1.49532 -3.64796,-1.78415 -1.35797,-0.19772 -3.23045,-0.14283 -4.56562,0.13404 -0.14862,0.0308 -0.33969,0.0674 -0.42461,0.0813 -0.27067,0.0444 -1.07312,0.24178 -1.29651,0.31891 -0.30396,0.10509 -0.45999,0.18916 -0.6046,0.32648 -0.14712,0.13962 -0.15914,0.25265 -0.0387,0.36288 0.27405,0.25059 0.51614,0.27851 2.44154,0.28144 1.63605,0.002 2.88791,0.0787 3.49342,0.21254 1.54631,0.342 2.06048,0.74638 2.06105,1.62096 6.3e-4,0.87268 -0.75152,2.05749 -2.08366,3.28253 -0.71453,0.65708 -1.31106,1.11887 -2.10046,1.62602 -0.54534,0.35035 -0.66386,0.41696 -1.25457,0.70524 -0.69776,0.34055 -1.08135,0.47138 -1.45136,0.49502 -0.2711,0.0172 -0.2999,0.0129 -0.37968,-0.0727 -0.0713,-0.0755 -0.0825,-0.12031 -0.0643,-0.25663 0.048,-0.35965 0.45962,-1.38031 0.79638,-1.97459 0.0843,-0.14884 0.15335,-0.28005 0.15335,-0.29178 0,-0.0281 0.90199,-1.61061 1.0453,-1.83391 0.0614,-0.0956 0.12331,-0.19988 0.13768,-0.2316 0.015,-0.0317 0.0987,-0.17952 0.18722,-0.32814 0.29593,-0.49631 0.51476,-0.99858 0.54271,-1.2457 0.0342,-0.30186 -0.0423,-0.39485 -0.32418,-0.39485 -0.35258,0 -0.73695,0.3245 -1.33168,1.12422 -0.79538,1.06956 -1.80076,2.53215 -2.43789,3.54655 -0.0467,0.0741 -0.14626,0.23064 -0.22125,0.34741 -0.0751,0.11667 -0.17071,0.2731 -0.21296,0.34742 -0.0421,0.0741 -0.24386,0.42641 -0.44846,0.78248 -0.2046,0.35605 -0.37201,0.65765 -0.37201,0.67023 0,0.0129 -0.0897,0.18166 -0.19903,0.37556 -0.51503,0.91253 -0.88177,1.76582 -0.88177,2.05165 0,0.11106 0.0228,0.15012 0.12546,0.21517 0.10954,0.0695 0.16664,0.0768 0.45355,0.0584 0.18037,-0.0105 0.47578,-0.0482 0.65623,-0.0815 z"
       style="fill:#ffffff"
       id="path6383" />
  </g>
</svg>
