<?xml version="1.0" encoding="UTF-8" standalone="no"?>
<svg
   xmlns:dc="http://purl.org/dc/elements/1.1/"
   xmlns:cc="http://creativecommons.org/ns#"
   xmlns:rdf="http://www.w3.org/1999/02/22-rdf-syntax-ns#"
   xmlns:svg="http://www.w3.org/2000/svg"
   xmlns="http://www.w3.org/2000/svg"
   xmlns:xlink="http://www.w3.org/1999/xlink"
   version="1.1"
   id="svg7719"
   viewBox="0 0 31.215003 42.91797"
   width="8.8095675mm"
   height="12.112405mm">
  <defs
     id="defs7725">
    <linearGradient
       gradientTransform="translate(60,0)"
       y2="851.36548"
       x2="52.413036"
       y1="871.51807"
       x1="31.627861"
       gradientUnits="userSpaceOnUse"
       id="linearGradient7337"
       xlink:href="#linearGradient7214" />
    <linearGradient
       id="linearGradient7214">
      <stop
         id="stop7216"
         offset="0"
         style="stop-color:#782167;stop-opacity:1" />
      <stop
         id="stop7218"
         offset="1"
         style="stop-color:#ff8080;stop-opacity:1" />
    </linearGradient>
  </defs>
  <metadata
     id="metadata7721">
    <rdf:RDF>
      <cc:Work
         rdf:about="">
        <dc:format>image/svg+xml</dc:format>
        <dc:type
           rdf:resource="http://purl.org/dc/dcmitype/StillImage" />
        <dc:title></dc:title>
      </cc:Work>
    </rdf:RDF>
  </metadata>
  <g
     id="g7514"
     transform="translate(-87.031667,-845.8164)">
    <path
       id="path7319"
       d="m 102.63917,845.8164 a 15.60707,15.60707 0 0 0 -15.607503,15.60547 15.60707,15.60707 0 0 0 0.041,1.11914 c 0.8363,12.56323 15.566503,17.71422 15.566503,26.19336 0,-8.36334 14.3255,-13.49165 15.5195,-25.68555 a 15.60707,15.60707 0 0 0 0.012,-0.11523 c 0.045,-0.49311 0.076,-0.99487 0.076,-1.51172 a 15.60707,15.60707 0 0 0 -15.6074,-15.60547 z"
       style="fill:url(#linearGradient7337);fill-opacity:1;fill-rule:evenodd;stroke:none;stroke-width:1px;stroke-linecap:butt;stroke-linejoin:miter;stroke-opacity:1" />
    <path
       id="path7354"
       d="m 100.45198,876.34162 c -0.0866,-0.0866 -0.0175,-0.20424 0.3347,-0.56871 0.2047,-0.21182 0.41113,-0.46189 0.45871,-0.55568 0.16592,-0.32716 0.24364,-1.10834 0.37695,-3.78914 0.0268,-0.54098 0.0871,-1.24936 0.13383,-1.57419 l 0.085,-0.59056 -0.15862,-0.18066 c -0.21296,-0.24255 -0.76495,-1.07293 -1.21291,-1.82466 -0.2797,-0.46932 -0.41541,-0.64647 -0.576132,-0.75214 -0.281008,-0.18471 -1.875939,-1.44975 -2.114228,-1.67689 l -0.188926,-0.18011 -0.138989,0.11083 c -1.114589,0.88948 -2.148392,1.16657 -3.055335,0.81892 -0.357246,-0.13693 -0.851921,-0.5817 -1.144125,-1.02865 -0.212273,-0.32465 -0.491211,-0.97048 -0.440891,-1.02078 0.01621,-0.0162 0.152299,-0.003 0.302638,0.0275 0.243461,0.0505 0.358264,0.0394 1.050665,-0.10239 1.318946,-0.27004 2.016446,-0.22224 2.643684,0.18119 0.309315,0.19895 0.42238,0.32022 0.646783,0.69364 0.152181,0.25321 0.221087,0.31395 0.533924,0.47043 0.197545,0.0989 0.625594,0.37062 0.951181,0.60394 0.325577,0.23333 0.617927,0.42452 0.649668,0.42491 0.03173,3.7e-4 -0.129859,-0.41358 -0.358916,-0.91989 -0.626725,-1.38491 -1.527399,-3.79539 -1.472216,-3.94018 0.01931,-0.0505 0.434028,0.77058 0.767245,1.51898 0.06481,0.14562 0.136486,0.26481 0.15917,0.26481 0.02273,0 0.06931,-0.11909 0.103631,-0.26481 0.129117,-0.54797 0.587096,-0.95171 1.415859,-1.24815 0.40942,-0.14652 0.55946,-0.22167 0.82569,-0.41391 0.0471,-0.0341 0.10396,-0.0439 0.12602,-0.0218 0.0639,0.0638 0.0798,1.00188 0.0208,1.22145 -0.12351,0.45861 -0.49002,0.84175 -0.97393,1.01806 -0.12425,0.0452 -0.449162,0.0888 -0.759391,0.10149 -0.298223,0.0118 -0.542245,0.0432 -0.542245,0.0685 0,0.15461 0.980139,1.88355 1.453946,2.56467 0.18295,0.263 0.49723,0.65045 0.69836,0.861 0.34731,0.36353 0.82277,0.69102 0.91789,0.63224 0.0638,-0.0395 0.0873,-0.22886 0.25802,-2.07229 0.2299,-2.48325 0.35625,-3.50672 0.6645,-5.38278 0.0624,-0.38043 0.10194,-0.70335 0.0879,-0.71761 -0.0147,-0.0147 -0.14939,0.0219 -0.30035,0.0803 -0.38795,0.15021 -1.16106,0.1869 -1.51292,0.0718 -0.53159,-0.17389 -0.83501,-0.48388 -1.06016,-1.0831 -0.109252,-0.29055 -0.19515,-1.01414 -0.12056,-1.01414 0.02295,0 0.13413,0.0441 0.24688,0.0979 0.11703,0.0558 0.42097,0.12146 0.70776,0.15276 1.152,0.12586 1.68083,0.3917 1.97508,0.99312 0.0943,0.19287 0.1481,0.25722 0.17488,0.20938 0.0213,-0.038 0.0538,-0.34075 0.0722,-0.67282 0.0491,-0.8807 -0.0407,-1.26488 -0.55999,-2.3979 -0.1269,-0.27673 -0.22092,-0.53102 -0.20904,-0.56509 0.0118,-0.0341 0.16039,0.15185 0.33003,0.41319 0.30929,0.47646 0.5465,1.03851 0.66693,1.58035 0.0353,0.15952 0.085,0.29003 0.10994,0.29003 0.0926,0 0.34434,-0.66994 0.71232,-1.8949 0.62122,-2.06807 0.65941,-2.05472 0.23989,0.0838 -0.72534,3.69748 -1.08169,6.20465 -1.14637,8.06586 -0.03,0.86449 0.0221,1.57432 0.12308,1.67528 0.12572,0.12572 2.12466,-1.07565 2.59236,-1.55813 l 0.18692,-0.19282 0.15533,-1.17321 c 0.1471,-1.11119 0.23322,-1.54937 0.25506,-1.29845 0.005,0.0555 0.005,0.53218 0,1.05929 -0.0118,1.14219 0.003,1.18672 0.33469,1.03682 0.21023,-0.0951 0.30025,-0.15265 1.36395,-0.8717 0.31109,-0.21029 0.66859,-0.42168 0.79447,-0.46975 l 0.22881,-0.0874 0,-0.46175 c 0,-1.6347 1.00896,-2.69023 3.3544,-3.50924 0.88288,-0.3083 1.20083,-0.47745 1.48784,-0.79144 0.21599,-0.23634 0.25328,-0.25934 0.29362,-0.18108 0.19542,0.37877 0.25146,1.92807 0.0941,2.59925 -0.14445,0.61567 -0.39342,1.06225 -0.83684,1.50101 -0.44418,0.43949 -0.87373,0.68535 -1.54493,0.88431 -0.56006,0.166 -1.63289,0.22384 -2.34555,0.12646 l -0.4534,-0.0619 -0.44072,0.36126 c -0.24238,0.19869 -1.01385,0.82785 -1.71433,1.39814 -0.70054,0.57028 -1.27367,1.04548 -1.27367,1.056 0,0.0101 0.15458,0.005 0.34354,-0.0133 0.6632,-0.0617 1.19266,0.19851 2.06604,1.01507 0.33882,0.31678 0.62416,0.54063 0.73638,0.57765 0.10082,0.0332 0.18318,0.0791 0.18318,0.10217 0,0.068 -0.55536,0.41609 -0.8823,0.55326 -0.25492,0.10701 -0.38323,0.12735 -0.8075,0.12794 -0.42524,5.7e-4 -0.54132,-0.0173 -0.7396,-0.11511 -0.51031,-0.2514 -0.94611,-0.77246 -1.20708,-1.44331 -0.0759,-0.19511 -0.16228,-0.36284 -0.19187,-0.3727 -0.0563,-0.0187 -1.49422,1.04599 -1.82555,1.35178 l -0.19127,0.17655 -0.10329,1.2106 c -0.17417,2.03981 -0.21963,3.03034 -0.19096,4.16144 0.0392,1.54828 0.2262,2.45907 0.64815,3.15714 0.16464,0.27238 0.56896,0.69427 0.874,0.912 0.12809,0.0914 0.13988,0.11806 0.083,0.18666 -0.0582,0.0702 -0.22842,0.59838 -1.62951,0.59268 -1.45417,-0.006 -1.95716,-0.16028 -2.48729,-0.38206 -0.0834,0.017 -0.16855,0.0133 -0.18916,-0.006 z m -5.369537,-15.22926 c -1.258825,-0.27357 -1.976872,-1.25357 -2.11281,-2.88364 -0.01887,-0.22657 -0.0196,-0.45029 -0.0015,-0.49715 0.02904,-0.0756 0.05261,-0.0702 0.207866,0.0485 0.255666,0.19498 0.523814,0.27539 1.286535,0.38576 0.899175,0.13015 1.401323,0.26258 1.892991,0.49938 0.702703,0.33841 1.157273,0.91678 1.314952,1.67299 0.08269,0.39687 0.06928,0.49718 -0.06648,0.49723 -0.04937,2e-5 -0.208898,0.0452 -0.354417,0.10048 -0.611321,0.23234 -1.555878,0.30925 -2.16708,0.17641 z m 11.470907,-0.66931 c -0.13501,-0.14917 -0.32706,-0.6258 -0.36263,-0.89983 -0.0185,-0.14194 -0.009,-0.38808 0.0199,-0.54697 0.10139,-0.54824 0.3573,-0.95287 1.29349,-2.04494 0.17317,-0.20198 0.30329,-0.41018 0.33889,-0.54223 0.0317,-0.11792 0.0871,-0.21438 0.12306,-0.21438 0.0917,0 0.49131,0.5569 0.6647,0.92638 0.58658,1.25007 0.12012,2.41396 -1.24538,3.10791 -0.23926,0.1216 -0.68294,0.3037 -0.73988,0.3037 -0.006,0 -0.0476,-0.0404 -0.0923,-0.0897 z m -6.08841,-5.78456 c -0.665313,-0.14223 -1.158544,-0.38849 -1.553613,-0.77582 -0.48288,-0.47342 -0.716257,-1.10972 -0.716257,-1.9528 0,-0.47509 0.120711,-1.26995 0.206114,-1.35755 0.02993,-0.0306 0.103856,0.02 0.201748,0.13884 0.200094,0.24274 0.428578,0.37298 1.24958,0.71224 1.734898,0.71691 2.429848,1.49568 2.427548,2.72036 0,0.2264 -0.0213,0.44409 -0.0462,0.48372 -0.0657,0.10397 -1.32433,0.12603 -1.76876,0.0311 z m 4.82193,-1.12786 c -0.55333,-0.10667 -0.57477,-0.13752 -0.49345,-0.71267 0.19732,-1.39524 1.06316,-2.14039 3.13689,-2.69959 0.81835,-0.22068 1.17317,-0.37495 1.42404,-0.61918 0.10363,-0.10082 0.20569,-0.16585 0.227,-0.14459 0.0213,0.0213 0.0461,0.37997 0.0551,0.7972 0.0118,0.57333 -0.004,0.85257 -0.0684,1.14349 -0.24164,1.09764 -0.86013,1.79337 -1.91566,2.15487 -0.35701,0.12234 -0.4895,0.13973 -1.1597,0.15257 -0.5574,0.0101 -0.87488,-0.009 -1.20583,-0.0721 z"
       style="fill:#ffffff" />
  </g>
</svg>
