<?xml version="1.0" encoding="UTF-8" standalone="no"?>
<svg
   xmlns:dc="http://purl.org/dc/elements/1.1/"
   xmlns:cc="http://creativecommons.org/ns#"
   xmlns:rdf="http://www.w3.org/1999/02/22-rdf-syntax-ns#"
   xmlns:svg="http://www.w3.org/2000/svg"
   xmlns="http://www.w3.org/2000/svg"
   version="1.1"
   id="svg8487"
   viewBox="0 0 31.214841 42.91797"
   width="8.8095217mm"
   height="12.112405mm">
  <defs
     id="defs8493" />
  <metadata
     id="metadata8489">
    <rdf:RDF>
      <cc:Work
         rdf:about="">
        <dc:format>image/svg+xml</dc:format>
        <dc:type
           rdf:resource="http://purl.org/dc/dcmitype/StillImage" />
        <dc:title></dc:title>
      </cc:Work>
    </rdf:RDF>
  </metadata>
  <g
     id="g8459"
     transform="translate(-685.30994,-280.95987)">
    <path
       style="color:#000000;clip-rule:nonzero;display:inline;overflow:visible;visibility:visible;opacity:1;isolation:auto;mix-blend-mode:normal;color-interpolation:sRGB;color-interpolation-filters:linearRGB;solid-color:#000000;solid-opacity:1;fill:#fe767b;fill-opacity:1;fill-rule:evenodd;stroke:none;stroke-width:1px;stroke-linecap:butt;stroke-linejoin:miter;stroke-miterlimit:4;stroke-dasharray:none;stroke-dashoffset:0;stroke-opacity:1;color-rendering:auto;image-rendering:auto;shape-rendering:auto;text-rendering:auto;enable-background:accumulate"
       d="m 700.91736,280.95987 a 15.60707,15.60707 0 0 0 -15.60742,15.60547 15.60707,15.60707 0 0 0 0.041,1.11914 c 0.83623,12.56323 15.56641,17.71422 15.56641,26.19336 0,-8.36334 14.32556,-13.49165 15.51953,-25.68555 a 15.60707,15.60707 0 0 0 0.0117,-0.11523 c 0.0447,-0.49311 0.0762,-0.99487 0.0762,-1.51172 a 15.60707,15.60707 0 0 0 -15.60742,-15.60547 z"
       id="path8416" />
    <g
       id="g8446"
       transform="matrix(1.3088735,0,0,1.3088735,-215.93088,-93.571738)">
      <path
         style="fill:#ffffff;fill-rule:evenodd;stroke:none;stroke-width:0.70669842;stroke-linecap:butt;stroke-linejoin:miter;stroke-miterlimit:4;stroke-dasharray:none;stroke-opacity:1"
         d="m 692.85447,294.27246 0,8.66167 7.73854,4.46785 7.52556,-4.34489 0,-8.70134 -7.71129,-4.45212 z"
         id="path8444" />
      <path
         id="path8436"
         d="m 693.14481,298.84226 c 0,0 0.91281,-2.91513 2.47344,-3.00347 1.56063,-0.0883 3.38626,6.3014 4.97634,6.27195 1.59007,-0.0294 2.94457,-4.32853 5.00578,-4.44631 2.0612,-0.11778 2.49993,2.46579 2.49993,2.46579 l 0.0183,2.92687 -7.52556,4.34489 -7.73854,-4.46785 z"
         style="fill:#36a2eb;fill-opacity:1;fill-rule:evenodd;stroke:none;stroke-width:1px;stroke-linecap:butt;stroke-linejoin:miter;stroke-opacity:1" />
      <path
         id="path8434"
         d="m 692.85447,294.27246 0,8.66167 7.73854,4.46785 7.52556,-4.34489 0,-8.70134 -7.71129,-4.45212 z"
         style="fill:none;fill-rule:evenodd;stroke:#ffce56;stroke-width:0.70669842;stroke-linecap:butt;stroke-linejoin:miter;stroke-miterlimit:4;stroke-dasharray:none;stroke-opacity:1" />
    </g>
  </g>
</svg>
