<?xml version="1.0" encoding="UTF-8" standalone="no"?>
<svg
   xmlns:dc="http://purl.org/dc/elements/1.1/"
   xmlns:cc="http://creativecommons.org/ns#"
   xmlns:rdf="http://www.w3.org/1999/02/22-rdf-syntax-ns#"
   xmlns:svg="http://www.w3.org/2000/svg"
   xmlns="http://www.w3.org/2000/svg"
   version="1.1"
   id="svg8544"
   viewBox="0 0 31.214827 31.214827"
   width="8.8095179mm"
   height="8.8095179mm">
  <defs
     id="defs8550" />
  <metadata
     id="metadata8546">
    <rdf:RDF>
      <cc:Work
         rdf:about="">
        <dc:format>image/svg+xml</dc:format>
        <dc:type
           rdf:resource="http://purl.org/dc/dcmitype/StillImage" />
        <dc:title></dc:title>
      </cc:Work>
    </rdf:RDF>
  </metadata>
  <g
     id="g8466"
     transform="translate(-685.30995,-337.33592)">
    <circle
       r="15.607413"
       cy="352.94333"
       cx="700.91736"
       id="circle8422"
       style="color:#000000;clip-rule:nonzero;display:inline;overflow:visible;visibility:visible;opacity:1;isolation:auto;mix-blend-mode:normal;color-interpolation:sRGB;color-interpolation-filters:linearRGB;solid-color:#000000;solid-opacity:1;fill:#fe767b;fill-opacity:1;fill-rule:evenodd;stroke:none;stroke-width:1px;stroke-linecap:butt;stroke-linejoin:miter;stroke-miterlimit:4;stroke-dasharray:none;stroke-dashoffset:0;stroke-opacity:1;color-rendering:auto;image-rendering:auto;shape-rendering:auto;text-rendering:auto;enable-background:accumulate" />
    <g
       transform="matrix(1.3088735,0,0,1.3088735,-215.93088,-37.95535)"
       id="g8451">
      <path
         id="path8453"
         d="m 692.85447,294.27246 0,8.66167 7.73854,4.46785 7.52556,-4.34489 0,-8.70134 -7.71129,-4.45212 z"
         style="fill:#ffffff;fill-rule:evenodd;stroke:none;stroke-width:0.70669842;stroke-linecap:butt;stroke-linejoin:miter;stroke-miterlimit:4;stroke-dasharray:none;stroke-opacity:1" />
      <path
         style="fill:#36a2eb;fill-opacity:1;fill-rule:evenodd;stroke:none;stroke-width:1px;stroke-linecap:butt;stroke-linejoin:miter;stroke-opacity:1"
         d="m 693.14481,298.84226 c 0,0 0.91281,-2.91513 2.47344,-3.00347 1.56063,-0.0883 3.38626,6.3014 4.97634,6.27195 1.59007,-0.0294 2.94457,-4.32853 5.00578,-4.44631 2.0612,-0.11778 2.49993,2.46579 2.49993,2.46579 l 0.0183,2.92687 -7.52556,4.34489 -7.73854,-4.46785 z"
         id="path8455" />
      <path
         style="fill:none;fill-rule:evenodd;stroke:#ffce56;stroke-width:0.70669842;stroke-linecap:butt;stroke-linejoin:miter;stroke-miterlimit:4;stroke-dasharray:none;stroke-opacity:1"
         d="m 692.85447,294.27246 0,8.66167 7.73854,4.46785 7.52556,-4.34489 0,-8.70134 -7.71129,-4.45212 z"
         id="path8457" />
    </g>
  </g>
</svg>
