<?xml version="1.0" encoding="UTF-8" standalone="no"?>
<svg
   xmlns:dc="http://purl.org/dc/elements/1.1/"
   xmlns:cc="http://creativecommons.org/ns#"
   xmlns:rdf="http://www.w3.org/1999/02/22-rdf-syntax-ns#"
   xmlns:svg="http://www.w3.org/2000/svg"
   xmlns="http://www.w3.org/2000/svg"
   version="1.1"
   id="svg6985"
   viewBox="0 0 31.214844 42.91797"
   width="8.8095226mm"
   height="12.112405mm">
  <defs
     id="defs6991" />
  <metadata
     id="metadata6987">
    <rdf:RDF>
      <cc:Work
         rdf:about="">
        <dc:format>image/svg+xml</dc:format>
        <dc:type
           rdf:resource="http://purl.org/dc/dcmitype/StillImage" />
        <dc:title></dc:title>
      </cc:Work>
    </rdf:RDF>
  </metadata>
  <g
     id="g6947"
     transform="translate(-99.309935,-280.95987)">
    <path
       id="path6368"
       d="m 114.91736,280.95987 a 15.60707,15.60707 0 0 0 -15.607425,15.60547 15.60707,15.60707 0 0 0 0.041,1.11914 c 0.836235,12.56323 15.566415,17.71422 15.566415,26.19336 0,-8.36334 14.32556,-13.49165 15.51953,-25.68555 a 15.60707,15.60707 0 0 0 0.0117,-0.11523 c 0.0447,-0.49311 0.0762,-0.99487 0.0762,-1.51172 a 15.60707,15.60707 0 0 0 -15.60742,-15.60547 z"
       style="fill:#e44d26;fill-opacity:1;fill-rule:evenodd;stroke:none;stroke-width:1px;stroke-linecap:butt;stroke-linejoin:miter;stroke-opacity:1" />
    <path
       style="fill:#ebebeb;fill-opacity:1;fill-rule:evenodd;stroke:none;stroke-width:0.55062187px;stroke-linecap:butt;stroke-linejoin:miter;stroke-opacity:1"
       d="m 125.24358,287.26144 -20.6577,0 1.24788,12.37697 14.16062,0 -0.43404,5.31701 -4.6117,1.30213 -4.50319,-1.35638 -0.21701,-3.20106 -4.23191,0 0.5968,6.40212 8.35531,2.44148 8.57233,-2.38723 1.03085,-12.64147 -15.02871,0 -0.16276,-4.23191 15.40849,0 z"
       id="path6399" />
  </g>
</svg>
