<?xml version="1.0" encoding="UTF-8" standalone="no"?>
<svg
   xmlns:dc="http://purl.org/dc/elements/1.1/"
   xmlns:cc="http://creativecommons.org/ns#"
   xmlns:rdf="http://www.w3.org/1999/02/22-rdf-syntax-ns#"
   xmlns:svg="http://www.w3.org/2000/svg"
   xmlns="http://www.w3.org/2000/svg"
   version="1.1"
   id="svg6254"
   viewBox="0 0 31.214841 42.91797"
   width="8.8095217mm"
   height="12.112405mm">
  <defs
     id="defs6260" />
  <metadata
     id="metadata6256">
    <rdf:RDF>
      <cc:Work
         rdf:about="">
        <dc:format>image/svg+xml</dc:format>
        <dc:type
           rdf:resource="http://purl.org/dc/dcmitype/StillImage" />
        <dc:title></dc:title>
      </cc:Work>
    </rdf:RDF>
  </metadata>
  <g
     transform="translate(-401.48438,109.2168)"
     id="g6234">
    <path
       id="path6052"
       d="m 417.0918,-109.2168 a 15.60707,15.60707 0 0 0 -15.60742,15.60547 15.60707,15.60707 0 0 0 0.041,1.11914 c 0.83623,12.56323 15.56641,17.71422 15.56641,26.19336 0,-8.36334 14.32556,-13.49165 15.51953,-25.68555 a 15.60707,15.60707 0 0 0 0.0117,-0.11523 c 0.0447,-0.49311 0.0762,-0.99487 0.0762,-1.51172 A 15.60707,15.60707 0 0 0 417.0918,-109.2168 Z"
       style="fill:#1a1a1a;fill-rule:evenodd;stroke:none;stroke-width:1px;stroke-linecap:butt;stroke-linejoin:miter;stroke-opacity:1" />
    <path
       id="path6021"
       d="m 414.37256,-104.97997 -9.76754,10.001492 c -3.6984,3.697236 2.39447,3.389128 4.59927,4.787446 1.01943,0.663607 -3.27165,1.516815 -2.39446,2.393724 0.85347,0.876908 5.14455,1.682713 5.99802,2.53592 0.85348,0.876897 -1.73065,1.801209 -0.87718,2.678117 0.82977,0.876909 2.82121,0.04736 3.17682,2.038213 0.26079,1.469411 3.65098,0.734711 5.16826,-0.521398 0.94832,-0.805816 -1.63582,-0.805816 -0.78234,-1.682713 2.13368,-2.15672 4.03029,-0.971715 4.81265,-2.962524 0.42673,-1.066509 -3.22425,-1.824922 -2.25224,-2.512219 2.32335,-1.635322 10.8581,-2.464828 6.92264,-6.399067 L 418.8533,-104.97997 c -1.2565,-1.185 -3.31907,-1.185 -4.48074,0 z m 11.2137,19.268277 c 0,0.497708 3.86435,0.782102 3.65097,-0.118448 -0.30819,-1.516802 -3.22423,-1.398307 -3.65097,0.118448 z m -16.4768,2.630714 c 0.87719,0.758413 2.20481,-0.165899 2.63155,-1.232408 -0.85347,-1.1139 -4.00658,0.07109 -2.63155,1.232408 z m 16.00265,-1.587907 c -1.09056,0.995405 0.18966,2.038212 1.25651,1.350904 0.28449,-0.1896 -0.0237,-1.113912 -1.25651,-1.350904 z"
       style="opacity:1;fill:#ffffff;fill-opacity:1" />
  </g>
</svg>
