<?xml version="1.0" encoding="UTF-8" standalone="no"?>
<svg
   xmlns:dc="http://purl.org/dc/elements/1.1/"
   xmlns:cc="http://creativecommons.org/ns#"
   xmlns:rdf="http://www.w3.org/1999/02/22-rdf-syntax-ns#"
   xmlns:svg="http://www.w3.org/2000/svg"
   xmlns="http://www.w3.org/2000/svg"
   xmlns:xlink="http://www.w3.org/1999/xlink"
   height="12.112405mm"
   width="8.8095665mm"
   viewBox="0 0 31.214999 42.91797"
   id="svg8060"
   version="1.1">
  <defs
     id="defs8066">
    <linearGradient
       xlink:href="#linearGradient7214"
       id="linearGradient7455"
       gradientUnits="userSpaceOnUse"
       gradientTransform="translate(-27.03167,-845.8164)"
       x1="31.627861"
       y1="871.51807"
       x2="52.413036"
       y2="851.36548" />
    <linearGradient
       id="linearGradient7214">
      <stop
         style="stop-color:#782167;stop-opacity:1"
         offset="0"
         id="stop7216" />
      <stop
         style="stop-color:#ff8080;stop-opacity:1"
         offset="1"
         id="stop7218" />
    </linearGradient>
  </defs>
  <metadata
     id="metadata8062">
    <rdf:RDF>
      <cc:Work
         rdf:about="">
        <dc:format>image/svg+xml</dc:format>
        <dc:type
           rdf:resource="http://purl.org/dc/dcmitype/StillImage" />
        <dc:title></dc:title>
      </cc:Work>
    </rdf:RDF>
  </metadata>
  <g
     id="text7459"
     style="font-style:normal;font-variant:normal;font-weight:bold;font-stretch:normal;font-size:20.84570122px;line-height:125%;font-family:sans-serif;-inkscape-font-specification:'sans-serif Bold';letter-spacing:0px;word-spacing:0px;fill:#ffffff;fill-opacity:1;stroke:none;stroke-width:1px;stroke-linecap:butt;stroke-linejoin:miter;stroke-opacity:1">
    <g
       id="g6054">
      <path
         style="fill:url(#linearGradient7455);fill-opacity:1;fill-rule:evenodd;stroke:none;stroke-width:1px;stroke-linecap:butt;stroke-linejoin:miter;stroke-opacity:1"
         d="M 15.6075,0 A 15.60707,15.60707 0 0 0 0,15.60547 15.60707,15.60707 0 0 0 0.041,16.72461 c 0.8363,12.56323 15.5665,17.71422 15.5665,26.19336 0,-8.36334 14.3255,-13.49165 15.5195,-25.68555 a 15.60707,15.60707 0 0 0 0.012,-0.11523 c 0.045,-0.49311 0.076,-0.99487 0.076,-1.51172 A 15.60707,15.60707 0 0 0 15.6076,0 Z"
         id="path7447" />
      <path
         d="m 13.616066,22.78757 0,2.290177 -2.208748,0 q -2.2189274,0 -3.2367839,-0.895714 Q 7.1526776,23.28632 7.1526776,21.321857 l 0,-1.954285 q 0,-1.526785 -0.5496425,-2.117141 -0.5496425,-0.600536 -1.9949988,-0.600536 l -0.6208924,0 0,-2.26982 0.6208924,0 q 1.4453563,0 1.9949988,-0.590357 0.5496425,-0.590356 0.5496425,-2.117141 l 0,-2.086606 q 0,-1.964463 1.0178565,-2.8499982 1.0178565,-0.8957137 3.2367839,-0.8957137 l 2.208748,0 0,2.2901771 -0.702321,0 q -1.435177,0 -1.872856,0.4478569 -0.427499,0.4376783 -0.427499,1.8830349 l 0,1.689641 q 0,1.598035 -0.458036,2.320713 -0.4580351,0.722678 -1.5776773,0.977142 1.1298207,0.274822 1.5776773,0.9975 0.458036,0.722678 0.458036,2.310534 l 0,1.689642 q 0,1.455535 0.427499,1.893213 0.437679,0.447857 1.872856,0.447857 l 0.702321,0 z"
         style=""
         id="path6049" />
      <path
         d="m 23.977846,24.426319 -6.320889,0 0,-2.290177 2.860177,0 0,-14.0057058 -2.860177,0 0,-2.2901771 6.320889,0 0,18.5860599 z"
         style=""
         id="path6051" />
    </g>
  </g>
</svg>
