<?xml version="1.0" encoding="UTF-8" standalone="no"?>
<svg
   xmlns:dc="http://purl.org/dc/elements/1.1/"
   xmlns:cc="http://creativecommons.org/ns#"
   xmlns:rdf="http://www.w3.org/1999/02/22-rdf-syntax-ns#"
   xmlns:svg="http://www.w3.org/2000/svg"
   xmlns="http://www.w3.org/2000/svg"
   version="1.1"
   id="svg7357"
   viewBox="0 0 31.214841 42.91797"
   width="8.8095217mm"
   height="12.112405mm">
  <defs
     id="defs7363" />
  <metadata
     id="metadata7359">
    <rdf:RDF>
      <cc:Work
         rdf:about="">
        <dc:format>image/svg+xml</dc:format>
        <dc:type
           rdf:resource="http://purl.org/dc/dcmitype/StillImage" />
        <dc:title></dc:title>
      </cc:Work>
    </rdf:RDF>
  </metadata>
  <g
     id="g7335"
     transform="translate(-183.30994,-280.95987)">
    <path
       id="path6441"
       d="m 198.91736,280.95987 a 15.60707,15.60707 0 0 0 -15.60742,15.60547 15.60707,15.60707 0 0 0 0.041,1.11914 c 0.83623,12.56323 15.56641,17.71422 15.56641,26.19336 0,-8.36334 14.32556,-13.49165 15.51953,-25.68555 a 15.60707,15.60707 0 0 0 0.0117,-0.11523 c 0.0447,-0.49311 0.0762,-0.99487 0.0762,-1.51172 a 15.60707,15.60707 0 0 0 -15.60742,-15.60547 z"
       style="fill:#ffda3e;fill-opacity:1;fill-rule:evenodd;stroke:none;stroke-width:1px;stroke-linecap:butt;stroke-linejoin:miter;stroke-opacity:1" />
    <path
       style="fill:#333333;fill-opacity:1;fill-rule:evenodd;stroke:none;stroke-width:1px;stroke-linecap:butt;stroke-linejoin:miter;stroke-opacity:1"
       d="m 188.18634,302.48552 6.23373,1.75453 0,-16.58898 2.90521,0 0,21.25141 -9.15836,-2.45397 z"
       id="path6445" />
    <path
       style="fill:#333333;fill-opacity:1;fill-rule:evenodd;stroke:none;stroke-width:1px;stroke-linecap:butt;stroke-linejoin:miter;stroke-opacity:1"
       d="m 199.95252,308.8441 8.67098,-2.32338 0.72869,-10.34573 -6.42214,0.87575 0,-5.66316 6.71406,0 0.46706,-3.85327 -10.10027,0 0,14.01192 6.36375,-1.22604 -0.29191,3.21106 -6.15744,1.64988 z"
       id="path6447" />
  </g>
</svg>
