<?xml version="1.0" encoding="UTF-8" standalone="no"?>
<!-- Created with Inkscape (http://www.inkscape.org/) -->

<svg
   xmlns:dc="http://purl.org/dc/elements/1.1/"
   xmlns:cc="http://creativecommons.org/ns#"
   xmlns:rdf="http://www.w3.org/1999/02/22-rdf-syntax-ns#"
   xmlns:svg="http://www.w3.org/2000/svg"
   xmlns="http://www.w3.org/2000/svg"
   xmlns:sodipodi="http://sodipodi.sourceforge.net/DTD/sodipodi-0.dtd"
   xmlns:inkscape="http://www.inkscape.org/namespaces/inkscape"
   width="10.331964mm"
   height="10mm"
   viewBox="0 0 10.331965 10"
   version="1.1"
   id="svg7607"
   inkscape:version="0.92.1 r15371"
   sodipodi:docname="logo_github.svg">
  <defs
     id="defs7601" />
  <sodipodi:namedview
     id="base"
     pagecolor="#ffffff"
     bordercolor="#666666"
     borderopacity="1.0"
     inkscape:pageopacity="0.0"
     inkscape:pageshadow="2"
     inkscape:zoom="0.35"
     inkscape:cx="135.30736"
     inkscape:cy="-242.60274"
     inkscape:document-units="mm"
     inkscape:current-layer="layer1"
     showgrid="false"
     fit-margin-top="0"
     fit-margin-left="0"
     fit-margin-right="0"
     fit-margin-bottom="0"
     inkscape:window-width="1366"
     inkscape:window-height="704"
     inkscape:window-x="0"
     inkscape:window-y="27"
     inkscape:window-maximized="1" />
  <metadata
     id="metadata7604">
    <rdf:RDF>
      <cc:Work
         rdf:about="">
        <dc:format>image/svg+xml</dc:format>
        <dc:type
           rdf:resource="http://purl.org/dc/dcmitype/StillImage" />
        <dc:title></dc:title>
      </cc:Work>
    </rdf:RDF>
  </metadata>
  <g
     inkscape:label="Calque 1"
     inkscape:groupmode="layer"
     id="layer1"
     transform="translate(-70.033259,-74.644692)">
    <path
       inkscape:connector-curvature="0"
       id="path7529"
       d="m 73.379344,84.562706 c -1.544059,-0.562567 -2.775321,-1.920618 -3.1855,-3.51352 -0.209161,-0.812269 -0.214205,-1.723868 -0.01392,-2.51616 0.463761,-1.834543 1.883497,-3.259285 3.716377,-3.729461 0.47418,-0.121641 0.779941,-0.158873 1.304703,-0.158873 0.524761,0 0.830522,0.03723 1.304699,0.158873 1.669329,0.428225 3.034314,1.681338 3.589703,3.295499 0.184912,0.537421 0.267676,1.043013 0.269784,1.648027 0.0049,1.397122 -0.519588,2.65826 -1.517816,3.649861 -0.510749,0.507362 -1.210481,0.950575 -1.856732,1.176081 -0.207045,0.07224 -0.238249,0.0771 -0.326033,0.05079 -0.169808,-0.05087 -0.171213,-0.05926 -0.171213,-1.02174 0,-0.538105 -0.0102,-0.897096 -0.02782,-0.979747 -0.03666,-0.171869 -0.129212,-0.379297 -0.219713,-0.492391 l -0.07294,-0.09116 0.08024,-0.01292 c 0.686693,-0.110734 1.048288,-0.237616 1.411871,-0.495438 0.432486,-0.306674 0.711986,-0.813734 0.808344,-1.466459 0.113205,-0.766836 -0.01694,-1.369077 -0.397021,-1.837342 l -0.08523,-0.105009 0.04275,-0.165777 c 0.08106,-0.314369 0.04445,-0.834349 -0.07967,-1.131415 l -0.03652,-0.08739 -0.189033,0.01396 c -0.286903,0.02119 -0.707753,0.187811 -1.087551,0.430575 l -0.135396,0.08654 -0.258478,-0.05231 c -0.386577,-0.07823 -0.635996,-0.102718 -1.046221,-0.102718 -0.410226,0 -0.659649,0.02448 -1.046226,0.102718 l -0.258477,0.05231 -0.135394,-0.08654 c -0.3798,-0.242765 -0.800649,-0.409387 -1.087551,-0.430576 l -0.189033,-0.01396 -0.03467,0.0834 c -0.128026,0.307948 -0.164589,0.815829 -0.08174,1.135404 l 0.04298,0.165777 -0.08554,0.105009 c -0.377766,0.463734 -0.509457,1.073628 -0.396714,1.837342 0.170579,1.155504 0.862176,1.776028 2.183877,1.959433 l 0.117748,0.01634 -0.06372,0.07573 c -0.09292,0.110421 -0.180975,0.295873 -0.216998,0.456979 l -0.03152,0.140991 -0.158563,0.05399 c -0.223964,0.07626 -0.400368,0.09391 -0.599426,0.05998 -0.304335,-0.05187 -0.523012,-0.211671 -0.739634,-0.540485 -0.211581,-0.321159 -0.480666,-0.50034 -0.776486,-0.517054 -0.132212,-0.0075 -0.171551,0 -0.220782,0.03942 -0.05795,0.04693 -0.05854,0.05059 -0.01811,0.112274 0.02299,0.03507 0.107046,0.108083 0.186816,0.162248 0.215931,0.146635 0.358675,0.323864 0.509235,0.632254 0.07342,0.150382 0.177646,0.323585 0.231624,0.384909 0.271211,0.30811 0.731098,0.450109 1.259002,0.388739 0.136286,-0.01585 0.263347,-0.03478 0.282359,-0.04207 0.02899,-0.0111 0.03456,0.06842 0.03456,0.492857 0,0.326052 -0.01,0.528006 -0.02803,0.567632 -0.02938,0.0645 -0.156522,0.138609 -0.234171,0.136516 -0.02503,-0.0011 -0.145213,-0.03756 -0.267066,-0.08195 z m -0.09828,-1.516625 c -0.02718,-0.04399 0.03971,-0.101862 0.10848,-0.09387 0.09889,0.01145 0.08749,0.103552 -0.01403,0.113419 -0.04273,0.0042 -0.08523,-0.0047 -0.09443,-0.01955 z m 0.415467,-0.03626 c -0.03776,-0.0276 -0.03954,-0.03861 -0.01168,-0.07216 0.04017,-0.04841 0.133883,-0.05164 0.171821,-0.0059 0.05161,0.06219 -0.08846,0.1305 -0.160132,0.0781 z m -0.803376,-0.01474 c -0.05737,-0.03408 -0.05469,-0.09001 0.0052,-0.109022 0.06469,-0.02054 0.153543,0.02978 0.143712,0.08138 -0.0093,0.04905 -0.08824,0.0637 -0.148936,0.02765 z M 72.543193,82.7759 c -0.04787,-0.05289 -0.03567,-0.124001 0.02125,-0.124001 0.05091,0 0.113308,0.06876 0.113308,0.124846 0,0.06264 -0.07756,0.06216 -0.134563,-0.0011 z m -0.245242,-0.285765 c -0.07586,-0.07585 -0.0314,-0.15782 0.05927,-0.109288 0.02926,0.01567 0.04974,0.05161 0.04974,0.08729 0,0.0698 -0.05094,0.08008 -0.109018,0.022 z m -0.20608,-0.286258 c -0.04503,-0.04503 -0.03527,-0.09355 0.01883,-0.09355 0.04945,0 0.110106,0.07949 0.08206,0.107542 -0.02441,0.02441 -0.06861,0.01827 -0.100886,-0.01398 z m -0.224657,-0.226743 c -0.0176,-0.02123 -0.01967,-0.04041 -0.0052,-0.04932 0.03536,-0.02186 0.101885,0.01064 0.101885,0.04976 0,0.04445 -0.05962,0.04418 -0.09665,0 z"
       style="fill:#333333;fill-opacity:1;stroke-width:0.02461701" />
  </g>
</svg>
