<?xml version="1.0" encoding="UTF-8" standalone="no"?>
<svg
   xmlns:dc="http://purl.org/dc/elements/1.1/"
   xmlns:cc="http://creativecommons.org/ns#"
   xmlns:rdf="http://www.w3.org/1999/02/22-rdf-syntax-ns#"
   xmlns:svg="http://www.w3.org/2000/svg"
   xmlns="http://www.w3.org/2000/svg"
   xmlns:xlink="http://www.w3.org/1999/xlink"
   version="1.1"
   id="svg8791"
   viewBox="0 0 31.214827 31.214827"
   width="8.8095179mm"
   height="8.8095179mm">
  <defs
     id="defs8797">
    <linearGradient
       gradientTransform="translate(-1067.9693,537.32901)"
       y2="-49.216293"
       x2="1197.829"
       y1="-28.116524"
       x1="1169.1483"
       gradientUnits="userSpaceOnUse"
       id="linearGradient6711"
       xlink:href="#linearGradient6680" />
    <linearGradient
       id="linearGradient6680">
      <stop
         id="stop6682"
         offset="0"
         style="stop-color:#714d91;stop-opacity:1;" />
      <stop
         id="stop6684"
         offset="1"
         style="stop-color:#9d4d91;stop-opacity:1" />
    </linearGradient>
  </defs>
  <metadata
     id="metadata8793">
    <rdf:RDF>
      <cc:Work
         rdf:about="">
        <dc:format>image/svg+xml</dc:format>
        <dc:type
           rdf:resource="http://purl.org/dc/dcmitype/StillImage" />
        <dc:title></dc:title>
      </cc:Work>
    </rdf:RDF>
  </metadata>
  <g
     id="g6732"
     transform="translate(-100.34299,-484.90308)">
    <circle
       cx="115.9504"
       cy="500.5105"
       r="15.607413"
       style="color:#000000;clip-rule:nonzero;display:inline;overflow:visible;visibility:visible;opacity:1;isolation:auto;mix-blend-mode:normal;color-interpolation:sRGB;color-interpolation-filters:linearRGB;solid-color:#000000;solid-opacity:1;fill:url(#linearGradient6711);fill-opacity:1;fill-rule:evenodd;stroke:none;stroke-width:1px;stroke-linecap:butt;stroke-linejoin:miter;stroke-miterlimit:4;stroke-dasharray:none;stroke-dashoffset:0;stroke-opacity:1;color-rendering:auto;image-rendering:auto;shape-rendering:auto;text-rendering:auto;enable-background:accumulate"
       id="circle6660" />
    <path
       style="color:#000000;font-style:normal;font-variant:normal;font-weight:normal;font-stretch:normal;font-size:medium;line-height:normal;font-family:sans-serif;text-indent:0;text-align:start;text-decoration:none;text-decoration-line:none;text-decoration-style:solid;text-decoration-color:#000000;letter-spacing:normal;word-spacing:normal;text-transform:none;direction:ltr;block-progression:tb;writing-mode:lr-tb;baseline-shift:baseline;text-anchor:start;white-space:normal;clip-rule:nonzero;display:inline;overflow:visible;visibility:visible;opacity:1;isolation:auto;mix-blend-mode:normal;color-interpolation:sRGB;color-interpolation-filters:linearRGB;solid-color:#000000;solid-opacity:1;fill:#ffffff;fill-opacity:1;fill-rule:evenodd;stroke:none;stroke-width:3.282552;stroke-linecap:round;stroke-linejoin:round;stroke-miterlimit:4;stroke-dasharray:none;stroke-dashoffset:0;stroke-opacity:1;color-rendering:auto;image-rendering:auto;shape-rendering:auto;text-rendering:auto;enable-background:accumulate"
       d="m 101.25142,505.70987 a 15.607413,15.607413 0 0 0 0.1523,0.45703 15.607413,15.607413 0 0 0 0.6368,1.42383 15.607413,15.607413 0 0 0 0.7773,1.35156 15.607413,15.607413 0 0 0 0.1172,0.16602 l 7.2441,-10.89258 2.5,3.75195 a 1.6414401,1.6414401 0 0 0 2.543,0.23242 l 4.8398,-4.98437 c 2.2975,5.83173 5.3413,9.74532 8.6309,12.28906 a 15.607413,15.607413 0 0 0 0.1387,-0.18164 15.607413,15.607413 0 0 0 0.8164,-1.33008 15.607413,15.607413 0 0 0 0.6758,-1.40039 c -3.0836,-2.48121 -6.0059,-6.29612 -8.1153,-12.8418 a 1.6414401,1.6414401 0 0 0 -1.6289,-1.13671 1.6414401,1.6414401 0 0 0 -1.1093,0.49609 l -5.1875,5.34375 -2.7403,-4.10938 a 1.6414401,1.6414401 0 0 0 -2.7324,0.002 l -7.5586,11.36328 z"
       id="path6728" />
  </g>
</svg>
