<?xml version="1.0" encoding="UTF-8" standalone="no"?>
<svg
   xmlns:dc="http://purl.org/dc/elements/1.1/"
   xmlns:cc="http://creativecommons.org/ns#"
   xmlns:rdf="http://www.w3.org/1999/02/22-rdf-syntax-ns#"
   xmlns:svg="http://www.w3.org/2000/svg"
   xmlns="http://www.w3.org/2000/svg"
   version="1.1"
   id="svg8073"
   viewBox="0 0 31.214827 31.214827"
   width="8.8095179mm"
   height="8.8095179mm">
  <defs
     id="defs8079" />
  <metadata
     id="metadata8075">
    <rdf:RDF>
      <cc:Work
         rdf:about="">
        <dc:format>image/svg+xml</dc:format>
        <dc:type
           rdf:resource="http://purl.org/dc/dcmitype/StillImage" />
        <dc:title></dc:title>
      </cc:Work>
    </rdf:RDF>
  </metadata>
  <g
     id="g6618"
     transform="translate(-439.30995,-337.33592)">
    <circle
       style="color:#000000;clip-rule:nonzero;display:inline;overflow:visible;visibility:visible;opacity:1;isolation:auto;mix-blend-mode:normal;color-interpolation:sRGB;color-interpolation-filters:linearRGB;solid-color:#000000;solid-opacity:1;fill:#00758f;fill-opacity:1;fill-rule:evenodd;stroke:none;stroke-width:1px;stroke-linecap:butt;stroke-linejoin:miter;stroke-miterlimit:4;stroke-dasharray:none;stroke-dashoffset:0;stroke-opacity:1;color-rendering:auto;image-rendering:auto;shape-rendering:auto;text-rendering:auto;enable-background:accumulate"
       id="circle6569"
       cx="454.91736"
       cy="352.94333"
       r="15.607413" />
    <path
       style="color:#000000;font-style:normal;font-variant:normal;font-weight:normal;font-stretch:normal;font-size:medium;line-height:normal;font-family:sans-serif;text-indent:0;text-align:start;text-decoration:none;text-decoration-line:none;text-decoration-style:solid;text-decoration-color:#000000;letter-spacing:normal;word-spacing:normal;text-transform:none;direction:ltr;block-progression:tb;writing-mode:lr-tb;baseline-shift:baseline;text-anchor:start;white-space:normal;clip-rule:nonzero;display:inline;overflow:visible;visibility:visible;opacity:1;isolation:auto;mix-blend-mode:normal;color-interpolation:sRGB;color-interpolation-filters:linearRGB;solid-color:#000000;solid-opacity:1;fill:#ffffff;fill-opacity:1;fill-rule:evenodd;stroke:none;stroke-width:2.40199995;stroke-linecap:round;stroke-linejoin:round;stroke-miterlimit:4;stroke-dasharray:none;stroke-dashoffset:0;stroke-opacity:1;color-rendering:auto;image-rendering:auto;shape-rendering:auto;text-rendering:auto;enable-background:accumulate"
       d="m 458.34766,368.15039 a 15.607413,15.607413 0 0 0 0.74414,-0.16797 15.607413,15.607413 0 0 0 1.48047,-0.49219 15.607413,15.607413 0 0 0 0.21679,-0.0976 c -1.91153,-2.14624 -3.73898,-4.08043 -4.47656,-6.87696 a 1.2011201,1.2011201 0 0 0 -2.35352,0.16993 l -0.5,4.32812 c 0.006,0.0196 -0.0623,-0.0458 -0.0312,0.006 -0.78991,-1.31257 -1.39656,-2.49555 -1.55664,-3.93359 -0.16008,-1.43803 0.1065,-3.21408 1.34961,-5.75586 a 1.2011201,1.2011201 0 0 0 -0.18945,-1.33594 c -2.20447,-2.42888 -3.54238,-7.0153 -5.98828,-9.93945 -0.29732,-0.35545 -0.18995,-0.17072 -0.15039,-0.21875 0.0396,-0.048 0.38356,-0.26949 0.93359,-0.22266 0.97148,0.0827 2.47017,1.18835 4.18164,2.09961 a 1.2011201,1.2011201 0 0 0 0.42774,0.13477 c 5.08088,0.57909 8.08638,2.88059 10.45507,6.11328 1.99874,2.72777 3.46875,6.16416 5.01563,9.61914 a 15.607413,15.607413 0 0 0 0.23047,-0.37696 c 0.44651,-0.73771 0.82469,-1.52154 1.19336,-2.31054 -1.29124,-2.89786 -2.63471,-5.80325 -4.50196,-8.35156 -2.58425,-3.52688 -6.27437,-6.27862 -11.7871,-7.00586 -1.36381,-0.75039 -2.91628,-2.13609 -5.01172,-2.31446 -1.16638,-0.0993 -2.27976,0.22538 -2.99024,1.08789 -0.71047,0.8625 -0.64682,2.32236 0.16016,3.28711 1.74176,2.08233 3.11327,6.32017 5.60351,9.40039 -1.09165,2.47183 -1.51847,4.57537 -1.32031,6.35547 0.21856,1.96337 1.05277,3.51727 1.88867,4.90625 0.55202,0.91727 1.36948,1.14526 2.25391,1.13281 0.44221,-0.006 0.94249,-0.11977 1.38477,-0.45898 0.44229,-0.33922 0.7508,-0.91441 0.81835,-1.5 l 0.0371,-0.32031 c 0.76221,1.14916 1.63228,2.06685 2.48243,3.03906 z"
       id="path6602" />
    <path
       id="path6604"
       d="m 453.30196,348.18038 0.90305,0.98905"
       style="fill:#ffffff;fill-opacity:1;fill-rule:evenodd;stroke:#f29111;stroke-width:1.69200003;stroke-linecap:round;stroke-linejoin:round;stroke-miterlimit:4;stroke-dasharray:none;stroke-opacity:1" />
  </g>
</svg>
