<?xml version="1.0" encoding="UTF-8" standalone="no"?>
<svg
   xmlns:dc="http://purl.org/dc/elements/1.1/"
   xmlns:cc="http://creativecommons.org/ns#"
   xmlns:rdf="http://www.w3.org/1999/02/22-rdf-syntax-ns#"
   xmlns:svg="http://www.w3.org/2000/svg"
   xmlns="http://www.w3.org/2000/svg"
   xmlns:xlink="http://www.w3.org/1999/xlink"
   version="1.1"
   id="svg8461"
   viewBox="0 0 31.214999 42.91797"
   width="8.8095665mm"
   height="12.112405mm">
  <defs
     id="defs8467">
    <linearGradient
       gradientTransform="translate(-1067.9693,537.32901)"
       gradientUnits="userSpaceOnUse"
       y2="-85.503105"
       x2="1090.3716"
       y1="-104.75837"
       x1="1111.1654"
       id="linearGradient6761"
       xlink:href="#linearGradient6755" />
    <linearGradient
       id="linearGradient6755">
      <stop
         id="stop6757"
         offset="0"
         style="stop-color:#00b9b9;stop-opacity:1;" />
      <stop
         id="stop6759"
         offset="1"
         style="stop-color:#009696;stop-opacity:1" />
    </linearGradient>
  </defs>
  <metadata
     id="metadata8463">
    <rdf:RDF>
      <cc:Work
         rdf:about="">
        <dc:format>image/svg+xml</dc:format>
        <dc:type
           rdf:resource="http://purl.org/dc/dcmitype/StillImage" />
        <dc:title></dc:title>
      </cc:Work>
    </rdf:RDF>
  </metadata>
  <g
     id="g6706"
     transform="translate(-20.342924,-428.11221)">
    <path
       id="path6544"
       d="m 35.950424,428.11221 a 15.60707,15.60707 0 0 0 -15.6075,15.60547 15.60707,15.60707 0 0 0 0.041,1.11914 c 0.8363,12.56323 15.5665,17.71422 15.5665,26.19336 0,-8.36334 14.3255,-13.49165 15.5195,-25.68555 a 15.60707,15.60707 0 0 0 0.012,-0.11523 c 0.045,-0.49311 0.076,-0.99487 0.076,-1.51172 a 15.60707,15.60707 0 0 0 -15.6074,-15.60547 z"
       style="fill:url(#linearGradient6761);fill-opacity:1;fill-rule:evenodd;stroke:none;stroke-width:1px;stroke-linecap:butt;stroke-linejoin:miter;stroke-opacity:1" />
    <path
       id="path6587"
       d="m 40.187824,450.23879 c -2.0696,-2.1807 -1.9927,-2.17868 -3.4952,-0.0919 -0.4635,0.64377 -0.915,1.1705 -1.0034,1.1705 -0.088,0 -0.7096,-0.55199 -1.3808,-1.22664 l -1.2202,-1.22663 -5.352,-0.0379 c -4.9128,-0.0348 -5.3503,-0.0578 -5.3335,-0.28106 0.03,-0.39806 3.6865,-5.33523 4.0548,-5.47524 0.1998,-0.076 0.4827,-0.0708 0.7026,0.0128 0.2024,0.077 1.5507,1.32721 2.9961,2.7783 1.4453,1.4511 2.5246,2.47578 2.3983,2.27708 -1.5637,-2.46174 -2.6366,-4.04638 -2.7398,-4.04638 -0.069,0 1.3544,-2.03066 3.1648,-4.51258 2.795,-3.83197 3.37,-4.54246 3.8118,-4.7106 0.4561,-0.17363 0.5798,-0.16839 1.0048,0.0427 0.5537,0.27486 11.707,13.22817 11.7379,13.6322 0.017,0.21946 -0.2603,0.25378 -2.6547,0.32881 -1.4704,0.0461 -2.6793,0.0948 -2.6864,0.10838 -0.2327,0.44125 -2.0465,2.78107 -2.2023,2.84084 -0.1506,0.0579 -0.7216,-0.44331 -1.8028,-1.58255 z"
       style="fill:#ffffff" />
  </g>
</svg>
