<?xml version="1.0" encoding="UTF-8" standalone="no"?>
<svg
   xmlns:dc="http://purl.org/dc/elements/1.1/"
   xmlns:cc="http://creativecommons.org/ns#"
   xmlns:rdf="http://www.w3.org/1999/02/22-rdf-syntax-ns#"
   xmlns:svg="http://www.w3.org/2000/svg"
   xmlns="http://www.w3.org/2000/svg"
   xmlns:xlink="http://www.w3.org/1999/xlink"
   version="1.1"
   id="svg6703"
   viewBox="0 0 31.215003 42.91797"
   width="8.8095675mm"
   height="12.112405mm">
  <defs
     id="defs6709">
    <linearGradient
       gradientUnits="userSpaceOnUse"
       y2="714.34357"
       x2="100.10168"
       y1="731.27661"
       x1="77.883766"
       id="linearGradient6653"
       xlink:href="#linearGradient6647" />
    <linearGradient
       id="linearGradient6647">
      <stop
         id="stop6649"
         offset="0"
         style="stop-color:#3fa648;stop-opacity:1;" />
      <stop
         id="stop6651"
         offset="1"
         style="stop-color:#80d480;stop-opacity:1" />
    </linearGradient>
  </defs>
  <metadata
     id="metadata6705">
    <rdf:RDF>
      <cc:Work
         rdf:about="">
        <dc:format>image/svg+xml</dc:format>
        <dc:type
           rdf:resource="http://purl.org/dc/dcmitype/StillImage" />
        <dc:title></dc:title>
      </cc:Work>
    </rdf:RDF>
  </metadata>
  <g
     id="g6680"
     transform="translate(-73.031667,-705.8164)">
    <path
       style="fill:url(#linearGradient6653);fill-opacity:1;fill-rule:evenodd;stroke:none;stroke-width:1px;stroke-linecap:butt;stroke-linejoin:miter;stroke-opacity:1"
       d="m 88.639167,705.8164 a 15.60707,15.60707 0 0 0 -15.6075,15.60547 15.60707,15.60707 0 0 0 0.041,1.11914 c 0.8363,12.56323 15.5665,17.71422 15.5665,26.19336 0,-8.36334 14.325503,-13.49165 15.519503,-25.68555 a 15.60707,15.60707 0 0 0 0.012,-0.11523 c 0.045,-0.49311 0.076,-0.99487 0.076,-1.51172 A 15.60707,15.60707 0 0 0 88.639267,705.8164 Z"
       id="path6564" />
    <path
       style="fill:#ffffff;fill-opacity:1"
       d="m 88.63917,708.65771 a 12.611555,12.611555 0 0 0 -12.611556,12.61155 12.611555,12.611555 0 0 0 8.191395,11.80409 l 3.163082,-7.94791 a 4.0588915,4.0588915 0 0 1 -2.801813,-3.85618 4.0588915,4.0588915 0 0 1 4.058891,-4.05888 4.0588915,4.0588915 0 0 1 4.058891,4.05888 4.0588915,4.0588915 0 0 1 -2.571914,3.77578 l 3.026048,7.98641 a 12.611555,12.611555 0 0 0 8.098526,-11.76219 12.611555,12.611555 0 0 0 -12.61155,-12.61155 z"
       id="circle6586" />
  </g>
</svg>
