<?xml version="1.0" encoding="UTF-8" standalone="no"?>
<svg
   xmlns:dc="http://purl.org/dc/elements/1.1/"
   xmlns:cc="http://creativecommons.org/ns#"
   xmlns:rdf="http://www.w3.org/1999/02/22-rdf-syntax-ns#"
   xmlns:svg="http://www.w3.org/2000/svg"
   xmlns="http://www.w3.org/2000/svg"
   xmlns:xlink="http://www.w3.org/1999/xlink"
   version="1.1"
   id="svg8596"
   viewBox="0 0 31.214999 42.91797"
   width="8.8095665mm"
   height="12.112405mm">
  <defs
     id="defs8602">
    <linearGradient
       gradientTransform="translate(-1067.9693,537.32901)"
       gradientUnits="userSpaceOnUse"
       y2="-100.71725"
       x2="1157.2976"
       y1="-83.298653"
       x1="1134.1649"
       id="linearGradient6633"
       xlink:href="#linearGradient6627" />
    <linearGradient
       id="linearGradient6627">
      <stop
         id="stop6629"
         offset="0"
         style="stop-color:#1a1a1a;stop-opacity:1" />
      <stop
         id="stop6631"
         offset="1"
         style="stop-color:#666666;stop-opacity:1" />
    </linearGradient>
  </defs>
  <metadata
     id="metadata8598">
    <rdf:RDF>
      <cc:Work
         rdf:about="">
        <dc:format>image/svg+xml</dc:format>
        <dc:type
           rdf:resource="http://purl.org/dc/dcmitype/StillImage" />
        <dc:title></dc:title>
      </cc:Work>
    </rdf:RDF>
  </metadata>
  <g
     id="g6714"
     transform="translate(-60.342924,-428.11221)">
    <path
       style="fill:url(#linearGradient6633);fill-opacity:1;fill-rule:evenodd;stroke:none;stroke-width:1px;stroke-linecap:butt;stroke-linejoin:miter;stroke-opacity:1"
       d="m 75.950424,428.11221 a 15.60707,15.60707 0 0 0 -15.6075,15.60547 15.60707,15.60707 0 0 0 0.041,1.11914 c 0.8363,12.56323 15.5665,17.71422 15.5665,26.19336 0,-8.36334 14.3255,-13.49165 15.5195,-25.68555 a 15.60707,15.60707 0 0 0 0.012,-0.11523 c 0.045,-0.49311 0.076,-0.99487 0.076,-1.51172 a 15.60707,15.60707 0 0 0 -15.6074,-15.60547 z"
       id="path6619" />
    <rect
       style="fill:none;stroke-width:4.5;stroke-miterlimit:4;stroke-dasharray:none"
       id="rect3241"
       width="23.602179"
       height="23.602179"
       x="64.306602"
       y="432.93057" />
    <g
       id="g3233"
       transform="matrix(0.1627082,0,0,0.1627082,44.932024,382.8263)"
       style="stroke:#ffffff">
      <path
         id="path3158"
         d="m 146.03756,444.84783 76.92053,0 c 6.91545,0 12.2627,-6.24408 12.2627,-12.2627 l 0,-30.86576 c 0,-20.0042 -15.02529,-28.96252 -33.42688,-33.71248 -34.06388,-8.79283 -53.80547,-13.78068 -53.80547,-28.27584 l 0,-16.55379 c 0,-3.8353 4.08068,-7.08774 10.06088,-7.08774 l 79.87011,0"
         style="fill:none;fill-rule:evenodd;stroke:#ffffff;stroke-width:16.29999924;stroke-linecap:butt;stroke-linejoin:miter;stroke-miterlimit:4;stroke-dasharray:none;stroke-opacity:1" />
      <path
         id="path3170"
         d="M 148.28558,436.59253 235.66431,324.12142"
         style="fill:none;fill-rule:evenodd;stroke:#ffffff;stroke-width:4.5;stroke-linecap:round;stroke-linejoin:miter;stroke-miterlimit:4;stroke-dasharray:none;stroke-opacity:1" />
    </g>
  </g>
</svg>
