<?xml version="1.0" encoding="UTF-8" standalone="no"?>
<svg
   xmlns:dc="http://purl.org/dc/elements/1.1/"
   xmlns:cc="http://creativecommons.org/ns#"
   xmlns:rdf="http://www.w3.org/1999/02/22-rdf-syntax-ns#"
   xmlns:svg="http://www.w3.org/2000/svg"
   xmlns="http://www.w3.org/2000/svg"
   version="1.1"
   id="svg9010"
   viewBox="0 0 31.215003 42.91797"
   width="8.8095675mm"
   height="12.112405mm">
  <defs
     id="defs9016" />
  <metadata
     id="metadata9012">
    <rdf:RDF>
      <cc:Work
         rdf:about="">
        <dc:format>image/svg+xml</dc:format>
        <dc:type
           rdf:resource="http://purl.org/dc/dcmitype/StillImage" />
        <dc:title></dc:title>
      </cc:Work>
    </rdf:RDF>
  </metadata>
  <g
     id="g8991"
     transform="translate(-75.031667,-565.8164)">
    <path
       id="path6873"
       d="m 90.639167,565.8164 a 15.60707,15.60707 0 0 0 -15.6075,15.60547 15.60707,15.60707 0 0 0 0.041,1.11914 c 0.8363,12.56323 15.5665,17.71422 15.5665,26.19336 0,-8.36334 14.325503,-13.49165 15.519503,-25.68555 a 15.60707,15.60707 0 0 0 0.012,-0.11523 c 0.045,-0.49311 0.076,-0.99487 0.076,-1.51172 A 15.60707,15.60707 0 0 0 90.639267,565.8164 Z"
       style="fill:#fffc00;fill-opacity:1;fill-rule:evenodd;stroke:none;stroke-width:1px;stroke-linecap:butt;stroke-linejoin:miter;stroke-opacity:1" />
    <path
       style="color:#000000;clip-rule:nonzero;display:inline;overflow:visible;visibility:visible;opacity:1;isolation:auto;mix-blend-mode:normal;color-interpolation:sRGB;color-interpolation-filters:linearRGB;solid-color:#000000;solid-opacity:1;fill:#ffffff;fill-opacity:1;fill-rule:evenodd;stroke:#4d4d4d;stroke-width:1px;stroke-linecap:butt;stroke-linejoin:miter;stroke-miterlimit:4;stroke-dasharray:none;stroke-dashoffset:0;stroke-opacity:1;color-rendering:auto;image-rendering:auto;shape-rendering:auto;text-rendering:auto;enable-background:accumulate"
       d="m 90.850967,569.55925 c -0.8716,-10e-4 -1.0028,0.005 -1.3744,0.0719 -0.8799,0.15707 -1.6916,0.46146 -2.3733,0.88957 -0.975,0.61223 -1.7526,1.50151 -2.2682,2.59534 -0.1913,0.40664 -0.2587,0.62312 -0.3325,1.07281 -0.1482,0.90353 -0.1563,1.8496 -0.03,3.85439 l 0.062,1.01906 -0.1293,0.11747 c -0.1967,0.17917 -0.4243,0.25272 -0.8341,0.26953 -0.4254,0.0162 -0.7805,-0.0528 -1.2359,-0.24302 -0.4329,-0.18105 -0.6638,-0.16246 -0.978,0.0773 -0.2424,0.18429 -0.1993,0.39885 0.1267,0.64052 0.2451,0.18267 0.5226,0.30798 1.0925,0.4959 1.0666,0.3517 1.5535,0.71655 1.7043,1.27647 0.057,0.20583 0.04,0.55778 -0.032,0.81842 -0.1617,0.5744 -0.7916,1.64797 -1.4331,2.43786 -1.0238,1.26051 -2.5137,2.21297 -3.9028,2.49462 -0.1482,0.0296 -0.2724,0.0717 -0.2794,0.0932 0,0.0216 0.057,0.10562 0.1428,0.18779 0.1859,0.17863 0.6598,0.39834 1.1736,0.54283 0.2837,0.0797 1.273,0.2906 1.686,0.35962 0.256,0.0431 0.391,0.28478 0.5521,0.99406 0.062,0.27072 0.1239,0.52422 0.1401,0.56328 0.035,0.0924 0.1131,0.0913 0.6048,-0.005 0.6337,-0.12555 0.8961,-0.15249 1.4606,-0.15141 0.6299,0.001 1.0631,0.0595 1.4756,0.19748 0.4685,0.15707 0.7123,0.30084 1.9827,1.17123 0.8629,0.59125 1.5295,0.88346 2.2213,0.97364 0.3325,0.0434 1.2149,0.0364 1.5371,-0.0135 l 5e-4,0 c 0.7857,-0.11828 1.3811,-0.40139 2.5205,-1.19696 0.8403,-0.5868 1.1318,-0.75613 1.5731,-0.91458 0.7226,-0.25945 1.8019,-0.29793 2.8659,-0.10157 0.2344,0.0437 0.493,0.0795 0.5722,0.0795 0.1724,0 0.159,0.0321 0.312,-0.6443 0.1185,-0.52553 0.2209,-0.76817 0.3748,-0.88203 0.051,-0.0388 0.234403,-0.087 0.517803,-0.13633 1.0432,-0.18132 2.0328,-0.48584 2.3871,-0.73514 0.167,-0.11693 0.3036,-0.27193 0.2702,-0.30509 0,-0.0108 -0.1374,-0.0447 -0.2824,-0.0765 -1.7445,-0.38237 -3.330003,-1.54433 -4.490103,-3.29109 -0.4885,-0.73517 -0.828,-1.44655 -0.9072,-1.90185 -0.073,-0.42191 0.081,-0.85983 0.4133,-1.16667 0.2667,-0.24626 0.6213,-0.42752 1.2773,-0.65187 0.8638,-0.2955 1.218103,-0.49261 1.374903,-0.76618 0.067,-0.11693 0.067,-0.12097 0,-0.23709 -0.1051,-0.21581 -0.577403,-0.42353 -0.840303,-0.37021 -0.057,0.0108 -0.2156,0.0679 -0.3543,0.12636 -0.4586,0.1929 -0.7172,0.25056 -1.1213,0.24975 -0.4241,-7.8e-4 -0.634,-0.0647 -0.8533,-0.25972 l -0.132,-0.11747 0.065,-1.10538 c 0.1213,-2.07775 0.1159,-2.84415 -0.027,-3.72642 -0.081,-0.49633 -0.1563,-0.74008 -0.3839,-1.20607 -0.7716,-1.58791 -2.0732,-2.6923 -3.7695,-3.19798 -0.794,-0.23682 -1.0319,-0.26592 -2.1319,-0.26726 z"
       id="rect6893" />
  </g>
</svg>
