<?xml version="1.0" encoding="UTF-8" standalone="no"?>
<svg
   xmlns:dc="http://purl.org/dc/elements/1.1/"
   xmlns:cc="http://creativecommons.org/ns#"
   xmlns:rdf="http://www.w3.org/1999/02/22-rdf-syntax-ns#"
   xmlns:svg="http://www.w3.org/2000/svg"
   xmlns="http://www.w3.org/2000/svg"
   version="1.1"
   id="svg8123"
   viewBox="0 0 31.214841 42.91797"
   width="8.8095217mm"
   height="12.112405mm">
  <defs
     id="defs8129" />
  <metadata
     id="metadata8125">
    <rdf:RDF>
      <cc:Work
         rdf:about="">
        <dc:format>image/svg+xml</dc:format>
        <dc:type
           rdf:resource="http://purl.org/dc/dcmitype/StillImage" />
        <dc:title></dc:title>
      </cc:Work>
    </rdf:RDF>
  </metadata>
  <g
     id="g6682"
     transform="translate(-489.30994,-280.95987)">
    <path
       style="fill:#207347;fill-opacity:1;fill-rule:evenodd;stroke:none;stroke-width:1px;stroke-linecap:butt;stroke-linejoin:miter;stroke-opacity:1"
       d="m 504.91736,280.95987 a 15.60707,15.60707 0 0 0 -15.60742,15.60547 15.60707,15.60707 0 0 0 0.041,1.11914 c 0.83623,12.56323 15.56641,17.71422 15.56641,26.19336 0,-8.36334 14.32556,-13.49165 15.51953,-25.68555 a 15.60707,15.60707 0 0 0 0.0117,-0.11523 c 0.0447,-0.49311 0.0762,-0.99487 0.0762,-1.51172 a 15.60707,15.60707 0 0 0 -15.60742,-15.60547 z"
       id="path6638" />
    <path
       style="fill:#ffffff;fill-rule:evenodd;stroke:none;stroke-width:0.2526238px;stroke-linecap:butt;stroke-linejoin:miter;stroke-opacity:1"
       d="m 511.04605,290.06434 c -2.54166,0.0569 -5.53921,1.4828 -8.60505,5.16388 -6.30216,-6.57213 -10.89988,-1.53548 -11.02306,1.89165 -0.12905,3.5901 5.97648,9.70218 12.7463,2.87258 6.6724,6.73667 13.86029,2.08862 13.99541,-2.90742 0.0922,-3.40772 -2.87746,-7.11557 -7.1136,-7.02069 z m 1.41017,4.24894 c 1.12115,1.91407 0.60098,5.84219 -1.2977,6.99693 -2.61861,-0.38779 -3.53793,-0.59975 -5.67652,-2.19628 1.34437,-1.65369 5.32371,-4.30779 6.97422,-4.80065 z m -14.83171,0.80407 c 1.22748,0.0124 2.54201,0.48146 3.56629,1.2597 -2.17935,2.01121 -4.34884,4.06309 -7.23079,3.17614 -0.18515,-3.20738 1.61872,-4.45642 3.6645,-4.43584 z"
       id="path6695" />
  </g>
</svg>
