<?xml version="1.0" encoding="UTF-8" standalone="no"?>
<svg
   xmlns:dc="http://purl.org/dc/elements/1.1/"
   xmlns:cc="http://creativecommons.org/ns#"
   xmlns:rdf="http://www.w3.org/1999/02/22-rdf-syntax-ns#"
   xmlns:svg="http://www.w3.org/2000/svg"
   xmlns="http://www.w3.org/2000/svg"
   xmlns:xlink="http://www.w3.org/1999/xlink"
   version="1.1"
   id="svg8223"
   viewBox="0 0 31.214841 42.91797"
   width="8.8095217mm"
   height="12.112405mm">
  <defs
     id="defs8229">
    <linearGradient
       y2="280.95987"
       x2="566.52478"
       y1="312.44336"
       x1="540.27557"
       gradientUnits="userSpaceOnUse"
       id="linearGradient6770"
       xlink:href="#linearGradient6658" />
    <linearGradient
       id="linearGradient6658">
      <stop
         id="stop6660"
         offset="0"
         style="stop-color:#703295;stop-opacity:1;" />
      <stop
         id="stop6662"
         offset="1"
         style="stop-color:#17ade0;stop-opacity:1" />
    </linearGradient>
  </defs>
  <metadata
     id="metadata8225">
    <rdf:RDF>
      <cc:Work
         rdf:about="">
        <dc:format>image/svg+xml</dc:format>
        <dc:type
           rdf:resource="http://purl.org/dc/dcmitype/StillImage" />
        <dc:title></dc:title>
      </cc:Work>
    </rdf:RDF>
  </metadata>
  <g
     id="g6686"
     transform="translate(-535.30994,-280.95987)">
    <path
       id="path6715"
       d="m 550.91736,280.95987 a 15.60707,15.60707 0 0 0 -15.60742,15.60547 15.60707,15.60707 0 0 0 0.041,1.11914 c 0.83623,12.56323 15.56641,17.71422 15.56641,26.19336 0,-8.36334 14.32556,-13.49165 15.51953,-25.68555 a 15.60707,15.60707 0 0 0 0.0117,-0.11523 c 0.0447,-0.49311 0.0762,-0.99487 0.0762,-1.51172 a 15.60707,15.60707 0 0 0 -15.60742,-15.60547 z"
       style="color:#000000;clip-rule:nonzero;display:inline;overflow:visible;visibility:visible;opacity:1;isolation:auto;mix-blend-mode:normal;color-interpolation:sRGB;color-interpolation-filters:linearRGB;solid-color:#000000;solid-opacity:1;fill:url(#linearGradient6770);fill-opacity:1;fill-rule:evenodd;stroke:none;stroke-width:1px;stroke-linecap:butt;stroke-linejoin:miter;stroke-miterlimit:4;stroke-dasharray:none;stroke-dashoffset:0;stroke-opacity:1;color-rendering:auto;image-rendering:auto;shape-rendering:auto;text-rendering:auto;enable-background:accumulate" />
    <path
       style="fill:#ffffff;fill-rule:evenodd;stroke:none;stroke-width:0.20196347px;stroke-linecap:butt;stroke-linejoin:miter;stroke-opacity:1"
       d="m 555.55117,287.27699 -8.09275,8.18563 -5.17476,-4.07688 -2.16525,1.12838 0,10.13188 2.071,1.09787 5.17476,-4.01447 8.12462,8.09135 5.23851,-2.13201 0,-16.21737 -5.17613,-2.19438 z m 0,6.08413 0,8.3755 -5.39517,-4.1725 5.39517,-4.203 z m -13.36176,1.224 3.04275,2.979 -3.04275,3.04275 0,-6.02175 z"
       id="path6727" />
  </g>
</svg>
